Laila_1.ufo
<glyph name="dollar" format="1">
  <advance width="709"/>
  <unicode hex="0024"/>
  <outline>
    <contour>
      <point x="294" y="704" type="line"/>
      <point x="294" y="778" type="line" smooth="yes"/>
      <point x="294" y="812"/>
      <point x="283" y="835"/>
      <point x="260" y="847" type="curve"/>
      <point x="282" y="872"/>
      <point x="312" y="890"/>
      <point x="352" y="890" type="curve" smooth="yes"/>
      <point x="420" y="890"/>
      <point x="451" y="852"/>
      <point x="451" y="772" type="curve" smooth="yes"/>
      <point x="451" y="704" type="line"/>
    </contour>
    <contour>
      <point x="419" y="56" type="line"/>
      <point x="419" y="-41" type="line" smooth="yes"/>
      <point x="419" y="-77"/>
      <point x="428" y="-100"/>
      <point x="451" y="-112" type="curve"/>
      <point x="430" y="-137"/>
      <point x="401" y="-155"/>
      <point x="360" y="-155" type="curve" smooth="yes"/>
      <point x="292" y="-155"/>
      <point x="262" y="-116"/>
      <point x="262" y="-36" type="curve" smooth="yes"/>
      <point x="262" y="56" type="line"/>
    </contour>
    <component base="S"/>
  </outline>
</glyph>
<glyph name="quotesingle" format="1">
  <advance width="299"/>
  <unicode hex="0027"/>
  <outline>
    <contour>
      <point x="227" y="812" type="curve" smooth="yes"/>
      <point x="227" y="884"/>
      <point x="202" y="930"/>
      <point x="149" y="930" type="curve" smooth="yes"/>
      <point x="101" y="930"/>
      <point x="72" y="884"/>
      <point x="72" y="812" type="curve" smooth="yes"/>
      <point x="72" y="722"/>
      <point x="120" y="594"/>
      <point x="150" y="594" type="curve" smooth="yes"/>
      <point x="182" y="594"/>
      <point x="227" y="722"/>
    </contour>
  </outline>
</glyph>
<glyph name="parenleft" format="1">
  <advance width="529"/>
  <unicode hex="0028"/>
  <outline>
    <contour>
      <point x="493" y="968" type="curve"/>
      <point x="484" y="989"/>
      <point x="456" y="998"/>
      <point x="430" y="998" type="curve" smooth="yes"/>
      <point x="323" y="998"/>
      <point x="96" y="703"/>
      <point x="96" y="349" type="curve" smooth="yes"/>
      <point x="96" y="-5"/>
      <point x="323" y="-299"/>
      <point x="430" y="-299" type="curve" smooth="yes"/>
      <point x="456" y="-299"/>
      <point x="484" y="-289"/>
      <point x="493" y="-269" type="curve"/>
      <point x="389" y="-148"/>
      <point x="264" y="41"/>
      <point x="264" y="349" type="curve" smooth="yes"/>
      <point x="264" y="658"/>
      <point x="389" y="847"/>
    </contour>
  </outline>
</glyph>
<glyph name="parenright" format="1">
  <advance width="529"/>
  <unicode hex="0029"/>
  <outline>
    <contour>
      <point x="457" y="349" type="curve" smooth="yes"/>
      <point x="457" y="-5"/>
      <point x="230" y="-299"/>
      <point x="124" y="-299" type="curve" smooth="yes"/>
      <point x="97" y="-299"/>
      <point x="70" y="-289"/>
      <point x="60" y="-269" type="curve"/>
      <point x="164" y="-148"/>
      <point x="289" y="41"/>
      <point x="289" y="349" type="curve" smooth="yes"/>
      <point x="289" y="658"/>
      <point x="164" y="847"/>
      <point x="60" y="968" type="curve"/>
      <point x="70" y="989"/>
      <point x="97" y="998"/>
      <point x="124" y="998" type="curve" smooth="yes"/>
      <point x="230" y="998"/>
      <point x="457" y="703"/>
    </contour>
  </outline>
</glyph>
<glyph name="plus" format="1">
  <advance width="728"/>
  <unicode hex="002B"/>
  <outline>
    <contour>
      <point x="430" y="599" type="line"/>
      <point x="422" y="602"/>
      <point x="407" y="607"/>
      <point x="394" y="607" type="curve" smooth="yes"/>
      <point x="308" y="607"/>
      <point x="296" y="529"/>
      <point x="296" y="481" type="curve" smooth="yes"/>
      <point x="296" y="475"/>
      <point x="298" y="445"/>
      <point x="301" y="358" type="curve"/>
      <point x="191" y="361"/>
      <point x="186" y="361"/>
      <point x="181" y="361" type="curve" smooth="yes"/>
      <point x="134" y="361"/>
      <point x="52" y="353"/>
      <point x="52" y="265" type="curve" smooth="yes"/>
      <point x="52" y="252"/>
      <point x="56" y="236"/>
      <point x="60" y="229" type="curve"/>
      <point x="305" y="233" type="line"/>
      <point x="301" y="-11" type="line"/>
      <point x="305" y="-14"/>
      <point x="319" y="-17"/>
      <point x="329" y="-17" type="curve" smooth="yes"/>
      <point x="410" y="-17"/>
      <point x="430" y="55"/>
      <point x="430" y="115" type="curve" smooth="yes"/>
      <point x="430" y="119"/>
      <point x="430" y="146"/>
      <point x="426" y="233" type="curve"/>
      <point x="536" y="229"/>
      <point x="540" y="229"/>
      <point x="545" y="229" type="curve" smooth="yes"/>
      <point x="592" y="229"/>
      <point x="676" y="238"/>
      <point x="676" y="330" type="curve" smooth="yes"/>
      <point x="676" y="340"/>
      <point x="673" y="354"/>
      <point x="670" y="361" type="curve"/>
      <point x="426" y="358" type="line"/>
    </contour>
  </outline>
</glyph>
<glyph name="slash" format="1">
  <advance width="510"/>
  <unicode hex="002F"/>
  <outline>
    <contour>
      <point x="565" y="1031" type="curve"/>
      <point x="545" y="1048"/>
      <point x="521" y="1052"/>
      <point x="505" y="1052" type="curve" smooth="yes"/>
      <point x="450" y="1052"/>
      <point x="427" y="989"/>
      <point x="418" y="962" type="curve" smooth="yes"/>
      <point x="64" y="-58" type="line" smooth="yes"/>
      <point x="54" y="-85"/>
      <point x="37" y="-122"/>
      <point x="25" y="-132" type="curve"/>
      <point x="48" y="-152"/>
      <point x="69" y="-155"/>
      <point x="83" y="-155" type="curve" smooth="yes"/>
      <point x="139" y="-155"/>
      <point x="162" y="-91"/>
      <point x="172" y="-64" type="curve" smooth="yes"/>
      <point x="527" y="959" type="line" smooth="yes"/>
      <point x="535" y="984"/>
      <point x="549" y="1019"/>
    </contour>
  </outline>
</glyph>
<glyph name="zero" format="1">
  <advance width="689"/>
  <unicode hex="0030"/>
  <outline>
    <contour>
      <point x="48" y="368" type="curve" smooth="yes"/>
      <point x="48" y="158"/>
      <point x="140" y="-11"/>
      <point x="344" y="-11" type="curve" smooth="yes"/>
      <point x="547" y="-11"/>
      <point x="641" y="158"/>
      <point x="641" y="368" type="curve" smooth="yes"/>
      <point x="641" y="578"/>
      <point x="547" y="746"/>
      <point x="344" y="746" type="curve" smooth="yes"/>
      <point x="140" y="746"/>
      <point x="48" y="578"/>
    </contour>
    <contour>
      <point x="328" y="643" type="curve" smooth="yes"/>
      <point x="436" y="643"/>
      <point x="472" y="515"/>
      <point x="479" y="368" type="curve" smooth="yes"/>
      <point x="487" y="222"/>
      <point x="467" y="92"/>
      <point x="359" y="92" type="curve" smooth="yes"/>
      <point x="253" y="92"/>
      <point x="217" y="222"/>
      <point x="210" y="368" type="curve" smooth="yes"/>
      <point x="202" y="515"/>
      <point x="222" y="643"/>
    </contour>
  </outline>
</glyph>
<glyph name="one" format="1">
  <advance width="394"/>
  <unicode hex="0031"/>
  <outline>
    <contour>
      <point x="289" y="103" type="curve" smooth="yes"/>
      <point x="289" y="638" type="line" smooth="yes"/>
      <point x="289" y="703"/>
      <point x="254" y="746"/>
      <point x="186" y="746" type="curve" smooth="yes"/>
      <point x="95" y="746"/>
      <point x="28" y="686"/>
      <point x="28" y="640" type="curve" smooth="yes"/>
      <point x="28" y="625"/>
      <point x="36" y="611"/>
      <point x="50" y="605" type="curve"/>
      <point x="67" y="618"/>
      <point x="86" y="626"/>
      <point x="106" y="626" type="curve" smooth="yes"/>
      <point x="122" y="626"/>
      <point x="132" y="616"/>
      <point x="132" y="595" type="curve" smooth="yes"/>
      <point x="132" y="108" type="line" smooth="yes"/>
      <point x="132" y="28"/>
      <point x="162" y="-11"/>
      <point x="230" y="-11" type="curve" smooth="yes"/>
      <point x="271" y="-11"/>
      <point x="300" y="7"/>
      <point x="322" y="32" type="curve"/>
      <point x="299" y="44"/>
      <point x="289" y="67"/>
    </contour>
  </outline>
</glyph>
<glyph name="two" format="1">
  <advance width="584"/>
  <unicode hex="0032"/>
  <outline>
    <contour>
      <point x="532" y="523" type="curve" smooth="yes"/>
      <point x="532" y="644"/>
      <point x="440" y="746"/>
      <point x="283" y="746" type="curve" smooth="yes"/>
      <point x="158" y="746"/>
      <point x="36" y="670"/>
      <point x="36" y="569" type="curve" smooth="yes"/>
      <point x="36" y="497"/>
      <point x="97" y="461"/>
      <point x="157" y="461" type="curve" smooth="yes"/>
      <point x="217" y="461"/>
      <point x="252" y="487"/>
      <point x="270" y="522" type="curve"/>
      <point x="234" y="533"/>
      <point x="211" y="559"/>
      <point x="211" y="590" type="curve" smooth="yes"/>
      <point x="211" y="617"/>
      <point x="229" y="650"/>
      <point x="270" y="650" type="curve" smooth="yes"/>
      <point x="325" y="650"/>
      <point x="358" y="608"/>
      <point x="358" y="523" type="curve" smooth="yes"/>
      <point x="358" y="353"/>
      <point x="174" y="222"/>
      <point x="30" y="132" type="curve"/>
      <point x="6" y="50"/>
      <point x="50" y="0"/>
      <point x="130" y="0" type="curve" smooth="yes"/>
      <point x="398" y="0" type="line" smooth="yes"/>
      <point x="521" y="0"/>
      <point x="560" y="44"/>
      <point x="560" y="100" type="curve" smooth="yes"/>
      <point x="560" y="126"/>
      <point x="547" y="156"/>
      <point x="533" y="174" type="curve"/>
      <point x="504" y="154"/>
      <point x="467" y="145"/>
      <point x="403" y="142" type="curve" smooth="yes"/>
      <point x="98" y="122" type="line"/>
      <point x="108" y="97" type="line"/>
      <point x="394" y="199"/>
      <point x="532" y="374"/>
    </contour>
  </outline>
</glyph>
<glyph name="six" format="1">
  <advance width="640"/>
  <unicode hex="0036"/>
  <outline>
    <contour>
      <point x="60" y="322" type="curve" smooth="yes"/>
      <point x="60" y="143"/>
      <point x="158" y="-11"/>
      <point x="338" y="-11" type="curve" smooth="yes"/>
      <point x="480" y="-11"/>
      <point x="592" y="86"/>
      <point x="592" y="241" type="curve" smooth="yes"/>
      <point x="592" y="331"/>
      <point x="526" y="455"/>
      <point x="389" y="455" type="curve" smooth="yes"/>
      <point x="323" y="455"/>
      <point x="272" y="409"/>
      <point x="271" y="347" type="curve"/>
      <point x="396" y="340"/>
      <point x="455" y="247"/>
      <point x="455" y="175" type="curve" smooth="yes"/>
      <point x="455" y="119"/>
      <point x="414" y="83"/>
      <point x="367" y="83" type="curve" smooth="yes"/>
      <point x="301" y="83"/>
      <point x="222" y="155"/>
      <point x="222" y="344" type="curve" smooth="yes"/>
      <point x="222" y="532"/>
      <point x="320" y="665"/>
      <point x="478" y="682" type="curve"/>
      <point x="479" y="685"/>
      <point x="479" y="689"/>
      <point x="479" y="692" type="curve" smooth="yes"/>
      <point x="479" y="730"/>
      <point x="440" y="746"/>
      <point x="408" y="746" type="curve" smooth="yes"/>
      <point x="198" y="746"/>
      <point x="60" y="529"/>
    </contour>
  </outline>
</glyph>
<glyph name="colon" format="1">
  <advance width="398"/>
  <unicode hex="003A"/>
  <outline>
    <contour>
      <point x="295" y="469" type="curve" smooth="yes"/>
      <point x="295" y="515"/>
      <point x="263" y="550"/>
      <point x="215" y="550" type="curve" smooth="yes"/>
      <point x="158" y="550"/>
      <point x="103" y="497"/>
      <point x="103" y="438" type="curve" smooth="yes"/>
      <point x="103" y="394"/>
      <point x="136" y="358"/>
      <point x="184" y="358" type="curve" smooth="yes"/>
      <point x="242" y="358"/>
      <point x="295" y="410"/>
    </contour>
    <contour>
      <point x="295" y="101" type="curve" smooth="yes"/>
      <point x="295" y="146"/>
      <point x="263" y="181"/>
      <point x="215" y="181" type="curve" smooth="yes"/>
      <point x="158" y="181"/>
      <point x="103" y="128"/>
      <point x="103" y="70" type="curve" smooth="yes"/>
      <point x="103" y="25"/>
      <point x="136" y="-11"/>
      <point x="184" y="-11" type="curve" smooth="yes"/>
      <point x="242" y="-11"/>
      <point x="295" y="42"/>
    </contour>
  </outline>
</glyph>
<glyph name="semicolon" format="1">
  <advance width="398"/>
  <unicode hex="003B"/>
  <outline>
    <contour>
      <point x="295" y="469" type="curve" smooth="yes"/>
      <point x="295" y="515"/>
      <point x="263" y="550"/>
      <point x="215" y="550" type="curve" smooth="yes"/>
      <point x="158" y="550"/>
      <point x="103" y="497"/>
      <point x="103" y="438" type="curve" smooth="yes"/>
      <point x="103" y="394"/>
      <point x="136" y="358"/>
      <point x="184" y="358" type="curve" smooth="yes"/>
      <point x="242" y="358"/>
      <point x="295" y="410"/>
    </contour>
    <contour>
      <point x="156" y="-37" type="curve" smooth="yes"/>
      <point x="156" y="-95"/>
      <point x="131" y="-158"/>
      <point x="82" y="-196" type="curve"/>
      <point x="88" y="-220"/>
      <point x="104" y="-229"/>
      <point x="121" y="-229" type="curve" smooth="yes"/>
      <point x="204" y="-229"/>
      <point x="294" y="-65"/>
      <point x="294" y="43" type="curve" smooth="yes"/>
      <point x="294" y="113"/>
      <point x="263" y="178"/>
      <point x="188" y="178" type="curve" smooth="yes"/>
      <point x="137" y="178"/>
      <point x="101" y="138"/>
      <point x="86" y="96" type="curve"/>
      <point x="134" y="67"/>
      <point x="156" y="17"/>
    </contour>
  </outline>
</glyph>
<glyph name="greater" format="1">
  <advance width="734"/>
  <unicode hex="003E"/>
  <outline>
    <contour>
      <point x="172" y="28" type="curve" smooth="yes"/>
      <point x="258" y="28"/>
      <point x="662" y="225"/>
      <point x="662" y="316" type="curve" smooth="yes"/>
      <point x="662" y="414"/>
      <point x="212" y="620"/>
      <point x="142" y="620" type="curve" smooth="yes"/>
      <point x="114" y="620"/>
      <point x="68" y="604"/>
      <point x="68" y="556" type="curve"/>
      <point x="122" y="534"/>
      <point x="474" y="393"/>
      <point x="474" y="354" type="curve" smooth="yes"/>
      <point x="474" y="322"/>
      <point x="180" y="195"/>
      <point x="70" y="151" type="curve"/>
      <point x="70" y="76"/>
      <point x="110" y="28"/>
    </contour>
  </outline>
</glyph>
<glyph name="at" format="1">
  <advance width="958"/>
  <unicode hex="0040"/>
  <outline>
    <contour>
      <point x="539" y="276" type="curve"/>
      <point x="542" y="329" type="line"/>
      <point x="360" y="329"/>
      <point x="251" y="272"/>
      <point x="246" y="188" type="curve" smooth="yes"/>
      <point x="241" y="118"/>
      <point x="295" y="80"/>
      <point x="378" y="80" type="curve" smooth="yes"/>
      <point x="455" y="80"/>
      <point x="511" y="116"/>
      <point x="541" y="154" type="curve"/>
      <point x="538" y="212" type="line"/>
      <point x="512" y="180"/>
      <point x="484" y="162"/>
      <point x="452" y="162" type="curve" smooth="yes"/>
      <point x="421" y="162"/>
      <point x="401" y="174"/>
      <point x="403" y="203" type="curve" smooth="yes"/>
      <point x="406" y="240"/>
      <point x="439" y="272"/>
    </contour>
    <contour>
      <point x="677" y="384" type="line" smooth="yes"/>
      <point x="684" y="496"/>
      <point x="604" y="534"/>
      <point x="499" y="534" type="curve" smooth="yes"/>
      <point x="394" y="534"/>
      <point x="288" y="492"/>
      <point x="284" y="427" type="curve" smooth="yes"/>
      <point x="282" y="388"/>
      <point x="308" y="358"/>
      <point x="367" y="358" type="curve" smooth="yes"/>
      <point x="402" y="358"/>
      <point x="431" y="370"/>
      <point x="452" y="388" type="curve"/>
      <point x="444" y="398"/>
      <point x="439" y="413"/>
      <point x="440" y="424" type="curve"/>
      <point x="442" y="448"/>
      <point x="462" y="464"/>
      <point x="488" y="464" type="curve" smooth="yes"/>
      <point x="520" y="464"/>
      <point x="538" y="448"/>
      <point x="535" y="408" type="curve" smooth="yes"/>
      <point x="521" y="179" type="line" smooth="yes"/>
      <point x="516" y="112"/>
      <point x="562" y="80"/>
      <point x="629" y="80" type="curve" smooth="yes"/>
      <point x="768" y="80"/>
      <point x="886" y="187"/>
      <point x="886" y="370" type="curve" smooth="yes"/>
      <point x="886" y="534"/>
      <point x="769" y="695"/>
      <point x="535" y="695" type="curve" smooth="yes"/>
      <point x="250" y="695"/>
      <point x="54" y="486"/>
      <point x="54" y="238" type="curve" smooth="yes"/>
      <point x="54" y="22"/>
      <point x="200" y="-96"/>
      <point x="395" y="-96" type="curve" smooth="yes"/>
      <point x="532" y="-96"/>
      <point x="671" y="-42"/>
      <point x="631" y="2" type="curve"/>
      <point x="560" y="-24"/>
      <point x="490" y="-36"/>
      <point x="416" y="-36" type="curve" smooth="yes"/>
      <point x="224" y="-36"/>
      <point x="120" y="60"/>
      <point x="120" y="238" type="curve" smooth="yes"/>
      <point x="120" y="455"/>
      <point x="264" y="628"/>
      <point x="516" y="635" type="curve" smooth="yes"/>
      <point x="720" y="641"/>
      <point x="826" y="520"/>
      <point x="820" y="348" type="curve" smooth="yes"/>
      <point x="815" y="216"/>
      <point x="751" y="152"/>
      <point x="696" y="152" type="curve" smooth="yes"/>
      <point x="674" y="152"/>
      <point x="664" y="166"/>
      <point x="666" y="194" type="curve" smooth="yes"/>
    </contour>
  </outline>
</glyph>
<glyph name="A" format="1">
  <advance width="742"/>
  <unicode hex="0041"/>
  <outline>
    <contour>
      <point x="692" y="29" type="move" name="ogonek"/>
    </contour>
    <contour>
      <point x="371" y="736" type="move" name="top"/>
    </contour>
    <contour>
      <point x="547" y="140" type="line"/>
      <point x="198" y="140" type="line"/>
      <point x="232" y="236" type="line"/>
      <point x="510" y="236" type="line"/>
    </contour>
    <contour>
      <point x="474" y="622" type="curve" smooth="yes"/>
      <point x="653" y="138" type="line" smooth="yes"/>
      <point x="670" y="91"/>
      <point x="691" y="61"/>
      <point x="722" y="46" type="curve"/>
      <point x="706" y="12"/>
      <point x="666" y="-11"/>
      <point x="616" y="-11" type="curve" smooth="yes"/>
      <point x="562" y="-11"/>
      <point x="529" y="10"/>
      <point x="505" y="86" type="curve" smooth="yes"/>
      <point x="337" y="620" type="line"/>
      <point x="388" y="598" type="line"/>
      <point x="234" y="87" type="line" smooth="yes"/>
      <point x="212" y="13"/>
      <point x="176" y="-11"/>
      <point x="134" y="-11" type="curve" smooth="yes"/>
      <point x="92" y="-11"/>
      <point x="48" y="10"/>
      <point x="36" y="40" type="curve"/>
      <point x="60" y="50"/>
      <point x="72" y="70"/>
      <point x="90" y="115" type="curve" smooth="yes"/>
      <point x="295" y="644" type="line"/>
      <point x="286" y="670"/>
      <point x="274" y="685"/>
      <point x="256" y="698" type="curve"/>
      <point x="274" y="726"/>
      <point x="308" y="746"/>
      <point x="352" y="746" type="curve" smooth="yes"/>
      <point x="425" y="746"/>
      <point x="444" y="702"/>
    </contour>
  </outline>
</glyph>
<glyph name="D" format="1">
  <advance width="803"/>
  <unicode hex="0044"/>
  <outline>
    <contour>
      <point x="262" y="622" type="line"/>
      <point x="294" y="634"/>
      <point x="318" y="640"/>
      <point x="356" y="640" type="curve" smooth="yes"/>
      <point x="498" y="640"/>
      <point x="582" y="529"/>
      <point x="582" y="367" type="curve" smooth="yes"/>
      <point x="582" y="205"/>
      <point x="498" y="96"/>
      <point x="356" y="96" type="curve" smooth="yes"/>
      <point x="284" y="96"/>
      <point x="262" y="120"/>
      <point x="262" y="158" type="curve" smooth="yes"/>
    </contour>
    <contour>
      <point x="744" y="367" type="curve" smooth="yes"/>
      <point x="744" y="611"/>
      <point x="581" y="746"/>
      <point x="356" y="746" type="curve" smooth="yes"/>
      <point x="251" y="746"/>
      <point x="168" y="727"/>
      <point x="77" y="694" type="curve"/>
      <point x="96" y="665"/>
      <point x="104" y="626"/>
      <point x="104" y="584" type="curve" smooth="yes"/>
      <point x="104" y="169" type="line" smooth="yes"/>
      <point x="104" y="41"/>
      <point x="184" y="-11"/>
      <point x="356" y="-11" type="curve" smooth="yes"/>
      <point x="581" y="-11"/>
      <point x="744" y="124"/>
    </contour>
    <contour>
      <point x="402" y="730" type="move" name="top"/>
    </contour>
  </outline>
</glyph>
<glyph name="G" format="1">
  <advance width="790"/>
  <unicode hex="0047"/>
  <outline>
    <contour>
      <point x="720" y="596" type="curve" smooth="yes"/>
      <point x="720" y="679"/>
      <point x="604" y="746"/>
      <point x="462" y="746" type="curve" smooth="yes"/>
      <point x="199" y="746"/>
      <point x="62" y="572"/>
      <point x="62" y="341" type="curve" smooth="yes"/>
      <point x="62" y="98"/>
      <point x="238" y="-11"/>
      <point x="382" y="-11" type="curve" smooth="yes"/>
      <point x="490" y="-11"/>
      <point x="559" y="40"/>
      <point x="584" y="115" type="curve"/>
      <point x="559" y="115" type="line"/>
      <point x="559" y="12" type="line" smooth="yes"/>
      <point x="559" y="-68"/>
      <point x="589" y="-107"/>
      <point x="658" y="-107" type="curve" smooth="yes"/>
      <point x="698" y="-107"/>
      <point x="727" y="-89"/>
      <point x="749" y="-64" type="curve"/>
      <point x="726" y="-52"/>
      <point x="716" y="-29"/>
      <point x="716" y="7" type="curve" smooth="yes"/>
      <point x="716" y="280" type="line" smooth="yes"/>
      <point x="716" y="362"/>
      <point x="684" y="397"/>
      <point x="577" y="397" type="curve" smooth="yes"/>
      <point x="456" y="397"/>
      <point x="415" y="383"/>
      <point x="415" y="334" type="curve" smooth="yes"/>
      <point x="415" y="323"/>
      <point x="420" y="294"/>
      <point x="433" y="275" type="curve"/>
      <point x="475" y="277"/>
      <point x="502" y="277"/>
      <point x="527" y="277" type="curve" smooth="yes"/>
      <point x="559" y="277" type="line"/>
      <point x="559" y="230" type="line" smooth="yes"/>
      <point x="559" y="149"/>
      <point x="515" y="109"/>
      <point x="428" y="109" type="curve" smooth="yes"/>
      <point x="301" y="109"/>
      <point x="228" y="212"/>
      <point x="230" y="373" type="curve" smooth="yes"/>
      <point x="233" y="545"/>
      <point x="307" y="658"/>
      <point x="430" y="658" type="curve" smooth="yes"/>
      <point x="498" y="658"/>
      <point x="541" y="611"/>
      <point x="533" y="532" type="curve"/>
      <point x="557" y="517"/>
      <point x="584" y="511"/>
      <point x="608" y="511" type="curve" smooth="yes"/>
      <point x="666" y="511"/>
      <point x="720" y="546"/>
    </contour>
    <contour>
      <point x="445" y="736" type="move" name="top"/>
    </contour>
    <contour>
      <point x="395" y="0" type="move" name="bottom"/>
    </contour>
  </outline>
</glyph>
<glyph name="I" format="1">
  <advance width="377"/>
  <unicode hex="0049"/>
  <outline>
    <contour>
      <point x="280" y="10" type="move" name="ogonek"/>
    </contour>
    <contour>
      <point x="188" y="736" type="move" name="top"/>
    </contour>
    <contour>
      <point x="268" y="103" type="curve" smooth="yes"/>
      <point x="268" y="628" type="line" smooth="yes"/>
      <point x="268" y="708"/>
      <point x="236" y="746"/>
      <point x="168" y="746" type="curve" smooth="yes"/>
      <point x="128" y="746"/>
      <point x="98" y="728"/>
      <point x="77" y="703" type="curve"/>
      <point x="100" y="691"/>
      <point x="110" y="668"/>
      <point x="110" y="634" type="curve" smooth="yes"/>
      <point x="110" y="108" type="line" smooth="yes"/>
      <point x="110" y="28"/>
      <point x="140" y="-11"/>
      <point x="209" y="-11" type="curve" smooth="yes"/>
      <point x="250" y="-11"/>
      <point x="278" y="7"/>
      <point x="300" y="32" type="curve"/>
      <point x="277" y="44"/>
      <point x="268" y="67"/>
    </contour>
  </outline>
</glyph>
<glyph name="J" format="1">
  <advance width="468"/>
  <unicode hex="004A"/>
  <outline>
    <contour>
      <point x="190" y="-11" type="curve" smooth="yes"/>
      <point x="313" y="-11"/>
      <point x="403" y="56"/>
      <point x="403" y="197" type="curve" smooth="yes"/>
      <point x="403" y="628" type="line" smooth="yes"/>
      <point x="403" y="708"/>
      <point x="372" y="746"/>
      <point x="304" y="746" type="curve" smooth="yes"/>
      <point x="264" y="746"/>
      <point x="234" y="728"/>
      <point x="212" y="703" type="curve"/>
      <point x="235" y="691"/>
      <point x="246" y="668"/>
      <point x="246" y="634" type="curve" smooth="yes"/>
      <point x="246" y="190" type="line" smooth="yes"/>
      <point x="246" y="139"/>
      <point x="209" y="114"/>
      <point x="162" y="114" type="curve" smooth="yes"/>
      <point x="116" y="114"/>
      <point x="80" y="130"/>
      <point x="43" y="162" type="curve"/>
      <point x="29" y="149"/>
      <point x="18" y="126"/>
      <point x="18" y="101" type="curve" smooth="yes"/>
      <point x="18" y="40"/>
      <point x="86" y="-11"/>
    </contour>
  </outline>
</glyph>
<glyph name="L" format="1">
  <advance width="589"/>
  <unicode hex="004C"/>
  <outline>
    <contour>
      <point x="188" y="736" type="move" name="top"/>
    </contour>
    <contour>
      <point x="335" y="0" type="move" name="bottom"/>
    </contour>
    <contour>
      <point x="239" y="700" type="move" name="topright"/>
    </contour>
    <contour>
      <point x="268" y="628" type="curve" smooth="yes"/>
      <point x="268" y="187" type="line" smooth="yes"/>
      <point x="268" y="138"/>
      <point x="288" y="116"/>
      <point x="330" y="116" type="curve" smooth="yes"/>
      <point x="433" y="116" type="line" smooth="yes"/>
      <point x="484" y="116"/>
      <point x="517" y="130"/>
      <point x="541" y="156" type="curve"/>
      <point x="558" y="144"/>
      <point x="565" y="124"/>
      <point x="565" y="103" type="curve" smooth="yes"/>
      <point x="565" y="50"/>
      <point x="526" y="0"/>
      <point x="442" y="0" type="curve" smooth="yes"/>
      <point x="292" y="0" type="line" smooth="yes"/>
      <point x="160" y="0"/>
      <point x="110" y="42"/>
      <point x="110" y="167" type="curve" smooth="yes"/>
      <point x="110" y="634" type="line" smooth="yes"/>
      <point x="110" y="668"/>
      <point x="100" y="691"/>
      <point x="77" y="703" type="curve"/>
      <point x="98" y="728"/>
      <point x="128" y="746"/>
      <point x="168" y="746" type="curve" smooth="yes"/>
      <point x="236" y="746"/>
      <point x="268" y="708"/>
    </contour>
  </outline>
</glyph>
<glyph name="N" format="1">
  <advance width="856"/>
  <unicode hex="004E"/>
  <outline>
    <contour>
      <point x="326" y="658" type="line" smooth="yes"/>
      <point x="288" y="721"/>
      <point x="244" y="746"/>
      <point x="185" y="746" type="curve" smooth="yes"/>
      <point x="128" y="746"/>
      <point x="98" y="728"/>
      <point x="77" y="703" type="curve"/>
      <point x="100" y="691"/>
      <point x="110" y="668"/>
      <point x="110" y="634" type="curve" smooth="yes"/>
      <point x="110" y="108" type="line" smooth="yes"/>
      <point x="110" y="28"/>
      <point x="140" y="-11"/>
      <point x="209" y="-11" type="curve" smooth="yes"/>
      <point x="250" y="-11"/>
      <point x="278" y="7"/>
      <point x="300" y="32" type="curve"/>
      <point x="277" y="44"/>
      <point x="268" y="67"/>
      <point x="268" y="103" type="curve" smooth="yes"/>
      <point x="268" y="514" type="line"/>
      <point x="488" y="145" type="line" smooth="yes"/>
      <point x="557" y="32"/>
      <point x="612" y="-11"/>
      <point x="685" y="-11" type="curve" smooth="yes"/>
      <point x="728" y="-11"/>
      <point x="761" y="1"/>
      <point x="779" y="18" type="curve"/>
      <point x="764" y="40"/>
      <point x="760" y="67"/>
      <point x="760" y="103" type="curve" smooth="yes"/>
      <point x="760" y="628" type="line" smooth="yes"/>
      <point x="760" y="708"/>
      <point x="728" y="746"/>
      <point x="660" y="746" type="curve" smooth="yes"/>
      <point x="620" y="746"/>
      <point x="590" y="728"/>
      <point x="569" y="703" type="curve"/>
      <point x="592" y="691"/>
      <point x="602" y="668"/>
      <point x="602" y="634" type="curve" smooth="yes"/>
      <point x="602" y="200" type="line"/>
    </contour>
    <contour>
      <point x="428" y="736" type="move" name="top"/>
    </contour>
    <contour>
      <point x="428" y="0" type="move" name="bottom"/>
    </contour>
  </outline>
</glyph>
<glyph name="O" format="1">
  <advance width="794"/>
  <unicode hex="004F"/>
  <outline>
    <contour>
      <point x="728" y="368" type="curve" smooth="yes"/>
      <point x="728" y="578"/>
      <point x="638" y="746"/>
      <point x="397" y="746" type="curve" smooth="yes"/>
      <point x="164" y="746"/>
      <point x="66" y="578"/>
      <point x="66" y="368" type="curve" smooth="yes"/>
      <point x="66" y="158"/>
      <point x="164" y="-11"/>
      <point x="397" y="-11" type="curve" smooth="yes"/>
      <point x="637" y="-11"/>
      <point x="728" y="158"/>
    </contour>
    <contour>
      <point x="414" y="88" type="curve" smooth="yes"/>
      <point x="290" y="88"/>
      <point x="238" y="215"/>
      <point x="229" y="368" type="curve" smooth="yes"/>
      <point x="220" y="522"/>
      <point x="256" y="648"/>
      <point x="379" y="648" type="curve" smooth="yes"/>
      <point x="505" y="648"/>
      <point x="557" y="522"/>
      <point x="565" y="368" type="curve" smooth="yes"/>
      <point x="575" y="215"/>
      <point x="539" y="88"/>
    </contour>
    <contour>
      <point x="397" y="736" type="move" name="top"/>
    </contour>
  </outline>
</glyph>
<glyph name="S" format="1">
  <advance width="702"/>
  <unicode hex="0053"/>
  <outline>
    <contour>
      <point x="643" y="598" type="curve" smooth="yes"/>
      <point x="643" y="683"/>
      <point x="534" y="746"/>
      <point x="374" y="746" type="curve" smooth="yes"/>
      <point x="221" y="746"/>
      <point x="91" y="670"/>
      <point x="91" y="540" type="curve" smooth="yes"/>
      <point x="91" y="335"/>
      <point x="503" y="323"/>
      <point x="503" y="180" type="curve" smooth="yes"/>
      <point x="503" y="121"/>
      <point x="454" y="86"/>
      <point x="368" y="86" type="curve" smooth="yes"/>
      <point x="286" y="86"/>
      <point x="236" y="120"/>
      <point x="236" y="156" type="curve" smooth="yes"/>
      <point x="236" y="178"/>
      <point x="245" y="198"/>
      <point x="260" y="212" type="curve"/>
      <point x="239" y="229"/>
      <point x="210" y="244"/>
      <point x="174" y="244" type="curve" smooth="yes"/>
      <point x="128" y="244"/>
      <point x="78" y="211"/>
      <point x="78" y="152" type="curve" smooth="yes"/>
      <point x="78" y="55"/>
      <point x="208" y="-11"/>
      <point x="368" y="-11" type="curve" smooth="yes"/>
      <point x="524" y="-11"/>
      <point x="660" y="76"/>
      <point x="660" y="208" type="curve" smooth="yes"/>
      <point x="660" y="433"/>
      <point x="248" y="457"/>
      <point x="248" y="574" type="curve" smooth="yes"/>
      <point x="248" y="622"/>
      <point x="302" y="649"/>
      <point x="374" y="649" type="curve" smooth="yes"/>
      <point x="449" y="649"/>
      <point x="486" y="616"/>
      <point x="486" y="581" type="curve" smooth="yes"/>
      <point x="486" y="570"/>
      <point x="484" y="554"/>
      <point x="478" y="542" type="curve"/>
      <point x="503" y="524"/>
      <point x="532" y="516"/>
      <point x="563" y="516" type="curve" smooth="yes"/>
      <point x="604" y="516"/>
      <point x="643" y="546"/>
    </contour>
    <contour>
      <point x="352" y="736" type="move" name="top"/>
    </contour>
    <contour>
      <point x="352" y="0" type="move" name="bottom"/>
    </contour>
  </outline>
</glyph>
<glyph name="T" format="1">
  <advance width="649"/>
  <unicode hex="0054"/>
  <outline>
    <contour>
      <point x="403" y="676" type="line"/>
      <point x="246" y="676" type="line"/>
      <point x="246" y="108" type="line" smooth="yes"/>
      <point x="246" y="28"/>
      <point x="276" y="-11"/>
      <point x="344" y="-11" type="curve" smooth="yes"/>
      <point x="385" y="-11"/>
      <point x="414" y="7"/>
      <point x="436" y="32" type="curve"/>
      <point x="413" y="44"/>
      <point x="403" y="67"/>
      <point x="403" y="103" type="curve" smooth="yes"/>
    </contour>
    <contour>
      <point x="529" y="736" type="curve" smooth="yes"/>
      <point x="167" y="736" type="line" smooth="yes"/>
      <point x="115" y="736"/>
      <point x="83" y="739"/>
      <point x="49" y="754" type="curve"/>
      <point x="36" y="738"/>
      <point x="24" y="715"/>
      <point x="24" y="696" type="curve" smooth="yes"/>
      <point x="24" y="653"/>
      <point x="44" y="619"/>
      <point x="120" y="619" type="curve" smooth="yes"/>
      <point x="482" y="619" type="line" smooth="yes"/>
      <point x="534" y="619"/>
      <point x="566" y="616"/>
      <point x="600" y="601" type="curve"/>
      <point x="613" y="617"/>
      <point x="625" y="640"/>
      <point x="625" y="659" type="curve" smooth="yes"/>
      <point x="625" y="702"/>
      <point x="605" y="736"/>
    </contour>
    <contour>
      <point x="340" y="0" type="move" name="bottom"/>
    </contour>
    <contour>
      <point x="325" y="700" type="move" name="top"/>
    </contour>
  </outline>
</glyph>
<glyph name="U" format="1">
  <advance width="757"/>
  <unicode hex="0055"/>
  <outline>
    <contour>
      <point x="456" y="3" type="move" name="ogonek"/>
    </contour>
    <contour>
      <point x="391" y="736" type="move" name="top"/>
    </contour>
    <contour>
      <point x="251" y="628" type="line" smooth="yes"/>
      <point x="251" y="708"/>
      <point x="220" y="746"/>
      <point x="151" y="746" type="curve" smooth="yes"/>
      <point x="112" y="746"/>
      <point x="82" y="728"/>
      <point x="60" y="703" type="curve"/>
      <point x="83" y="691"/>
      <point x="94" y="668"/>
      <point x="94" y="634" type="curve" smooth="yes"/>
      <point x="94" y="263" type="line" smooth="yes"/>
      <point x="94" y="97"/>
      <point x="185" y="-11"/>
      <point x="395" y="-11" type="curve" smooth="yes"/>
      <point x="605" y="-11"/>
      <point x="697" y="97"/>
      <point x="697" y="263" type="curve" smooth="yes"/>
      <point x="697" y="628" type="line" smooth="yes"/>
      <point x="697" y="708"/>
      <point x="666" y="746"/>
      <point x="598" y="746" type="curve" smooth="yes"/>
      <point x="558" y="746"/>
      <point x="528" y="728"/>
      <point x="506" y="703" type="curve"/>
      <point x="529" y="691"/>
      <point x="540" y="668"/>
      <point x="540" y="634" type="curve" smooth="yes"/>
      <point x="540" y="240" type="line" smooth="yes"/>
      <point x="540" y="149"/>
      <point x="478" y="106"/>
      <point x="395" y="106" type="curve" smooth="yes"/>
      <point x="314" y="106"/>
      <point x="251" y="149"/>
      <point x="251" y="240" type="curve" smooth="yes"/>
    </contour>
  </outline>
</glyph>
<glyph name="W" format="1">
  <advance width="1033"/>
  <unicode hex="0057"/>
  <outline>
    <contour>
      <point x="246" y="626" type="curve" smooth="yes"/>
      <point x="359" y="67" type="line"/>
      <point x="298" y="67" type="line"/>
      <point x="406" y="213"/>
      <point x="443" y="386"/>
      <point x="482" y="641" type="curve"/>
      <point x="581" y="515" type="line"/>
      <point x="543" y="248"/>
      <point x="430" y="-11"/>
      <point x="322" y="-11" type="curve" smooth="yes"/>
      <point x="252" y="-11"/>
      <point x="219" y="21"/>
      <point x="194" y="120" type="curve" smooth="yes"/>
      <point x="68" y="616" type="line" smooth="yes"/>
      <point x="57" y="659"/>
      <point x="46" y="688"/>
      <point x="20" y="704" type="curve"/>
      <point x="48" y="733"/>
      <point x="80" y="746"/>
      <point x="120" y="746" type="curve" smooth="yes"/>
      <point x="176" y="746"/>
      <point x="227" y="720"/>
    </contour>
    <contour>
      <point x="602" y="650" type="curve" smooth="yes"/>
      <point x="738" y="82" type="line"/>
      <point x="699" y="82" type="line"/>
      <point x="791" y="259"/>
      <point x="838" y="416"/>
      <point x="838" y="533" type="curve" smooth="yes"/>
      <point x="838" y="613"/>
      <point x="816" y="675"/>
      <point x="771" y="713" type="curve"/>
      <point x="790" y="727"/>
      <point x="840" y="746"/>
      <point x="871" y="746" type="curve" smooth="yes"/>
      <point x="944" y="746"/>
      <point x="1013" y="694"/>
      <point x="1013" y="569" type="curve" smooth="yes"/>
      <point x="1013" y="373"/>
      <point x="814" y="-11"/>
      <point x="688" y="-11" type="curve" smooth="yes"/>
      <point x="641" y="-11"/>
      <point x="603" y="26"/>
      <point x="578" y="120" type="curve" smooth="yes"/>
      <point x="445" y="616" type="line" smooth="yes"/>
      <point x="433" y="659"/>
      <point x="423" y="688"/>
      <point x="397" y="704" type="curve"/>
      <point x="425" y="733"/>
      <point x="454" y="746"/>
      <point x="494" y="746" type="curve" smooth="yes"/>
      <point x="550" y="746"/>
      <point x="585" y="720"/>
    </contour>
  </outline>
</glyph>
<glyph name="Y" format="1">
  <advance width="655"/>
  <unicode hex="0059"/>
  <outline>
    <contour>
      <point x="229" y="649" type="line" smooth="yes"/>
      <point x="196" y="704"/>
      <point x="162" y="746"/>
      <point x="107" y="746" type="curve" smooth="yes"/>
      <point x="61" y="746"/>
      <point x="25" y="724"/>
      <point x="6" y="666" type="curve"/>
      <point x="32" y="664"/>
      <point x="50" y="652"/>
      <point x="68" y="623" type="curve" smooth="yes"/>
      <point x="253" y="319" type="line"/>
      <point x="252" y="112" type="line" smooth="yes"/>
      <point x="252" y="32"/>
      <point x="288" y="-7"/>
      <point x="343" y="-7" type="curve" smooth="yes"/>
      <point x="379" y="-7"/>
      <point x="401" y="-1"/>
      <point x="425" y="10" type="curve"/>
      <point x="414" y="30"/>
      <point x="408" y="66"/>
      <point x="408" y="95" type="curve" smooth="yes"/>
      <point x="409" y="320" type="line"/>
      <point x="610" y="576" type="line" smooth="yes"/>
      <point x="635" y="607"/>
      <point x="647" y="640"/>
      <point x="647" y="667" type="curve" smooth="yes"/>
      <point x="647" y="713"/>
      <point x="607" y="746"/>
      <point x="545" y="746" type="curve" smooth="yes"/>
      <point x="512" y="746"/>
      <point x="486" y="736"/>
      <point x="458" y="722" type="curve"/>
      <point x="487" y="692"/>
      <point x="491" y="650"/>
      <point x="456" y="605" type="curve" smooth="yes"/>
      <point x="301" y="404" type="line"/>
      <point x="380" y="402" type="line"/>
    </contour>
    <contour>
      <point x="328" y="736" type="move" name="top"/>
    </contour>
  </outline>
</glyph>
<glyph name="bracketleft" format="1">
  <advance width="452"/>
  <unicode hex="005B"/>
  <outline>
    <contour>
      <point x="197" y="-76" type="line"/>
      <point x="197" y="947" type="line"/>
      <point x="404" y="947" type="line"/>
      <point x="407" y="953"/>
      <point x="410" y="965"/>
      <point x="410" y="974" type="curve" smooth="yes"/>
      <point x="410" y="1051"/>
      <point x="330" y="1051"/>
      <point x="298" y="1051" type="curve" smooth="yes"/>
      <point x="40" y="1051" type="line"/>
      <point x="40" y="-26" type="line" smooth="yes"/>
      <point x="40" y="-180"/>
      <point x="145" y="-180"/>
      <point x="187" y="-180" type="curve" smooth="yes"/>
      <point x="404" y="-180" type="line"/>
      <point x="407" y="-174"/>
      <point x="410" y="-162"/>
      <point x="410" y="-152" type="curve" smooth="yes"/>
      <point x="410" y="-76"/>
      <point x="330" y="-76"/>
      <point x="298" y="-76" type="curve" smooth="yes"/>
    </contour>
  </outline>
</glyph>
<glyph name="backslash" format="1">
  <advance width="631"/>
  <unicode hex="005C"/>
  <outline>
    <contour>
      <point x="137" y="1052" type="curve" smooth="yes"/>
      <point x="121" y="1052"/>
      <point x="97" y="1048"/>
      <point x="77" y="1031" type="curve"/>
      <point x="94" y="1019"/>
      <point x="107" y="984"/>
      <point x="115" y="959" type="curve" smooth="yes"/>
      <point x="332" y="342"/>
      <point x="378" y="199"/>
      <point x="470" y="-64" type="curve" smooth="yes"/>
      <point x="480" y="-91"/>
      <point x="503" y="-155"/>
      <point x="559" y="-155" type="curve" smooth="yes"/>
      <point x="574" y="-155"/>
      <point x="594" y="-152"/>
      <point x="617" y="-132" type="curve"/>
      <point x="605" y="-122"/>
      <point x="588" y="-85"/>
      <point x="578" y="-58" type="curve" smooth="yes"/>
      <point x="467" y="259"/>
      <point x="346" y="619"/>
      <point x="224" y="962" type="curve" smooth="yes"/>
      <point x="215" y="989"/>
      <point x="192" y="1052"/>
    </contour>
  </outline>
</glyph>
<glyph name="bracketright" format="1">
  <advance width="452"/>
  <unicode hex="005D"/>
  <outline>
    <contour>
      <point x="256" y="947" type="line"/>
      <point x="256" y="-76" type="line"/>
      <point x="48" y="-76" type="line"/>
      <point x="46" y="-82"/>
      <point x="42" y="-94"/>
      <point x="42" y="-103" type="curve" smooth="yes"/>
      <point x="42" y="-180"/>
      <point x="122" y="-180"/>
      <point x="155" y="-180" type="curve" smooth="yes"/>
      <point x="413" y="-180" type="line"/>
      <point x="413" y="898" type="line" smooth="yes"/>
      <point x="413" y="1051"/>
      <point x="307" y="1051"/>
      <point x="265" y="1051" type="curve" smooth="yes"/>
      <point x="48" y="1051" type="line"/>
      <point x="46" y="1045"/>
      <point x="42" y="1033"/>
      <point x="42" y="1024" type="curve" smooth="yes"/>
      <point x="42" y="947"/>
      <point x="122" y="947"/>
      <point x="155" y="947" type="curve" smooth="yes"/>
    </contour>
  </outline>
</glyph>
<glyph name="asciicircum" format="1">
  <advance width="734"/>
  <unicode hex="005E"/>
  <outline>
    <contour>
      <point x="443" y="671" type="curve" smooth="yes"/>
      <point x="644" y="244" type="line"/>
      <point x="622" y="227"/>
      <point x="600" y="218"/>
      <point x="580" y="218" type="curve" smooth="yes"/>
      <point x="540" y="218"/>
      <point x="508" y="252"/>
      <point x="475" y="322" type="curve" smooth="yes"/>
      <point x="335" y="630" type="line"/>
      <point x="402" y="649" type="line"/>
      <point x="187" y="235" type="line"/>
      <point x="143" y="235"/>
      <point x="90" y="262"/>
      <point x="90" y="322" type="curve" smooth="yes"/>
      <point x="90" y="344"/>
      <point x="98" y="372"/>
      <point x="118" y="406" type="curve" smooth="yes"/>
      <point x="271" y="677" type="line" smooth="yes"/>
      <point x="298" y="724"/>
      <point x="326" y="748"/>
      <point x="362" y="748" type="curve" smooth="yes"/>
      <point x="398" y="748"/>
      <point x="418" y="724"/>
    </contour>
  </outline>
</glyph>
<glyph name="underscore" format="1">
  <advance width="619"/>
  <unicode hex="005F"/>
  <outline>
    <contour>
      <point x="145" y="-66" type="line" smooth="yes"/>
      <point x="103" y="-66"/>
      <point x="0" y="-66"/>
      <point x="0" y="-164" type="curve" smooth="yes"/>
      <point x="0" y="-178"/>
      <point x="5" y="-193"/>
      <point x="8" y="-200" type="curve"/>
      <point x="474" y="-200" type="line" smooth="yes"/>
      <point x="516" y="-200"/>
      <point x="619" y="-200"/>
      <point x="619" y="-97" type="curve" smooth="yes"/>
      <point x="619" y="-88"/>
      <point x="617" y="-73"/>
      <point x="613" y="-66" type="curve"/>
    </contour>
  </outline>
</glyph>
<glyph name="b" format="1">
  <advance width="608"/>
  <unicode hex="0062"/>
  <outline>
    <contour>
      <point x="235" y="665" type="line" smooth="yes"/>
      <point x="235" y="745"/>
      <point x="204" y="784"/>
      <point x="136" y="784" type="curve" smooth="yes"/>
      <point x="96" y="784"/>
      <point x="66" y="766"/>
      <point x="44" y="742" type="curve"/>
      <point x="67" y="728"/>
      <point x="78" y="706"/>
      <point x="78" y="671" type="curve" smooth="yes"/>
      <point x="78" y="155" type="line" smooth="yes"/>
      <point x="78" y="24"/>
      <point x="164" y="-11"/>
      <point x="295" y="-11" type="curve" smooth="yes"/>
      <point x="463" y="-11"/>
      <point x="586" y="95"/>
      <point x="586" y="282" type="curve" smooth="yes"/>
      <point x="586" y="442"/>
      <point x="490" y="534"/>
      <point x="377" y="534" type="curve" smooth="yes"/>
      <point x="314" y="534"/>
      <point x="262" y="508"/>
      <point x="226" y="456" type="curve"/>
      <point x="227" y="343" type="line"/>
      <point x="245" y="396"/>
      <point x="286" y="427"/>
      <point x="326" y="427" type="curve" smooth="yes"/>
      <point x="377" y="427"/>
      <point x="428" y="373"/>
      <point x="428" y="262" type="curve" smooth="yes"/>
      <point x="428" y="150"/>
      <point x="378" y="74"/>
      <point x="304" y="74" type="curve" smooth="yes"/>
      <point x="263" y="74"/>
      <point x="235" y="94"/>
      <point x="235" y="155" type="curve" smooth="yes"/>
    </contour>
  </outline>
</glyph>
<glyph name="c" format="1">
  <advance width="523"/>
  <unicode hex="0063"/>
  <outline>
    <contour>
      <point x="487" y="415" type="curve" smooth="yes"/>
      <point x="487" y="491"/>
      <point x="403" y="534"/>
      <point x="319" y="534" type="curve" smooth="yes"/>
      <point x="155" y="534"/>
      <point x="48" y="392"/>
      <point x="48" y="240" type="curve" smooth="yes"/>
      <point x="48" y="86"/>
      <point x="137" y="-11"/>
      <point x="295" y="-11" type="curve" smooth="yes"/>
      <point x="401" y="-11"/>
      <point x="486" y="52"/>
      <point x="486" y="119" type="curve" smooth="yes"/>
      <point x="486" y="137"/>
      <point x="478" y="155"/>
      <point x="463" y="161" type="curve"/>
      <point x="432" y="126"/>
      <point x="390" y="98"/>
      <point x="324" y="98" type="curve" smooth="yes"/>
      <point x="252" y="98"/>
      <point x="199" y="151"/>
      <point x="199" y="259" type="curve" smooth="yes"/>
      <point x="199" y="367"/>
      <point x="244" y="444"/>
      <point x="295" y="444" type="curve" smooth="yes"/>
      <point x="323" y="444"/>
      <point x="338" y="419"/>
      <point x="338" y="388" type="curve" smooth="yes"/>
      <point x="338" y="380"/>
      <point x="337" y="368"/>
      <point x="335" y="360" type="curve"/>
      <point x="353" y="346"/>
      <point x="377" y="337"/>
      <point x="404" y="337" type="curve" smooth="yes"/>
      <point x="451" y="337"/>
      <point x="487" y="364"/>
    </contour>
    <contour>
      <point x="262" y="523" type="move" name="top"/>
    </contour>
    <contour>
      <point x="262" y="0" type="move" name="bottom"/>
    </contour>
  </outline>
</glyph>
<glyph name="d" format="1">
  <advance width="601"/>
  <unicode hex="0064"/>
  <outline>
    <contour>
      <point x="529" y="665" type="line" smooth="yes"/>
      <point x="529" y="745"/>
      <point x="498" y="784"/>
      <point x="430" y="784" type="curve" smooth="yes"/>
      <point x="390" y="784"/>
      <point x="360" y="766"/>
      <point x="338" y="742" type="curve"/>
      <point x="361" y="728"/>
      <point x="372" y="706"/>
      <point x="372" y="671" type="curve" smooth="yes"/>
      <point x="372" y="108" type="line" smooth="yes"/>
      <point x="372" y="28"/>
      <point x="402" y="-11"/>
      <point x="470" y="-11" type="curve" smooth="yes"/>
      <point x="511" y="-11"/>
      <point x="540" y="7"/>
      <point x="562" y="32" type="curve"/>
      <point x="539" y="44"/>
      <point x="529" y="67"/>
      <point x="529" y="103" type="curve" smooth="yes"/>
    </contour>
    <contour>
      <point x="412" y="515" type="line"/>
      <point x="386" y="526"/>
      <point x="338" y="534"/>
      <point x="300" y="534" type="curve" smooth="yes"/>
      <point x="130" y="534"/>
      <point x="30" y="403"/>
      <point x="30" y="244" type="curve" smooth="yes"/>
      <point x="30" y="84"/>
      <point x="130" y="-11"/>
      <point x="258" y="-11" type="curve" smooth="yes"/>
      <point x="316" y="-11"/>
      <point x="385" y="25"/>
      <point x="403" y="78" type="curve"/>
      <point x="382" y="148" type="line"/>
      <point x="371" y="112"/>
      <point x="336" y="88"/>
      <point x="299" y="88" type="curve" smooth="yes"/>
      <point x="232" y="88"/>
      <point x="192" y="142"/>
      <point x="192" y="262" type="curve" smooth="yes"/>
      <point x="192" y="382"/>
      <point x="245" y="448"/>
      <point x="308" y="448" type="curve" smooth="yes"/>
      <point x="340" y="448"/>
      <point x="370" y="433"/>
      <point x="382" y="406" type="curve"/>
    </contour>
  </outline>
</glyph>
<glyph name="f" format="1">
  <advance width="408"/>
  <unicode hex="0066"/>
  <outline>
    <contour>
      <point x="391" y="523" type="curve"/>
      <point x="113" y="523" type="line" smooth="yes"/>
      <point x="88" y="523"/>
      <point x="68" y="524"/>
      <point x="47" y="525" type="curve"/>
      <point x="35" y="517"/>
      <point x="25" y="500"/>
      <point x="25" y="481" type="curve" smooth="yes"/>
      <point x="25" y="453"/>
      <point x="44" y="427"/>
      <point x="140" y="427" type="curve" smooth="yes"/>
      <point x="286" y="427" type="line" smooth="yes"/>
      <point x="370" y="427"/>
      <point x="398" y="469"/>
      <point x="398" y="502" type="curve" smooth="yes"/>
      <point x="398" y="510"/>
      <point x="396" y="517"/>
    </contour>
    <contour>
      <point x="422" y="689" type="curve" smooth="yes"/>
      <point x="422" y="738"/>
      <point x="374" y="784"/>
      <point x="292" y="784" type="curve" smooth="yes"/>
      <point x="185" y="784"/>
      <point x="112" y="720"/>
      <point x="112" y="610" type="curve" smooth="yes"/>
      <point x="112" y="-64" type="line" smooth="yes"/>
      <point x="112" y="-142"/>
      <point x="92" y="-178"/>
      <point x="6" y="-178" type="curve"/>
      <point x="19" y="-224"/>
      <point x="50" y="-268"/>
      <point x="127" y="-268" type="curve" smooth="yes"/>
      <point x="204" y="-268"/>
      <point x="269" y="-218"/>
      <point x="269" y="-90" type="curve" smooth="yes"/>
      <point x="269" y="606" type="line" smooth="yes"/>
      <point x="269" y="662"/>
      <point x="294" y="680"/>
      <point x="324" y="680" type="curve" smooth="yes"/>
      <point x="350" y="680"/>
      <point x="373" y="666"/>
      <point x="391" y="646" type="curve"/>
      <point x="412" y="650"/>
      <point x="422" y="668"/>
    </contour>
  </outline>
</glyph>
<glyph name="l" format="1">
  <advance width="312"/>
  <unicode hex="006C"/>
  <outline>
    <contour>
      <point x="186" y="771" type="move" name="top"/>
    </contour>
    <contour>
      <point x="156" y="0" type="move" name="bottom"/>
    </contour>
    <contour>
      <point x="292" y="700" type="move" name="topright"/>
    </contour>
    <contour>
      <point x="235" y="103" type="line" smooth="yes"/>
      <point x="235" y="67"/>
      <point x="245" y="44"/>
      <point x="268" y="32" type="curve"/>
      <point x="246" y="7"/>
      <point x="217" y="-11"/>
      <point x="176" y="-11" type="curve" smooth="yes"/>
      <point x="108" y="-11"/>
      <point x="78" y="28"/>
      <point x="78" y="108" type="curve" smooth="yes"/>
      <point x="78" y="671" type="line" smooth="yes"/>
      <point x="78" y="706"/>
      <point x="67" y="728"/>
      <point x="44" y="742" type="curve"/>
      <point x="66" y="766"/>
      <point x="96" y="784"/>
      <point x="136" y="784" type="curve" smooth="yes"/>
      <point x="204" y="784"/>
      <point x="235" y="745"/>
      <point x="235" y="665" type="curve" smooth="yes"/>
    </contour>
  </outline>
</glyph>
<glyph name="o" format="1">
  <advance width="610"/>
  <unicode hex="006F"/>
  <outline>
    <contour>
      <point x="305" y="523" type="move" name="top"/>
    </contour>
    <contour>
      <point x="562" y="262" type="curve" smooth="yes"/>
      <point x="562" y="82"/>
      <point x="452" y="-11"/>
      <point x="305" y="-11" type="curve" smooth="yes"/>
      <point x="157" y="-11"/>
      <point x="48" y="82"/>
      <point x="48" y="262" type="curve" smooth="yes"/>
      <point x="48" y="442"/>
      <point x="157" y="534"/>
      <point x="305" y="534" type="curve" smooth="yes"/>
      <point x="452" y="534"/>
      <point x="562" y="442"/>
    </contour>
    <contour>
      <point x="208" y="262" type="curve" smooth="yes"/>
      <point x="217" y="118"/>
      <point x="258" y="65"/>
      <point x="318" y="65" type="curve" smooth="yes"/>
      <point x="378" y="65"/>
      <point x="412" y="118"/>
      <point x="402" y="262" type="curve" smooth="yes"/>
      <point x="392" y="406"/>
      <point x="352" y="458"/>
      <point x="292" y="458" type="curve" smooth="yes"/>
      <point x="232" y="458"/>
      <point x="198" y="406"/>
    </contour>
  </outline>
</glyph>
<glyph name="p" format="1">
  <advance width="613"/>
  <unicode hex="0070"/>
  <outline>
    <contour>
      <point x="586" y="262" type="curve" smooth="yes"/>
      <point x="586" y="442"/>
      <point x="490" y="534"/>
      <point x="377" y="534" type="curve" smooth="yes"/>
      <point x="314" y="534"/>
      <point x="262" y="508"/>
      <point x="226" y="456" type="curve"/>
      <point x="227" y="343" type="line"/>
      <point x="245" y="396"/>
      <point x="286" y="427"/>
      <point x="326" y="427" type="curve" smooth="yes"/>
      <point x="377" y="427"/>
      <point x="428" y="373"/>
      <point x="428" y="262" type="curve" smooth="yes"/>
      <point x="428" y="150"/>
      <point x="377" y="80"/>
      <point x="326" y="80" type="curve" smooth="yes"/>
      <point x="286" y="80"/>
      <point x="256" y="95"/>
      <point x="227" y="137" type="curve"/>
      <point x="220" y="35" type="line"/>
      <point x="258" y="4"/>
      <point x="304" y="-11"/>
      <point x="348" y="-11" type="curve" smooth="yes"/>
      <point x="463" y="-11"/>
      <point x="586" y="82"/>
    </contour>
    <contour>
      <point x="235" y="415" type="line" smooth="yes"/>
      <point x="235" y="496"/>
      <point x="204" y="534"/>
      <point x="136" y="534" type="curve" smooth="yes"/>
      <point x="96" y="534"/>
      <point x="66" y="516"/>
      <point x="44" y="492" type="curve"/>
      <point x="67" y="479"/>
      <point x="78" y="456"/>
      <point x="78" y="421" type="curve" smooth="yes"/>
      <point x="78" y="-149" type="line" smooth="yes"/>
      <point x="78" y="-229"/>
      <point x="108" y="-268"/>
      <point x="176" y="-268" type="curve" smooth="yes"/>
      <point x="217" y="-268"/>
      <point x="246" y="-250"/>
      <point x="268" y="-224" type="curve"/>
      <point x="245" y="-212"/>
      <point x="235" y="-190"/>
      <point x="235" y="-154" type="curve" smooth="yes"/>
    </contour>
  </outline>
</glyph>
<glyph name="s" format="1">
  <advance width="526"/>
  <unicode hex="0073"/>
  <outline>
    <contour>
      <point x="263" y="523" type="move" name="top"/>
    </contour>
    <contour>
      <point x="263" y="0" type="move" name="bottom"/>
    </contour>
    <contour>
      <point x="474" y="424" type="curve" smooth="yes"/>
      <point x="472" y="485"/>
      <point x="392" y="534"/>
      <point x="272" y="534" type="curve" smooth="yes"/>
      <point x="160" y="534"/>
      <point x="61" y="462"/>
      <point x="61" y="374" type="curve" smooth="yes"/>
      <point x="61" y="226"/>
      <point x="341" y="206"/>
      <point x="341" y="126" type="curve" smooth="yes"/>
      <point x="341" y="95"/>
      <point x="312" y="73"/>
      <point x="259" y="73" type="curve" smooth="yes"/>
      <point x="215" y="73"/>
      <point x="182" y="91"/>
      <point x="182" y="118" type="curve" smooth="yes"/>
      <point x="182" y="133"/>
      <point x="187" y="148"/>
      <point x="199" y="158" type="curve"/>
      <point x="184" y="180"/>
      <point x="157" y="192"/>
      <point x="121" y="192" type="curve" smooth="yes"/>
      <point x="77" y="192"/>
      <point x="34" y="162"/>
      <point x="36" y="113" type="curve" smooth="yes"/>
      <point x="38" y="41"/>
      <point x="138" y="-11"/>
      <point x="260" y="-11" type="curve" smooth="yes"/>
      <point x="391" y="-11"/>
      <point x="498" y="56"/>
      <point x="498" y="157" type="curve" smooth="yes"/>
      <point x="498" y="308"/>
      <point x="218" y="319"/>
      <point x="218" y="406" type="curve" smooth="yes"/>
      <point x="218" y="436"/>
      <point x="244" y="451"/>
      <point x="277" y="451" type="curve" smooth="yes"/>
      <point x="317" y="451"/>
      <point x="337" y="430"/>
      <point x="338" y="404" type="curve" smooth="yes"/>
      <point x="338" y="396"/>
      <point x="337" y="386"/>
      <point x="334" y="376" type="curve"/>
      <point x="355" y="360"/>
      <point x="380" y="352"/>
      <point x="404" y="352" type="curve" smooth="yes"/>
      <point x="444" y="352"/>
      <point x="476" y="376"/>
    </contour>
  </outline>
</glyph>
<glyph name="t" format="1">
  <advance width="434"/>
  <unicode hex="0074"/>
  <outline>
    <contour>
      <point x="240" y="547" type="line" smooth="yes"/>
      <point x="240" y="628"/>
      <point x="209" y="666"/>
      <point x="140" y="666" type="curve" smooth="yes"/>
      <point x="101" y="666"/>
      <point x="71" y="648"/>
      <point x="49" y="623" type="curve"/>
      <point x="72" y="611"/>
      <point x="83" y="588"/>
      <point x="83" y="553" type="curve" smooth="yes"/>
      <point x="83" y="139" type="line" smooth="yes"/>
      <point x="83" y="34"/>
      <point x="154" y="-11"/>
      <point x="253" y="-11" type="curve" smooth="yes"/>
      <point x="349" y="-11"/>
      <point x="422" y="49"/>
      <point x="422" y="101" type="curve" smooth="yes"/>
      <point x="422" y="127"/>
      <point x="407" y="143"/>
      <point x="389" y="143" type="curve"/>
      <point x="362" y="114"/>
      <point x="324" y="94"/>
      <point x="289" y="94" type="curve" smooth="yes"/>
      <point x="256" y="94"/>
      <point x="240" y="113"/>
      <point x="240" y="157" type="curve" smooth="yes"/>
    </contour>
    <contour>
      <point x="391" y="523" type="curve"/>
      <point x="83" y="523" type="line"/>
      <point x="67" y="523"/>
      <point x="48" y="524"/>
      <point x="32" y="526" type="curve"/>
      <point x="19" y="517"/>
      <point x="11" y="500"/>
      <point x="11" y="481" type="curve" smooth="yes"/>
      <point x="11" y="458"/>
      <point x="32" y="427"/>
      <point x="86" y="427" type="curve" smooth="yes"/>
      <point x="248" y="427" type="line" smooth="yes"/>
      <point x="370" y="427"/>
      <point x="398" y="469"/>
      <point x="398" y="503" type="curve" smooth="yes"/>
      <point x="398" y="510"/>
      <point x="396" y="517"/>
    </contour>
    <contour>
      <point x="241" y="0" type="move" name="bottom"/>
    </contour>
    <contour>
      <point x="187" y="750" type="move" name="topright"/>
    </contour>
  </outline>
</glyph>
<glyph name="u" format="1">
  <advance width="636"/>
  <unicode hex="0075"/>
  <outline>
    <contour>
      <point x="564" y="415" type="line" smooth="yes"/>
      <point x="564" y="496"/>
      <point x="533" y="534"/>
      <point x="464" y="534" type="curve" smooth="yes"/>
      <point x="425" y="534"/>
      <point x="395" y="516"/>
      <point x="373" y="491" type="curve"/>
      <point x="396" y="479"/>
      <point x="407" y="456"/>
      <point x="407" y="421" type="curve" smooth="yes"/>
      <point x="407" y="108" type="line" smooth="yes"/>
      <point x="407" y="28"/>
      <point x="437" y="-11"/>
      <point x="505" y="-11" type="curve" smooth="yes"/>
      <point x="546" y="-11"/>
      <point x="575" y="7"/>
      <point x="596" y="32" type="curve"/>
      <point x="574" y="44"/>
      <point x="564" y="67"/>
      <point x="564" y="103" type="curve" smooth="yes"/>
    </contour>
    <contour>
      <point x="235" y="415" type="line" smooth="yes"/>
      <point x="235" y="496"/>
      <point x="204" y="534"/>
      <point x="136" y="534" type="curve" smooth="yes"/>
      <point x="96" y="534"/>
      <point x="66" y="516"/>
      <point x="44" y="491" type="curve"/>
      <point x="67" y="479"/>
      <point x="78" y="456"/>
      <point x="78" y="421" type="curve" smooth="yes"/>
      <point x="78" y="169" type="line" smooth="yes"/>
      <point x="78" y="48"/>
      <point x="152" y="-11"/>
      <point x="264" y="-11" type="curve" smooth="yes"/>
      <point x="352" y="-11"/>
      <point x="415" y="46"/>
      <point x="440" y="142" type="curve"/>
      <point x="410" y="193" type="line"/>
      <point x="392" y="134"/>
      <point x="359" y="108"/>
      <point x="313" y="108" type="curve" smooth="yes"/>
      <point x="259" y="108"/>
      <point x="235" y="137"/>
      <point x="235" y="185" type="curve" smooth="yes"/>
    </contour>
    <contour>
      <point x="572" y="12" type="move" name="ogonek"/>
    </contour>
    <contour>
      <point x="318" y="523" type="move" name="top"/>
    </contour>
  </outline>
</glyph>
<glyph name="v" format="1">
  <advance width="611"/>
  <unicode hex="0076"/>
  <outline>
    <contour>
      <point x="214" y="421" type="curve" smooth="yes"/>
      <point x="306" y="62" type="line"/>
      <point x="280" y="101" type="line"/>
      <point x="382" y="178"/>
      <point x="451" y="422"/>
      <point x="385" y="502" type="curve"/>
      <point x="410" y="522"/>
      <point x="439" y="534"/>
      <point x="473" y="534" type="curve" smooth="yes"/>
      <point x="525" y="534"/>
      <point x="569" y="492"/>
      <point x="569" y="389" type="curve" smooth="yes"/>
      <point x="569" y="221"/>
      <point x="380" y="-11"/>
      <point x="276" y="-11" type="curve" smooth="yes"/>
      <point x="200" y="-11"/>
      <point x="174" y="30"/>
      <point x="145" y="115" type="curve" smooth="yes"/>
      <point x="51" y="394" type="line" smooth="yes"/>
      <point x="37" y="436"/>
      <point x="25" y="471"/>
      <point x="5" y="484" type="curve"/>
      <point x="30" y="517"/>
      <point x="59" y="534"/>
      <point x="98" y="534" type="curve" smooth="yes"/>
      <point x="163" y="534"/>
      <point x="193" y="501"/>
    </contour>
  </outline>
</glyph>
<glyph name="x" format="1">
  <advance width="579"/>
  <unicode hex="0078"/>
  <outline>
    <contour>
      <point x="233" y="288" type="line"/>
      <point x="302" y="247" type="line"/>
      <point x="280" y="190" type="line" smooth="yes"/>
      <point x="207" y="7"/>
      <point x="175" y="-11"/>
      <point x="121" y="-11" type="curve" smooth="yes"/>
      <point x="79" y="-11"/>
      <point x="37" y="14"/>
      <point x="30" y="67" type="curve"/>
      <point x="60" y="68"/>
      <point x="68" y="77"/>
      <point x="88" y="102" type="curve" smooth="yes"/>
    </contour>
    <contour>
      <point x="234" y="466" type="curve" smooth="yes"/>
      <point x="506" y="91" type="line" smooth="yes"/>
      <point x="517" y="75"/>
      <point x="530" y="67"/>
      <point x="548" y="67" type="curve"/>
      <point x="548" y="14"/>
      <point x="505" y="-11"/>
      <point x="459" y="-11" type="curve" smooth="yes"/>
      <point x="411" y="-11"/>
      <point x="376" y="13"/>
      <point x="344" y="57" type="curve" smooth="yes"/>
      <point x="71" y="432" type="line" smooth="yes"/>
      <point x="60" y="448"/>
      <point x="48" y="456"/>
      <point x="30" y="456" type="curve"/>
      <point x="30" y="509"/>
      <point x="73" y="534"/>
      <point x="119" y="534" type="curve" smooth="yes"/>
      <point x="167" y="534"/>
      <point x="202" y="510"/>
    </contour>
    <contour>
      <point x="345" y="235" type="line"/>
      <point x="276" y="276" type="line"/>
      <point x="298" y="333" type="line" smooth="yes"/>
      <point x="371" y="516"/>
      <point x="403" y="534"/>
      <point x="457" y="534" type="curve" smooth="yes"/>
      <point x="499" y="534"/>
      <point x="541" y="509"/>
      <point x="548" y="456" type="curve"/>
      <point x="518" y="455"/>
      <point x="510" y="446"/>
      <point x="490" y="421" type="curve" smooth="yes"/>
    </contour>
  </outline>
</glyph>
<glyph name="z" format="1">
  <advance width="500"/>
  <unicode hex="007A"/>
  <outline>
    <contour>
      <point x="251" y="523" type="move" name="top"/>
    </contour>
    <contour>
      <point x="331" y="523" type="curve" smooth="yes"/>
      <point x="157" y="523" type="line" smooth="yes"/>
      <point x="121" y="523"/>
      <point x="87" y="526"/>
      <point x="61" y="530" type="curve"/>
      <point x="50" y="516"/>
      <point x="44" y="496"/>
      <point x="44" y="476" type="curve" smooth="yes"/>
      <point x="44" y="437"/>
      <point x="73" y="396"/>
      <point x="160" y="396" type="curve" smooth="yes"/>
      <point x="208" y="396"/>
      <point x="289" y="402"/>
      <point x="348" y="414" type="curve"/>
      <point x="348" y="428" type="line"/>
      <point x="109" y="249" type="line" smooth="yes"/>
      <point x="51" y="206"/>
      <point x="32" y="175"/>
      <point x="32" y="133" type="curve" smooth="yes"/>
      <point x="32" y="43"/>
      <point x="133" y="-11"/>
      <point x="270" y="-11" type="curve" smooth="yes"/>
      <point x="439" y="-11"/>
      <point x="478" y="65"/>
      <point x="478" y="108" type="curve" smooth="yes"/>
      <point x="478" y="146"/>
      <point x="459" y="179"/>
      <point x="421" y="195" type="curve"/>
      <point x="403" y="149"/>
      <point x="359" y="121"/>
      <point x="292" y="121" type="curve" smooth="yes"/>
      <point x="225" y="121"/>
      <point x="175" y="130"/>
      <point x="122" y="159" type="curve"/>
      <point x="82" y="88" type="line"/>
      <point x="412" y="320" type="line" smooth="yes"/>
      <point x="453" y="349"/>
      <point x="464" y="379"/>
      <point x="464" y="416" type="curve" smooth="yes"/>
      <point x="464" y="475"/>
      <point x="421" y="523"/>
    </contour>
  </outline>
</glyph>
<glyph name="bar" format="1">
  <advance width="377"/>
  <unicode hex="007C"/>
  <outline>
    <contour>
      <point x="268" y="-113" type="line" smooth="yes"/>
      <point x="268" y="-149"/>
      <point x="277" y="-172"/>
      <point x="300" y="-184" type="curve"/>
      <point x="278" y="-209"/>
      <point x="250" y="-227"/>
      <point x="209" y="-227" type="curve" smooth="yes"/>
      <point x="140" y="-227"/>
      <point x="110" y="-188"/>
      <point x="110" y="-108" type="curve" smooth="yes"/>
      <point x="110" y="874" type="line" smooth="yes"/>
      <point x="110" y="908"/>
      <point x="100" y="931"/>
      <point x="77" y="943" type="curve"/>
      <point x="98" y="968"/>
      <point x="128" y="986"/>
      <point x="168" y="986" type="curve" smooth="yes"/>
      <point x="236" y="986"/>
      <point x="268" y="948"/>
      <point x="268" y="868" type="curve" smooth="yes"/>
    </contour>
  </outline>
</glyph>
<glyph name="asciitilde" format="1">
  <advance width="713"/>
  <unicode hex="007E"/>
  <outline>
    <contour>
      <point x="590" y="476" type="curve"/>
      <point x="618" y="464"/>
      <point x="633" y="440"/>
      <point x="633" y="408" type="curve" smooth="yes"/>
      <point x="633" y="337"/>
      <point x="572" y="287"/>
      <point x="499" y="287" type="curve" smooth="yes"/>
      <point x="382" y="287"/>
      <point x="276" y="356"/>
      <point x="186" y="356" type="curve" smooth="yes"/>
      <point x="148" y="356"/>
      <point x="126" y="334"/>
      <point x="123" y="300" type="curve"/>
      <point x="96" y="308"/>
      <point x="80" y="332"/>
      <point x="80" y="368" type="curve" smooth="yes"/>
      <point x="80" y="439"/>
      <point x="141" y="490"/>
      <point x="214" y="490" type="curve" smooth="yes"/>
      <point x="312" y="490"/>
      <point x="424" y="420"/>
      <point x="528" y="420" type="curve" smooth="yes"/>
      <point x="565" y="420"/>
      <point x="588" y="443"/>
    </contour>
  </outline>
</glyph>
<glyph name="cent" format="1">
  <advance width="523"/>
  <unicode hex="00A2"/>
  <outline>
    <contour>
      <point x="233" y="492" type="line"/>
      <point x="390" y="492" type="line"/>
      <point x="390" y="559" type="line" smooth="yes"/>
      <point x="390" y="640"/>
      <point x="359" y="678"/>
      <point x="290" y="678" type="curve" smooth="yes"/>
      <point x="251" y="678"/>
      <point x="221" y="660"/>
      <point x="199" y="635" type="curve"/>
      <point x="222" y="623"/>
      <point x="233" y="600"/>
      <point x="233" y="565" type="curve" smooth="yes"/>
    </contour>
    <contour>
      <point x="358" y="56" type="line"/>
      <point x="200" y="56" type="line"/>
      <point x="200" y="-36" type="line" smooth="yes"/>
      <point x="200" y="-116"/>
      <point x="230" y="-155"/>
      <point x="299" y="-155" type="curve" smooth="yes"/>
      <point x="340" y="-155"/>
      <point x="368" y="-137"/>
      <point x="390" y="-112" type="curve"/>
      <point x="367" y="-100"/>
      <point x="358" y="-77"/>
      <point x="358" y="-41" type="curve" smooth="yes"/>
    </contour>
    <component base="c"/>
  </outline>
</glyph>
<glyph name="currency" format="1">
  <advance width="720"/>
  <unicode hex="00A4"/>
  <outline>
    <contour>
      <point x="360" y="600" type="curve" smooth="yes"/>
      <point x="498" y="600"/>
      <point x="600" y="522"/>
      <point x="600" y="372" type="curve" smooth="yes"/>
      <point x="600" y="222"/>
      <point x="498" y="145"/>
      <point x="360" y="145" type="curve" smooth="yes"/>
      <point x="222" y="145"/>
      <point x="120" y="222"/>
      <point x="120" y="372" type="curve" smooth="yes"/>
      <point x="120" y="522"/>
      <point x="222" y="600"/>
    </contour>
    <contour>
      <point x="349" y="522" type="curve" smooth="yes"/>
      <point x="282" y="522"/>
      <point x="244" y="482"/>
      <point x="251" y="372" type="curve" smooth="yes"/>
      <point x="258" y="263"/>
      <point x="304" y="222"/>
      <point x="371" y="222" type="curve" smooth="yes"/>
      <point x="438" y="222"/>
      <point x="479" y="263"/>
      <point x="469" y="372" type="curve" smooth="yes"/>
      <point x="462" y="482"/>
      <point x="416" y="522"/>
    </contour>
    <contour>
      <point x="170" y="469" type="line"/>
      <point x="54" y="583" type="line"/>
      <point x="64" y="622"/>
      <point x="92" y="642"/>
      <point x="127" y="642" type="curve" smooth="yes"/>
      <point x="155" y="642"/>
      <point x="186" y="629"/>
      <point x="212" y="602" type="curve" smooth="yes"/>
      <point x="258" y="556" type="line"/>
    </contour>
    <contour>
      <point x="508" y="602" type="line" smooth="yes"/>
      <point x="534" y="629"/>
      <point x="565" y="642"/>
      <point x="593" y="642" type="curve" smooth="yes"/>
      <point x="628" y="642"/>
      <point x="656" y="622"/>
      <point x="666" y="583" type="curve"/>
      <point x="550" y="469" type="line"/>
      <point x="462" y="556" type="line"/>
    </contour>
    <contour>
      <point x="212" y="143" type="line" smooth="yes"/>
      <point x="186" y="116"/>
      <point x="155" y="103"/>
      <point x="127" y="103" type="curve" smooth="yes"/>
      <point x="92" y="103"/>
      <point x="64" y="124"/>
      <point x="54" y="162" type="curve"/>
      <point x="170" y="276" type="line"/>
      <point x="258" y="190" type="line"/>
    </contour>
    <contour>
      <point x="550" y="276" type="line"/>
      <point x="666" y="162" type="line"/>
      <point x="656" y="124"/>
      <point x="628" y="103"/>
      <point x="593" y="103" type="curve" smooth="yes"/>
      <point x="565" y="103"/>
      <point x="534" y="116"/>
      <point x="508" y="143" type="curve" smooth="yes"/>
      <point x="462" y="190" type="line"/>
    </contour>
  </outline>
</glyph>
<glyph name="yen" format="1">
  <advance width="701"/>
  <unicode hex="00A5"/>
  <outline>
    <contour>
      <point x="606" y="224" type="curve" smooth="yes"/>
      <point x="606" y="161"/>
      <point x="542" y="161"/>
      <point x="516" y="161" type="curve" smooth="yes"/>
      <point x="76" y="161" type="line"/>
      <point x="73" y="164"/>
      <point x="71" y="174"/>
      <point x="71" y="182" type="curve" smooth="yes"/>
      <point x="71" y="242"/>
      <point x="134" y="242"/>
      <point x="161" y="242" type="curve" smooth="yes"/>
      <point x="601" y="242" type="line"/>
      <point x="605" y="239"/>
      <point x="606" y="229"/>
    </contour>
    <contour>
      <point x="316" y="318" type="line"/>
      <point x="76" y="318" type="line"/>
      <point x="73" y="322"/>
      <point x="71" y="331"/>
      <point x="71" y="340" type="curve" smooth="yes"/>
      <point x="71" y="400"/>
      <point x="134" y="400"/>
      <point x="161" y="400" type="curve" smooth="yes"/>
      <point x="286" y="400" type="line"/>
    </contour>
    <contour>
      <point x="382" y="400" type="line"/>
      <point x="601" y="400" type="line"/>
      <point x="605" y="396"/>
      <point x="606" y="386"/>
      <point x="606" y="382" type="curve" smooth="yes"/>
      <point x="606" y="318"/>
      <point x="542" y="318"/>
      <point x="516" y="318" type="curve" smooth="yes"/>
      <point x="352" y="318" type="line"/>
    </contour>
    <component base="Y"/>
  </outline>
</glyph>
<glyph name="section" format="1">
  <advance width="702"/>
  <unicode hex="00A7"/>
  <outline>
    <contour>
      <point x="618" y="598" type="curve" smooth="yes"/>
      <point x="618" y="683"/>
      <point x="518" y="746"/>
      <point x="374" y="746" type="curve" smooth="yes"/>
      <point x="234" y="746"/>
      <point x="118" y="670"/>
      <point x="118" y="540" type="curve" smooth="yes"/>
      <point x="118" y="335"/>
      <point x="491" y="332"/>
      <point x="491" y="173" type="curve" smooth="yes"/>
      <point x="491" y="130"/>
      <point x="470" y="96"/>
      <point x="427" y="68" type="curve"/>
      <point x="442" y="60"/>
      <point x="460" y="56"/>
      <point x="480" y="56" type="curve" smooth="yes"/>
      <point x="547" y="56"/>
      <point x="632" y="102"/>
      <point x="632" y="220" type="curve" smooth="yes"/>
      <point x="632" y="445"/>
      <point x="259" y="488"/>
      <point x="259" y="581" type="curve" smooth="yes"/>
      <point x="259" y="629"/>
      <point x="295" y="649"/>
      <point x="359" y="649" type="curve" smooth="yes"/>
      <point x="426" y="649"/>
      <point x="461" y="616"/>
      <point x="461" y="581" type="curve" smooth="yes"/>
      <point x="461" y="570"/>
      <point x="458" y="554"/>
      <point x="454" y="542" type="curve"/>
      <point x="476" y="524"/>
      <point x="516" y="516"/>
      <point x="545" y="516" type="curve" smooth="yes"/>
      <point x="582" y="516"/>
      <point x="618" y="546"/>
    </contour>
    <contour>
      <point x="323" y="264" type="curve"/>
      <point x="304" y="272"/>
      <point x="284" y="276"/>
      <point x="266" y="276" type="curve" smooth="yes"/>
      <point x="188" y="276"/>
      <point x="118" y="214"/>
      <point x="118" y="110" type="curve" smooth="yes"/>
      <point x="118" y="-115"/>
      <point x="491" y="-139"/>
      <point x="491" y="-256" type="curve" smooth="yes"/>
      <point x="491" y="-304"/>
      <point x="455" y="-346"/>
      <point x="378" y="-346" type="curve" smooth="yes"/>
      <point x="302" y="-346"/>
      <point x="269" y="-312"/>
      <point x="269" y="-276" type="curve" smooth="yes"/>
      <point x="269" y="-254"/>
      <point x="277" y="-234"/>
      <point x="290" y="-220" type="curve"/>
      <point x="271" y="-199"/>
      <point x="241" y="-187"/>
      <point x="209" y="-187" type="curve" smooth="yes"/>
      <point x="158" y="-187"/>
      <point x="106" y="-217"/>
      <point x="106" y="-280" type="curve" smooth="yes"/>
      <point x="106" y="-377"/>
      <point x="223" y="-443"/>
      <point x="368" y="-443" type="curve" smooth="yes"/>
      <point x="510" y="-443"/>
      <point x="632" y="-356"/>
      <point x="632" y="-224" type="curve" smooth="yes"/>
      <point x="632" y="13"/>
      <point x="259" y="0"/>
      <point x="259" y="162" type="curve" smooth="yes"/>
      <point x="259" y="202"/>
      <point x="280" y="236"/>
    </contour>
  </outline>
</glyph>
<glyph name="dieresis" format="1">
  <advance width="394"/>
  <unicode hex="00A8"/>
  <outline>
    <contour>
      <point x="197" y="523" type="move" name="_top"/>
    </contour>
    <contour>
      <point x="178" y="685" type="curve" smooth="yes"/>
      <point x="178" y="725"/>
      <point x="150" y="755"/>
      <point x="108" y="755" type="curve" smooth="yes"/>
      <point x="60" y="755"/>
      <point x="12" y="709"/>
      <point x="12" y="659" type="curve" smooth="yes"/>
      <point x="12" y="620"/>
      <point x="40" y="589"/>
      <point x="82" y="589" type="curve" smooth="yes"/>
      <point x="132" y="589"/>
      <point x="178" y="635"/>
    </contour>
    <contour>
      <point x="382" y="685" type="curve" smooth="yes"/>
      <point x="382" y="725"/>
      <point x="354" y="755"/>
      <point x="312" y="755" type="curve" smooth="yes"/>
      <point x="264" y="755"/>
      <point x="216" y="709"/>
      <point x="216" y="659" type="curve" smooth="yes"/>
      <point x="216" y="620"/>
      <point x="244" y="589"/>
      <point x="286" y="589" type="curve" smooth="yes"/>
      <point x="336" y="589"/>
      <point x="382" y="635"/>
    </contour>
  </outline>
</glyph>
<glyph name="copyright" format="1">
  <advance width="869"/>
  <unicode hex="00A9"/>
  <outline>
    <contour>
      <point x="411" y="603" type="move" name="top"/>
    </contour>
    <contour>
      <point x="411" y="143" type="move" name="bottom"/>
    </contour>
    <contour>
      <point x="797" y="367" type="curve" smooth="yes"/>
      <point x="797" y="592"/>
      <point x="642" y="748"/>
      <point x="434" y="748" type="curve" smooth="yes"/>
      <point x="227" y="748"/>
      <point x="72" y="592"/>
      <point x="72" y="367" type="curve" smooth="yes"/>
      <point x="72" y="143"/>
      <point x="227" y="-11"/>
      <point x="434" y="-11" type="curve" smooth="yes"/>
      <point x="642" y="-11"/>
      <point x="797" y="143"/>
    </contour>
    <contour>
      <point x="128" y="367" type="curve" smooth="yes"/>
      <point x="128" y="552"/>
      <point x="245" y="700"/>
      <point x="434" y="700" type="curve" smooth="yes"/>
      <point x="625" y="700"/>
      <point x="740" y="552"/>
      <point x="740" y="367" type="curve" smooth="yes"/>
      <point x="740" y="182"/>
      <point x="623" y="36"/>
      <point x="434" y="36" type="curve" smooth="yes"/>
      <point x="244" y="36"/>
      <point x="128" y="182"/>
    </contour>
    <contour>
      <point x="610" y="508" type="curve" smooth="yes"/>
      <point x="610" y="575"/>
      <point x="536" y="613"/>
      <point x="462" y="613" type="curve" smooth="yes"/>
      <point x="318" y="613"/>
      <point x="223" y="488"/>
      <point x="223" y="354" type="curve" smooth="yes"/>
      <point x="223" y="218"/>
      <point x="301" y="133"/>
      <point x="440" y="133" type="curve" smooth="yes"/>
      <point x="534" y="133"/>
      <point x="608" y="188"/>
      <point x="608" y="247" type="curve" smooth="yes"/>
      <point x="608" y="263"/>
      <point x="601" y="280"/>
      <point x="589" y="284" type="curve"/>
      <point x="562" y="253"/>
      <point x="524" y="229"/>
      <point x="467" y="229" type="curve" smooth="yes"/>
      <point x="403" y="229"/>
      <point x="356" y="276"/>
      <point x="356" y="371" type="curve" smooth="yes"/>
      <point x="356" y="466"/>
      <point x="396" y="534"/>
      <point x="440" y="534" type="curve" smooth="yes"/>
      <point x="466" y="534"/>
      <point x="479" y="511"/>
      <point x="479" y="484" type="curve" smooth="yes"/>
      <point x="479" y="478"/>
      <point x="478" y="467"/>
      <point x="476" y="460" type="curve"/>
      <point x="492" y="446"/>
      <point x="512" y="439"/>
      <point x="538" y="439" type="curve" smooth="yes"/>
      <point x="578" y="439"/>
      <point x="610" y="463"/>
    </contour>
  </outline>
</glyph>
<glyph name="guillemotleft" format="1">
  <advance width="586"/>
  <unicode hex="00AB"/>
  <outline>
    <contour>
      <point x="550" y="634" type="curve"/>
      <point x="454" y="506"/>
      <point x="421" y="455"/>
      <point x="421" y="404" type="curve" smooth="yes"/>
      <point x="421" y="354"/>
      <point x="454" y="302"/>
      <point x="550" y="175" type="curve"/>
      <point x="547" y="168"/>
      <point x="534" y="154"/>
      <point x="516" y="154" type="curve" smooth="yes"/>
      <point x="446" y="154"/>
      <point x="276" y="330"/>
      <point x="276" y="404" type="curve" smooth="yes"/>
      <point x="276" y="479"/>
      <point x="446" y="655"/>
      <point x="516" y="655" type="curve" smooth="yes"/>
      <point x="534" y="655"/>
      <point x="547" y="641"/>
    </contour>
    <contour>
      <point x="310" y="634" type="curve"/>
      <point x="214" y="506"/>
      <point x="181" y="455"/>
      <point x="181" y="404" type="curve" smooth="yes"/>
      <point x="181" y="354"/>
      <point x="214" y="302"/>
      <point x="310" y="175" type="curve"/>
      <point x="307" y="168"/>
      <point x="294" y="154"/>
      <point x="276" y="154" type="curve" smooth="yes"/>
      <point x="206" y="154"/>
      <point x="36" y="330"/>
      <point x="36" y="404" type="curve" smooth="yes"/>
      <point x="36" y="479"/>
      <point x="206" y="655"/>
      <point x="276" y="655" type="curve" smooth="yes"/>
      <point x="294" y="655"/>
      <point x="307" y="641"/>
    </contour>
  </outline>
</glyph>
<glyph name="logicalnot" format="1">
  <advance width="844"/>
  <unicode hex="00AC"/>
  <outline>
    <contour>
      <point x="751" y="400" type="line" smooth="yes"/>
      <point x="751" y="474"/>
      <point x="719" y="504"/>
      <point x="623" y="504" type="curve" smooth="yes"/>
      <point x="158" y="504" type="line" smooth="yes"/>
      <point x="86" y="504"/>
      <point x="48" y="478"/>
      <point x="48" y="426" type="curve" smooth="yes"/>
      <point x="48" y="413"/>
      <point x="53" y="397"/>
      <point x="56" y="390" type="curve"/>
      <point x="558" y="390" type="line" smooth="yes"/>
      <point x="584" y="390"/>
      <point x="594" y="383"/>
      <point x="594" y="359" type="curve" smooth="yes"/>
      <point x="594" y="314" type="line" smooth="yes"/>
      <point x="594" y="234"/>
      <point x="624" y="196"/>
      <point x="692" y="196" type="curve" smooth="yes"/>
      <point x="733" y="196"/>
      <point x="762" y="214"/>
      <point x="784" y="239" type="curve"/>
      <point x="761" y="251"/>
      <point x="751" y="274"/>
      <point x="751" y="310" type="curve" smooth="yes"/>
    </contour>
  </outline>
</glyph>
<glyph name="registered" format="1">
  <advance width="680"/>
  <unicode hex="00AE"/>
  <outline>
    <contour>
      <point x="620" y="544" type="curve" smooth="yes"/>
      <point x="620" y="376"/>
      <point x="502" y="264"/>
      <point x="340" y="264" type="curve" smooth="yes"/>
      <point x="178" y="264"/>
      <point x="60" y="376"/>
      <point x="60" y="544" type="curve" smooth="yes"/>
      <point x="60" y="712"/>
      <point x="178" y="824"/>
      <point x="340" y="824" type="curve" smooth="yes"/>
      <point x="502" y="824"/>
      <point x="620" y="712"/>
    </contour>
    <contour>
      <point x="454" y="444" type="line" smooth="yes"/>
      <point x="463" y="431"/>
      <point x="480" y="418"/>
      <point x="491" y="410" type="curve"/>
      <point x="482" y="392"/>
      <point x="460" y="380"/>
      <point x="439" y="380" type="curve" smooth="yes"/>
      <point x="414" y="380"/>
      <point x="395" y="389"/>
      <point x="373" y="425" type="curve" smooth="yes"/>
      <point x="316" y="518" type="line"/>
      <point x="397" y="528" type="line"/>
    </contour>
    <contour>
      <point x="473" y="611" type="curve" smooth="yes"/>
      <point x="473" y="542"/>
      <point x="408" y="510"/>
      <point x="342" y="510" type="curve" smooth="yes"/>
      <point x="302" y="510" type="line"/>
      <point x="302" y="432" type="line" smooth="yes"/>
      <point x="302" y="416"/>
      <point x="307" y="406"/>
      <point x="317" y="400" type="curve"/>
      <point x="307" y="389"/>
      <point x="290" y="380"/>
      <point x="272" y="380" type="curve" smooth="yes"/>
      <point x="241" y="380"/>
      <point x="226" y="398"/>
      <point x="226" y="434" type="curve" smooth="yes"/>
      <point x="226" y="664" type="line" smooth="yes"/>
      <point x="226" y="678"/>
      <point x="221" y="689"/>
      <point x="211" y="695" type="curve"/>
      <point x="221" y="706"/>
      <point x="233" y="714"/>
      <point x="251" y="714" type="curve" smooth="yes"/>
      <point x="342" y="714" type="line" smooth="yes"/>
      <point x="408" y="714"/>
      <point x="473" y="679"/>
    </contour>
    <contour>
      <point x="304" y="664" type="line"/>
      <point x="304" y="559" type="line"/>
      <point x="329" y="559" type="line" smooth="yes"/>
      <point x="371" y="559"/>
      <point x="392" y="578"/>
      <point x="392" y="611" type="curve" smooth="yes"/>
      <point x="392" y="646"/>
      <point x="371" y="664"/>
      <point x="329" y="664" type="curve"/>
    </contour>
    <contour>
      <point x="108" y="545" type="curve" smooth="yes"/>
      <point x="108" y="415"/>
      <point x="196" y="307"/>
      <point x="340" y="307" type="curve" smooth="yes"/>
      <point x="484" y="307"/>
      <point x="572" y="415"/>
      <point x="572" y="545" type="curve" smooth="yes"/>
      <point x="572" y="674"/>
      <point x="485" y="781"/>
      <point x="341" y="781" type="curve" smooth="yes"/>
      <point x="197" y="781"/>
      <point x="108" y="672"/>
    </contour>
  </outline>
</glyph>
<glyph name="macron" format="1">
  <advance width="422"/>
  <unicode hex="00AF"/>
  <outline>
    <contour>
      <point x="211" y="523" type="move" name="_top"/>
    </contour>
    <contour>
      <point x="402" y="694" type="curve"/>
      <point x="88" y="694" type="line" smooth="yes"/>
      <point x="42" y="694"/>
      <point x="12" y="672"/>
      <point x="12" y="640" type="curve" smooth="yes"/>
      <point x="12" y="628"/>
      <point x="17" y="619"/>
      <point x="20" y="614" type="curve"/>
      <point x="335" y="614" type="line" smooth="yes"/>
      <point x="380" y="614"/>
      <point x="410" y="636"/>
      <point x="410" y="668" type="curve" smooth="yes"/>
      <point x="410" y="680"/>
      <point x="406" y="689"/>
    </contour>
  </outline>
</glyph>
<glyph name="degree" format="1">
  <advance width="530"/>
  <unicode hex="00B0"/>
  <outline>
    <contour>
      <point x="265" y="896" type="curve" smooth="yes"/>
      <point x="157" y="896"/>
      <point x="80" y="826"/>
      <point x="80" y="720" type="curve" smooth="yes"/>
      <point x="80" y="614"/>
      <point x="157" y="542"/>
      <point x="265" y="542" type="curve" smooth="yes"/>
      <point x="373" y="542"/>
      <point x="450" y="614"/>
      <point x="450" y="720" type="curve" smooth="yes"/>
      <point x="450" y="826"/>
      <point x="373" y="896"/>
    </contour>
    <contour>
      <point x="265" y="641" type="curve" smooth="yes"/>
      <point x="219" y="641"/>
      <point x="192" y="674"/>
      <point x="192" y="720" type="curve" smooth="yes"/>
      <point x="192" y="766"/>
      <point x="219" y="799"/>
      <point x="265" y="799" type="curve" smooth="yes"/>
      <point x="310" y="799"/>
      <point x="338" y="767"/>
      <point x="338" y="720" type="curve" smooth="yes"/>
      <point x="338" y="674"/>
      <point x="310" y="641"/>
    </contour>
  </outline>
</glyph>
<glyph name="plusminus" format="1">
  <advance width="726"/>
  <unicode hex="00B1"/>
  <outline>
    <contour>
      <point x="180" y="157" type="line" smooth="yes"/>
      <point x="138" y="157"/>
      <point x="36" y="157"/>
      <point x="36" y="60" type="curve" smooth="yes"/>
      <point x="36" y="47"/>
      <point x="41" y="31"/>
      <point x="44" y="24" type="curve"/>
      <point x="546" y="24" type="line" smooth="yes"/>
      <point x="588" y="24"/>
      <point x="690" y="24"/>
      <point x="690" y="126" type="curve" smooth="yes"/>
      <point x="690" y="136"/>
      <point x="688" y="150"/>
      <point x="684" y="157" type="curve"/>
    </contour>
    <contour>
      <point x="430" y="764" type="line"/>
      <point x="422" y="768"/>
      <point x="407" y="773"/>
      <point x="394" y="773" type="curve" smooth="yes"/>
      <point x="308" y="773"/>
      <point x="296" y="695"/>
      <point x="296" y="647" type="curve" smooth="yes"/>
      <point x="296" y="641"/>
      <point x="298" y="635"/>
      <point x="301" y="547" type="curve"/>
      <point x="191" y="551"/>
      <point x="186" y="551"/>
      <point x="181" y="551" type="curve" smooth="yes"/>
      <point x="134" y="551"/>
      <point x="52" y="542"/>
      <point x="52" y="455" type="curve" smooth="yes"/>
      <point x="52" y="442"/>
      <point x="56" y="426"/>
      <point x="60" y="419" type="curve"/>
      <point x="305" y="422" type="line"/>
      <point x="301" y="203" type="line"/>
      <point x="305" y="199"/>
      <point x="319" y="197"/>
      <point x="329" y="197" type="curve" smooth="yes"/>
      <point x="410" y="197"/>
      <point x="430" y="269"/>
      <point x="430" y="329" type="curve" smooth="yes"/>
      <point x="430" y="332"/>
      <point x="430" y="336"/>
      <point x="426" y="422" type="curve"/>
      <point x="536" y="419"/>
      <point x="540" y="419"/>
      <point x="545" y="419" type="curve" smooth="yes"/>
      <point x="592" y="419"/>
      <point x="676" y="427"/>
      <point x="676" y="520" type="curve" smooth="yes"/>
      <point x="676" y="529"/>
      <point x="673" y="544"/>
      <point x="670" y="551" type="curve"/>
      <point x="426" y="547" type="line"/>
    </contour>
  </outline>
</glyph>
<glyph name="paragraph" format="1">
  <advance width="720"/>
  <unicode hex="00B6"/>
  <outline>
    <contour>
      <point x="601" y="736" type="line"/>
      <point x="587" y="690"/>
      <point x="583" y="638"/>
      <point x="583" y="584" type="curve" smooth="yes"/>
      <point x="583" y="0" type="line"/>
      <point x="572" y="-4"/>
      <point x="562" y="-6"/>
      <point x="550" y="-6" type="curve" smooth="yes"/>
      <point x="518" y="-6"/>
      <point x="487" y="11"/>
      <point x="487" y="65" type="curve" smooth="yes"/>
      <point x="487" y="556" type="line"/>
      <point x="487" y="587"/>
      <point x="490" y="617"/>
      <point x="494" y="648" type="curve"/>
      <point x="439" y="648" type="line" smooth="yes"/>
      <point x="412" y="648"/>
      <point x="396" y="632"/>
      <point x="396" y="600" type="curve" smooth="yes"/>
      <point x="396" y="0" type="line"/>
      <point x="385" y="-4"/>
      <point x="374" y="-6"/>
      <point x="362" y="-6" type="curve" smooth="yes"/>
      <point x="331" y="-6"/>
      <point x="300" y="11"/>
      <point x="300" y="65" type="curve" smooth="yes"/>
      <point x="300" y="276" type="line"/>
      <point x="253" y="276" type="line" smooth="yes"/>
      <point x="119" y="276"/>
      <point x="48" y="379"/>
      <point x="48" y="505" type="curve" smooth="yes"/>
      <point x="48" y="635"/>
      <point x="119" y="736"/>
      <point x="253" y="736" type="curve" smooth="yes"/>
    </contour>
  </outline>
</glyph>
<glyph name="periodcentered" format="1">
  <advance width="392"/>
  <unicode hex="00B7"/>
  <outline>
    <contour>
      <point x="292" y="368" type="curve" smooth="yes"/>
      <point x="292" y="414"/>
      <point x="260" y="449"/>
      <point x="212" y="449" type="curve" smooth="yes"/>
      <point x="155" y="449"/>
      <point x="100" y="396"/>
      <point x="100" y="337" type="curve" smooth="yes"/>
      <point x="100" y="293"/>
      <point x="133" y="257"/>
      <point x="181" y="257" type="curve" smooth="yes"/>
      <point x="239" y="257"/>
      <point x="292" y="310"/>
    </contour>
  </outline>
</glyph>
<glyph name="cedilla" format="1">
  <advance width="389"/>
  <unicode hex="00B8"/>
  <outline>
    <contour>
      <point x="205" y="0" type="move" name="_bottom"/>
    </contour>
    <contour>
      <point x="163" y="-198" type="curve" smooth="yes"/>
      <point x="116" y="-198"/>
      <point x="62" y="-179"/>
      <point x="35" y="-137" type="curve"/>
      <point x="23" y="-144"/>
      <point x="13" y="-158"/>
      <point x="13" y="-175" type="curve" smooth="yes"/>
      <point x="13" y="-222"/>
      <point x="82" y="-266"/>
      <point x="176" y="-266" type="curve" smooth="yes"/>
      <point x="288" y="-266"/>
      <point x="365" y="-217"/>
      <point x="365" y="-154" type="curve" smooth="yes"/>
      <point x="365" y="-90"/>
      <point x="314" y="-62"/>
      <point x="238" y="-62" type="curve" smooth="yes"/>
      <point x="212" y="-62"/>
      <point x="186" y="-68"/>
      <point x="156" y="-76" type="curve"/>
      <point x="226" y="-90" type="line"/>
      <point x="248" y="10" type="line"/>
      <point x="149" y="10" type="line"/>
      <point x="131" y="-72" type="line" smooth="yes"/>
      <point x="125" y="-99"/>
      <point x="134" y="-109"/>
      <point x="156" y="-109" type="curve" smooth="yes"/>
      <point x="170" y="-109" type="line" smooth="yes"/>
      <point x="211" y="-109"/>
      <point x="233" y="-126"/>
      <point x="233" y="-154" type="curve" smooth="yes"/>
      <point x="233" y="-182"/>
      <point x="206" y="-198"/>
    </contour>
  </outline>
</glyph>
<glyph name="onesuperior" format="1">
  <advance width="251"/>
  <unicode hex="00B9"/>
  <outline>
    <contour>
      <point x="194" y="373" type="line" smooth="yes"/>
      <point x="194" y="352"/>
      <point x="200" y="338"/>
      <point x="215" y="332" type="curve"/>
      <point x="200" y="317"/>
      <point x="182" y="307"/>
      <point x="156" y="307" type="curve" smooth="yes"/>
      <point x="112" y="307"/>
      <point x="91" y="329"/>
      <point x="91" y="376" type="curve" smooth="yes"/>
      <point x="91" y="659" type="line" smooth="yes"/>
      <point x="91" y="671"/>
      <point x="85" y="677"/>
      <point x="74" y="677" type="curve" smooth="yes"/>
      <point x="62" y="677"/>
      <point x="49" y="672"/>
      <point x="38" y="664" type="curve"/>
      <point x="29" y="667"/>
      <point x="24" y="676"/>
      <point x="24" y="684" type="curve" smooth="yes"/>
      <point x="24" y="712"/>
      <point x="67" y="746"/>
      <point x="127" y="746" type="curve" smooth="yes"/>
      <point x="172" y="746"/>
      <point x="194" y="721"/>
      <point x="194" y="684" type="curve" smooth="yes"/>
    </contour>
  </outline>
</glyph>
<glyph name="guillemotright" format="1">
  <advance width="584"/>
  <unicode hex="00BB"/>
  <outline>
    <contour>
      <point x="299" y="311" type="curve" smooth="yes"/>
      <point x="299" y="386"/>
      <point x="128" y="562"/>
      <point x="59" y="562" type="curve" smooth="yes"/>
      <point x="41" y="562"/>
      <point x="27" y="548"/>
      <point x="25" y="541" type="curve"/>
      <point x="121" y="413"/>
      <point x="153" y="362"/>
      <point x="153" y="311" type="curve" smooth="yes"/>
      <point x="153" y="261"/>
      <point x="121" y="209"/>
      <point x="25" y="82" type="curve"/>
      <point x="27" y="75"/>
      <point x="41" y="61"/>
      <point x="59" y="61" type="curve" smooth="yes"/>
      <point x="128" y="61"/>
      <point x="299" y="237"/>
    </contour>
    <contour>
      <point x="539" y="311" type="curve" smooth="yes"/>
      <point x="539" y="386"/>
      <point x="368" y="562"/>
      <point x="299" y="562" type="curve" smooth="yes"/>
      <point x="281" y="562"/>
      <point x="267" y="548"/>
      <point x="265" y="541" type="curve"/>
      <point x="361" y="413"/>
      <point x="393" y="362"/>
      <point x="393" y="311" type="curve" smooth="yes"/>
      <point x="393" y="261"/>
      <point x="361" y="209"/>
      <point x="265" y="82" type="curve"/>
      <point x="267" y="75"/>
      <point x="281" y="61"/>
      <point x="299" y="61" type="curve" smooth="yes"/>
      <point x="368" y="61"/>
      <point x="539" y="237"/>
    </contour>
  </outline>
</glyph>
<glyph name="onequarter" format="1">
  <advance width="689"/>
  <unicode hex="00BC"/>
  <outline>
    <contour>
      <point x="608" y="364" type="line" smooth="yes"/>
      <point x="608" y="409"/>
      <point x="590" y="433"/>
      <point x="550" y="433" type="curve" smooth="yes"/>
      <point x="461" y="433"/>
      <point x="325" y="210"/>
      <point x="325" y="148" type="curve" smooth="yes"/>
      <point x="325" y="120"/>
      <point x="342" y="103"/>
      <point x="384" y="103" type="curve" smooth="yes"/>
      <point x="622" y="103" type="line" smooth="yes"/>
      <point x="661" y="103"/>
      <point x="686" y="124"/>
      <point x="686" y="149" type="curve" smooth="yes"/>
      <point x="686" y="162"/>
      <point x="680" y="170"/>
      <point x="674" y="176" type="curve"/>
      <point x="662" y="167"/>
      <point x="642" y="166"/>
      <point x="629" y="166" type="curve" smooth="yes"/>
      <point x="432" y="166" type="line" smooth="yes"/>
      <point x="415" y="166"/>
      <point x="408" y="169"/>
      <point x="408" y="179" type="curve" smooth="yes"/>
      <point x="408" y="218"/>
      <point x="478" y="322"/>
      <point x="496" y="322" type="curve" smooth="yes"/>
      <point x="503" y="322"/>
      <point x="503" y="316"/>
      <point x="503" y="312" type="curve" smooth="yes"/>
      <point x="503" y="62" type="line" smooth="yes"/>
      <point x="503" y="16"/>
      <point x="526" y="-6"/>
      <point x="570" y="-6" type="curve" smooth="yes"/>
      <point x="596" y="-6"/>
      <point x="614" y="4"/>
      <point x="629" y="19" type="curve"/>
      <point x="614" y="25"/>
      <point x="608" y="38"/>
      <point x="608" y="60" type="curve" smooth="yes"/>
    </contour>
    <contour>
      <point x="557" y="746" type="curve" smooth="yes"/>
      <point x="536" y="746"/>
      <point x="521" y="720"/>
      <point x="515" y="710" type="curve" smooth="yes"/>
      <point x="98" y="48" type="line" smooth="yes"/>
      <point x="91" y="36"/>
      <point x="79" y="19"/>
      <point x="73" y="14" type="curve"/>
      <point x="85" y="-6"/>
      <point x="100" y="-8"/>
      <point x="109" y="-8" type="curve" smooth="yes"/>
      <point x="130" y="-8"/>
      <point x="138" y="10"/>
      <point x="151" y="30" type="curve" smooth="yes"/>
      <point x="568" y="690" type="line" smooth="yes"/>
      <point x="575" y="701"/>
      <point x="583" y="720"/>
      <point x="593" y="725" type="curve"/>
      <point x="580" y="743"/>
      <point x="566" y="746"/>
    </contour>
    <contour>
      <point x="200" y="373" type="curve" smooth="yes"/>
      <point x="200" y="684" type="line" smooth="yes"/>
      <point x="200" y="721"/>
      <point x="178" y="746"/>
      <point x="133" y="746" type="curve" smooth="yes"/>
      <point x="73" y="746"/>
      <point x="30" y="712"/>
      <point x="30" y="684" type="curve" smooth="yes"/>
      <point x="30" y="676"/>
      <point x="35" y="667"/>
      <point x="44" y="664" type="curve"/>
      <point x="55" y="672"/>
      <point x="68" y="677"/>
      <point x="80" y="677" type="curve" smooth="yes"/>
      <point x="91" y="677"/>
      <point x="97" y="671"/>
      <point x="97" y="659" type="curve" smooth="yes"/>
      <point x="97" y="376" type="line" smooth="yes"/>
      <point x="97" y="329"/>
      <point x="118" y="307"/>
      <point x="162" y="307" type="curve" smooth="yes"/>
      <point x="188" y="307"/>
      <point x="206" y="317"/>
      <point x="221" y="332" type="curve"/>
      <point x="206" y="338"/>
      <point x="200" y="352"/>
    </contour>
  </outline>
</glyph>
<glyph name="questiondown" format="1">
  <advance width="587"/>
  <unicode hex="00BF"/>
  <outline>
    <contour>
      <point x="257" y="192" type="curve" smooth="yes"/>
      <point x="257" y="98"/>
      <point x="78" y="44"/>
      <point x="78" y="-100" type="curve" smooth="yes"/>
      <point x="78" y="-203"/>
      <point x="185" y="-266"/>
      <point x="308" y="-266" type="curve" smooth="yes"/>
      <point x="438" y="-266"/>
      <point x="556" y="-203"/>
      <point x="556" y="-103" type="curve" smooth="yes"/>
      <point x="556" y="-43"/>
      <point x="514" y="5"/>
      <point x="448" y="5" type="curve" smooth="yes"/>
      <point x="385" y="5"/>
      <point x="344" y="-47"/>
      <point x="344" y="-60" type="curve"/>
      <point x="371" y="-70"/>
      <point x="397" y="-97"/>
      <point x="397" y="-130" type="curve" smooth="yes"/>
      <point x="397" y="-166"/>
      <point x="373" y="-187"/>
      <point x="331" y="-187" type="curve" smooth="yes"/>
      <point x="272" y="-187"/>
      <point x="238" y="-150"/>
      <point x="238" y="-97" type="curve" smooth="yes"/>
      <point x="238" y="47"/>
      <point x="390" y="85"/>
      <point x="390" y="200" type="curve" smooth="yes"/>
      <point x="390" y="269"/>
      <point x="342" y="308"/>
      <point x="284" y="308" type="curve" smooth="yes"/>
      <point x="242" y="308"/>
      <point x="208" y="283"/>
      <point x="204" y="245" type="curve"/>
      <point x="239" y="238"/>
      <point x="257" y="211"/>
    </contour>
    <contour>
      <point x="202" y="428" type="curve" smooth="yes"/>
      <point x="202" y="389"/>
      <point x="234" y="358"/>
      <point x="282" y="358" type="curve" smooth="yes"/>
      <point x="338" y="358"/>
      <point x="394" y="404"/>
      <point x="394" y="457" type="curve" smooth="yes"/>
      <point x="394" y="496"/>
      <point x="361" y="528"/>
      <point x="313" y="528" type="curve" smooth="yes"/>
      <point x="254" y="528"/>
      <point x="202" y="481"/>
    </contour>
  </outline>
</glyph>
<glyph name="AE" format="1">
  <advance width="1075"/>
  <unicode hex="00C6"/>
  <outline>
    <contour>
      <point x="1343" y="12" type="move" name="ogonek"/>
    </contour>
    <contour>
      <point x="1057" y="0" type="move" name="bottom"/>
    </contour>
    <contour>
      <point x="1081" y="736" type="move" name="top"/>
    </contour>
    <contour>
      <point x="772" y="457" type="curve" smooth="yes"/>
      <point x="617" y="457" type="line"/>
      <point x="617" y="329" type="line"/>
      <point x="761" y="329" type="line" smooth="yes"/>
      <point x="811" y="329"/>
      <point x="851" y="329"/>
      <point x="887" y="317" type="curve"/>
      <point x="906" y="332"/>
      <point x="919" y="354"/>
      <point x="919" y="383" type="curve" smooth="yes"/>
      <point x="919" y="436"/>
      <point x="880" y="457"/>
    </contour>
    <contour>
      <point x="868" y="736" type="curve" smooth="yes"/>
      <point x="496" y="736" type="line" smooth="yes"/>
      <point x="409" y="736"/>
      <point x="371" y="704"/>
      <point x="335" y="634" type="curve" smooth="yes"/>
      <point x="72" y="120" type="line" smooth="yes"/>
      <point x="48" y="74"/>
      <point x="36" y="59"/>
      <point x="12" y="47" type="curve"/>
      <point x="29" y="17"/>
      <point x="72" y="-6"/>
      <point x="116" y="-6" type="curve" smooth="yes"/>
      <point x="158" y="-6"/>
      <point x="191" y="14"/>
      <point x="220" y="74" type="curve" smooth="yes"/>
      <point x="508" y="672" type="line"/>
      <point x="476" y="686" type="line"/>
      <point x="476" y="145" type="line" smooth="yes"/>
      <point x="476" y="54"/>
      <point x="533" y="0"/>
      <point x="661" y="0" type="curve" smooth="yes"/>
      <point x="887" y="0" type="line" smooth="yes"/>
      <point x="976" y="0"/>
      <point x="1015" y="42"/>
      <point x="1015" y="95" type="curve" smooth="yes"/>
      <point x="1015" y="124"/>
      <point x="1002" y="152"/>
      <point x="983" y="168" type="curve"/>
      <point x="947" y="142"/>
      <point x="907" y="128"/>
      <point x="857" y="128" type="curve" smooth="yes"/>
      <point x="680" y="128" type="line" smooth="yes"/>
      <point x="648" y="128"/>
      <point x="634" y="143"/>
      <point x="634" y="173" type="curve" smooth="yes"/>
      <point x="634" y="607" type="line"/>
      <point x="857" y="607" type="line" smooth="yes"/>
      <point x="907" y="607"/>
      <point x="948" y="602"/>
      <point x="983" y="588" type="curve"/>
      <point x="1002" y="604"/>
      <point x="1015" y="625"/>
      <point x="1015" y="654" type="curve" smooth="yes"/>
      <point x="1015" y="707"/>
      <point x="976" y="736"/>
    </contour>
    <contour>
      <point x="536" y="293" type="line"/>
      <point x="232" y="293" type="line"/>
      <point x="185" y="164" type="line"/>
      <point x="536" y="164" type="line"/>
    </contour>
  </outline>
</glyph>
<glyph name="multiply" format="1">
  <advance width="763"/>
  <unicode hex="00D7"/>
  <outline>
    <contour>
      <point x="453" y="330" type="line"/>
      <point x="663" y="573" type="line"/>
      <point x="652" y="594"/>
      <point x="631" y="604"/>
      <point x="612" y="604" type="curve" smooth="yes"/>
      <point x="582" y="604"/>
      <point x="559" y="575"/>
      <point x="547" y="562" type="curve" smooth="yes"/>
      <point x="400" y="393" type="line"/>
      <point x="277" y="534" type="line" smooth="yes"/>
      <point x="257" y="557"/>
      <point x="216" y="604"/>
      <point x="167" y="604" type="curve" smooth="yes"/>
      <point x="141" y="604"/>
      <point x="103" y="587"/>
      <point x="85" y="550" type="curve"/>
      <point x="311" y="290" type="line"/>
      <point x="102" y="50" type="line"/>
      <point x="113" y="27"/>
      <point x="132" y="17"/>
      <point x="151" y="17" type="curve" smooth="yes"/>
      <point x="180" y="17"/>
      <point x="205" y="45"/>
      <point x="217" y="59" type="curve" smooth="yes"/>
      <point x="364" y="228" type="line"/>
      <point x="485" y="88" type="line" smooth="yes"/>
      <point x="504" y="65"/>
      <point x="545" y="18"/>
      <point x="594" y="18" type="curve" smooth="yes"/>
      <point x="617" y="18"/>
      <point x="660" y="33"/>
      <point x="678" y="70" type="curve"/>
    </contour>
  </outline>
</glyph>
<glyph name="ae" format="1">
  <advance width="826"/>
  <unicode hex="00E6"/>
  <outline>
    <contour>
      <point x="1072" y="12" type="move" name="ogonek"/>
    </contour>
    <contour>
      <point x="859" y="0" type="move" name="bottom"/>
    </contour>
    <contour>
      <point x="889" y="523" type="move" name="top"/>
    </contour>
    <contour>
      <point x="353" y="224" type="line"/>
      <point x="245" y="221"/>
      <point x="210" y="181"/>
      <point x="210" y="137" type="curve" smooth="yes"/>
      <point x="210" y="102"/>
      <point x="233" y="88"/>
      <point x="266" y="88" type="curve" smooth="yes"/>
      <point x="300" y="88"/>
      <point x="338" y="109"/>
      <point x="364" y="148" type="curve"/>
      <point x="412" y="90" type="line"/>
      <point x="364" y="29"/>
      <point x="300" y="-11"/>
      <point x="214" y="-11" type="curve" smooth="yes"/>
      <point x="110" y="-11"/>
      <point x="40" y="35"/>
      <point x="40" y="119" type="curve" smooth="yes"/>
      <point x="40" y="221"/>
      <point x="155" y="288"/>
      <point x="353" y="288" type="curve"/>
    </contour>
    <contour>
      <point x="458" y="457" type="curve"/>
      <point x="422" y="460" type="line"/>
      <point x="468" y="506"/>
      <point x="528" y="534"/>
      <point x="598" y="534" type="curve" smooth="yes"/>
      <point x="716" y="534"/>
      <point x="796" y="442"/>
      <point x="796" y="352" type="curve" smooth="yes"/>
      <point x="796" y="278"/>
      <point x="763" y="250"/>
      <point x="680" y="247" type="curve" smooth="yes"/>
      <point x="479" y="241" type="line"/>
      <point x="479" y="316" type="line"/>
      <point x="598" y="331" type="line" smooth="yes"/>
      <point x="619" y="334"/>
      <point x="634" y="342"/>
      <point x="634" y="374" type="curve" smooth="yes"/>
      <point x="634" y="413"/>
      <point x="617" y="451"/>
      <point x="584" y="451" type="curve" smooth="yes"/>
      <point x="539" y="451"/>
      <point x="496" y="390"/>
      <point x="496" y="259" type="curve" smooth="yes"/>
      <point x="496" y="140"/>
      <point x="548" y="98"/>
      <point x="620" y="98" type="curve" smooth="yes"/>
      <point x="686" y="98"/>
      <point x="728" y="126"/>
      <point x="760" y="161" type="curve"/>
      <point x="774" y="155"/>
      <point x="782" y="137"/>
      <point x="782" y="119" type="curve" smooth="yes"/>
      <point x="782" y="58"/>
      <point x="697" y="-11"/>
      <point x="592" y="-11" type="curve" smooth="yes"/>
      <point x="433" y="-11"/>
      <point x="340" y="80"/>
      <point x="340" y="234" type="curve" smooth="yes"/>
      <point x="340" y="383" type="line" smooth="yes"/>
      <point x="340" y="431"/>
      <point x="319" y="450"/>
      <point x="286" y="450" type="curve" smooth="yes"/>
      <point x="257" y="450"/>
      <point x="235" y="430"/>
      <point x="235" y="402" type="curve" smooth="yes"/>
      <point x="235" y="389"/>
      <point x="241" y="371"/>
      <point x="251" y="359" type="curve"/>
      <point x="229" y="336"/>
      <point x="198" y="323"/>
      <point x="161" y="323" type="curve" smooth="yes"/>
      <point x="96" y="323"/>
      <point x="65" y="359"/>
      <point x="65" y="406" type="curve" smooth="yes"/>
      <point x="65" y="484"/>
      <point x="178" y="534"/>
      <point x="280" y="534" type="curve" smooth="yes"/>
      <point x="368" y="534"/>
      <point x="418" y="509"/>
    </contour>
  </outline>
</glyph>
<glyph name="eth" format="1">
  <advance width="610"/>
  <unicode hex="00F0"/>
  <outline>
    <contour>
      <point x="305" y="523" type="move" name="top"/>
    </contour>
    <contour>
      <point x="208" y="262" type="curve" smooth="yes"/>
      <point x="217" y="118"/>
      <point x="258" y="65"/>
      <point x="318" y="65" type="curve" smooth="yes"/>
      <point x="378" y="65"/>
      <point x="412" y="118"/>
      <point x="402" y="262" type="curve" smooth="yes"/>
      <point x="392" y="406"/>
      <point x="352" y="458"/>
      <point x="292" y="458" type="curve" smooth="yes"/>
      <point x="232" y="458"/>
      <point x="198" y="406"/>
    </contour>
    <contour>
      <point x="562" y="277" type="curve" smooth="yes"/>
      <point x="562" y="47"/>
      <point x="412" y="-11"/>
      <point x="305" y="-11" type="curve" smooth="yes"/>
      <point x="157" y="-11"/>
      <point x="48" y="82"/>
      <point x="48" y="262" type="curve" smooth="yes"/>
      <point x="48" y="442"/>
      <point x="157" y="534"/>
      <point x="305" y="534" type="curve" smooth="yes"/>
      <point x="334" y="534"/>
      <point x="367" y="528"/>
      <point x="392" y="516" type="curve"/>
      <point x="380" y="492" type="line"/>
      <point x="350" y="594"/>
      <point x="289" y="673"/>
      <point x="205" y="750" type="curve"/>
      <point x="215" y="770"/>
      <point x="230" y="780"/>
      <point x="250" y="780" type="curve" smooth="yes"/>
      <point x="371" y="780"/>
      <point x="562" y="524"/>
    </contour>
    <contour>
      <point x="512" y="752" type="line"/>
      <point x="516" y="749"/>
      <point x="521" y="742"/>
      <point x="522" y="736" type="curve" smooth="yes"/>
      <point x="540" y="678"/>
      <point x="448" y="661"/>
      <point x="409" y="649" type="curve" smooth="yes"/>
      <point x="187" y="576" type="line"/>
      <point x="184" y="580"/>
      <point x="176" y="588"/>
      <point x="175" y="595" type="curve" smooth="yes"/>
      <point x="166" y="624"/>
      <point x="190" y="650"/>
      <point x="254" y="671" type="curve" smooth="yes"/>
    </contour>
  </outline>
</glyph>
<glyph name="divide" format="1">
  <advance width="746"/>
  <unicode hex="00F7"/>
  <outline>
    <contour>
      <point x="199" y="480" type="line" smooth="yes"/>
      <point x="157" y="480"/>
      <point x="54" y="480"/>
      <point x="54" y="382" type="curve" smooth="yes"/>
      <point x="54" y="368"/>
      <point x="59" y="353"/>
      <point x="62" y="346" type="curve"/>
      <point x="547" y="346" type="line" smooth="yes"/>
      <point x="589" y="346"/>
      <point x="692" y="346"/>
      <point x="692" y="449" type="curve" smooth="yes"/>
      <point x="692" y="458"/>
      <point x="690" y="473"/>
      <point x="686" y="480" type="curve"/>
    </contour>
    <contour>
      <point x="473" y="208" type="curve" smooth="yes"/>
      <point x="473" y="253"/>
      <point x="440" y="288"/>
      <point x="392" y="288" type="curve" smooth="yes"/>
      <point x="336" y="288"/>
      <point x="281" y="235"/>
      <point x="281" y="176" type="curve" smooth="yes"/>
      <point x="281" y="132"/>
      <point x="313" y="96"/>
      <point x="361" y="96" type="curve" smooth="yes"/>
      <point x="420" y="96"/>
      <point x="473" y="149"/>
    </contour>
    <contour>
      <point x="473" y="652" type="curve" smooth="yes"/>
      <point x="473" y="697"/>
      <point x="440" y="732"/>
      <point x="392" y="732" type="curve" smooth="yes"/>
      <point x="336" y="732"/>
      <point x="281" y="679"/>
      <point x="281" y="620" type="curve" smooth="yes"/>
      <point x="281" y="576"/>
      <point x="313" y="540"/>
      <point x="361" y="540" type="curve" smooth="yes"/>
      <point x="420" y="540"/>
      <point x="473" y="593"/>
    </contour>
  </outline>
</glyph>
<glyph name="dotlessi" format="1">
  <advance width="307"/>
  <unicode hex="0131"/>
  <outline>
    <contour>
      <point x="235" y="103" type="curve" smooth="yes"/>
      <point x="235" y="415" type="line" smooth="yes"/>
      <point x="235" y="496"/>
      <point x="204" y="534"/>
      <point x="136" y="534" type="curve" smooth="yes"/>
      <point x="96" y="534"/>
      <point x="66" y="516"/>
      <point x="44" y="491" type="curve"/>
      <point x="67" y="479"/>
      <point x="78" y="456"/>
      <point x="78" y="421" type="curve" smooth="yes"/>
      <point x="78" y="108" type="line" smooth="yes"/>
      <point x="78" y="28"/>
      <point x="108" y="-11"/>
      <point x="176" y="-11" type="curve" smooth="yes"/>
      <point x="217" y="-11"/>
      <point x="246" y="7"/>
      <point x="268" y="32" type="curve"/>
      <point x="245" y="44"/>
      <point x="235" y="67"/>
    </contour>
    <contour>
      <point x="276" y="12" type="move" name="ogonek"/>
    </contour>
    <contour>
      <point x="154" y="523" type="move" name="top"/>
    </contour>
  </outline>
</glyph>
<glyph name="Lslash" format="1">
  <advance width="590"/>
  <unicode hex="0141"/>
  <outline>
    <contour>
      <point x="403" y="557" type="curve" smooth="yes"/>
      <point x="430" y="499"/>
      <point x="380" y="475"/>
      <point x="356" y="463" type="curve" smooth="yes"/>
      <point x="35" y="308" type="line"/>
      <point x="31" y="311"/>
      <point x="17" y="318"/>
      <point x="13" y="325" type="curve" smooth="yes"/>
      <point x="-12" y="380"/>
      <point x="46" y="406"/>
      <point x="70" y="418" type="curve" smooth="yes"/>
      <point x="391" y="571" type="line"/>
      <point x="396" y="570"/>
      <point x="401" y="562"/>
    </contour>
    <component base="L" xOffset="1"/>
  </outline>
</glyph>
<glyph name="OE" format="1">
  <advance width="1139"/>
  <unicode hex="0152"/>
  <outline>
    <contour>
      <point x="1067" y="12" type="move" name="ogonek"/>
    </contour>
    <contour>
      <point x="241" y="349" type="curve" smooth="yes"/>
      <point x="232" y="522"/>
      <point x="310" y="637"/>
      <point x="433" y="637" type="curve" smooth="yes"/>
      <point x="475" y="637"/>
      <point x="509" y="629"/>
      <point x="538" y="614" type="curve"/>
      <point x="538" y="126" type="line"/>
      <point x="505" y="108"/>
      <point x="466" y="98"/>
      <point x="414" y="98" type="curve" smooth="yes"/>
      <point x="290" y="98"/>
      <point x="250" y="215"/>
    </contour>
    <contour>
      <point x="835" y="457" type="curve" smooth="yes"/>
      <point x="680" y="457" type="line"/>
      <point x="680" y="329" type="line"/>
      <point x="824" y="329" type="line" smooth="yes"/>
      <point x="875" y="329"/>
      <point x="914" y="329"/>
      <point x="950" y="317" type="curve"/>
      <point x="970" y="332"/>
      <point x="983" y="354"/>
      <point x="983" y="383" type="curve" smooth="yes"/>
      <point x="983" y="436"/>
      <point x="943" y="457"/>
    </contour>
    <contour>
      <point x="931" y="736" type="curve"/>
      <point x="418" y="736" type="line" smooth="yes"/>
      <point x="191" y="736"/>
      <point x="66" y="578"/>
      <point x="66" y="368" type="curve" smooth="yes"/>
      <point x="66" y="158"/>
      <point x="164" y="0"/>
      <point x="431" y="0" type="curve" smooth="yes"/>
      <point x="950" y="0" type="line" smooth="yes"/>
      <point x="1039" y="0"/>
      <point x="1079" y="42"/>
      <point x="1079" y="95" type="curve" smooth="yes"/>
      <point x="1079" y="124"/>
      <point x="1066" y="152"/>
      <point x="1046" y="168" type="curve"/>
      <point x="1010" y="142"/>
      <point x="971" y="128"/>
      <point x="920" y="128" type="curve" smooth="yes"/>
      <point x="760" y="128" type="line" smooth="yes"/>
      <point x="718" y="128"/>
      <point x="697" y="150"/>
      <point x="697" y="199" type="curve" smooth="yes"/>
      <point x="697" y="607" type="line"/>
      <point x="920" y="607" type="line" smooth="yes"/>
      <point x="971" y="607"/>
      <point x="1012" y="602"/>
      <point x="1046" y="588" type="curve"/>
      <point x="1066" y="604"/>
      <point x="1079" y="625"/>
      <point x="1079" y="654" type="curve" smooth="yes"/>
      <point x="1079" y="707"/>
      <point x="1039" y="736"/>
    </contour>
  </outline>
</glyph>
<glyph name="florin" format="1">
  <advance width="529"/>
  <unicode hex="0192"/>
  <outline>
    <contour>
      <point x="446" y="485" type="line"/>
      <point x="449" y="480"/>
      <point x="450" y="475"/>
      <point x="450" y="469" type="curve" smooth="yes"/>
      <point x="450" y="438"/>
      <point x="414" y="389"/>
      <point x="318" y="389" type="curve" smooth="yes"/>
      <point x="150" y="389" type="line" smooth="yes"/>
      <point x="102" y="389"/>
      <point x="79" y="415"/>
      <point x="79" y="443" type="curve" smooth="yes"/>
      <point x="79" y="461"/>
      <point x="88" y="478"/>
      <point x="103" y="491" type="curve"/>
      <point x="124" y="486"/>
      <point x="143" y="485"/>
      <point x="168" y="485" type="curve" smooth="yes"/>
    </contour>
    <contour>
      <point x="505" y="661" type="curve" smooth="yes"/>
      <point x="505" y="643"/>
      <point x="498" y="624"/>
      <point x="484" y="611" type="curve"/>
      <point x="470" y="629"/>
      <point x="448" y="643"/>
      <point x="421" y="643" type="curve" smooth="yes"/>
      <point x="391" y="643"/>
      <point x="362" y="625"/>
      <point x="348" y="569" type="curve" smooth="yes"/>
      <point x="190" y="-65" type="line" smooth="yes"/>
      <point x="156" y="-199"/>
      <point x="91" y="-268"/>
      <point x="-1" y="-268" type="curve" smooth="yes"/>
      <point x="-67" y="-268"/>
      <point x="-98" y="-224"/>
      <point x="-101" y="-178" type="curve"/>
      <point x="-14" y="-178"/>
      <point x="13" y="-142"/>
      <point x="32" y="-64" type="curve" smooth="yes"/>
      <point x="190" y="562" type="line" smooth="yes"/>
      <point x="220" y="683"/>
      <point x="292" y="746"/>
      <point x="385" y="746" type="curve" smooth="yes"/>
      <point x="468" y="746"/>
      <point x="505" y="703"/>
    </contour>
  </outline>
</glyph>
<glyph name="caron" format="1">
  <advance width="384"/>
  <unicode hex="02C7"/>
  <outline>
    <contour>
      <point x="192" y="523" type="move" name="_top"/>
    </contour>
    <contour>
      <point x="97" y="760" type="line" smooth="yes"/>
      <point x="84" y="772"/>
      <point x="68" y="776"/>
      <point x="53" y="776" type="curve" smooth="yes"/>
      <point x="36" y="776"/>
      <point x="20" y="768"/>
      <point x="12" y="751" type="curve"/>
      <point x="85" y="644" type="line" smooth="yes"/>
      <point x="116" y="600"/>
      <point x="140" y="570"/>
      <point x="192" y="570" type="curve" smooth="yes"/>
      <point x="244" y="570"/>
      <point x="268" y="600"/>
      <point x="299" y="644" type="curve" smooth="yes"/>
      <point x="372" y="751" type="line"/>
      <point x="364" y="768"/>
      <point x="348" y="776"/>
      <point x="331" y="776" type="curve" smooth="yes"/>
      <point x="316" y="776"/>
      <point x="300" y="772"/>
      <point x="287" y="760" type="curve" smooth="yes"/>
      <point x="152" y="643" type="line"/>
      <point x="232" y="643" type="line"/>
    </contour>
  </outline>
</glyph>
<glyph name="breve" format="1">
  <advance width="413"/>
  <unicode hex="02D8"/>
  <outline>
    <contour>
      <point x="206" y="523" type="move" name="_top"/>
    </contour>
    <contour>
      <point x="276" y="736" type="curve"/>
      <point x="276" y="673"/>
      <point x="250" y="649"/>
      <point x="206" y="649" type="curve" smooth="yes"/>
      <point x="163" y="649"/>
      <point x="137" y="673"/>
      <point x="137" y="736" type="curve"/>
      <point x="124" y="740"/>
      <point x="102" y="744"/>
      <point x="82" y="744" type="curve" smooth="yes"/>
      <point x="44" y="744"/>
      <point x="12" y="724"/>
      <point x="12" y="694" type="curve" smooth="yes"/>
      <point x="12" y="647"/>
      <point x="77" y="599"/>
      <point x="206" y="599" type="curve" smooth="yes"/>
      <point x="336" y="599"/>
      <point x="401" y="647"/>
      <point x="401" y="694" type="curve" smooth="yes"/>
      <point x="401" y="724"/>
      <point x="368" y="744"/>
      <point x="331" y="744" type="curve" smooth="yes"/>
      <point x="311" y="744"/>
      <point x="289" y="740"/>
    </contour>
  </outline>
</glyph>
<glyph name="dotaccent" format="1">
  <advance width="185"/>
  <unicode hex="02D9"/>
  <outline>
    <contour>
      <point x="92" y="523" type="move" name="_top"/>
    </contour>
    <contour>
      <point x="173" y="692" type="curve" smooth="yes"/>
      <point x="173" y="731"/>
      <point x="145" y="760"/>
      <point x="106" y="760" type="curve" smooth="yes"/>
      <point x="59" y="760"/>
      <point x="12" y="715"/>
      <point x="12" y="666" type="curve" smooth="yes"/>
      <point x="12" y="629"/>
      <point x="40" y="599"/>
      <point x="79" y="599" type="curve" smooth="yes"/>
      <point x="128" y="599"/>
      <point x="173" y="643"/>
    </contour>
  </outline>
</glyph>
<glyph name="ogonek" format="1">
  <advance width="343"/>
  <unicode hex="02DB"/>
  <outline>
    <contour>
      <point x="215" y="0" type="move" name="_ogonek"/>
    </contour>
    <contour>
      <point x="257" y="4" type="curve" smooth="yes"/>
      <point x="257" y="9"/>
      <point x="251" y="15"/>
      <point x="235" y="22" type="curve"/>
      <point x="121" y="22"/>
      <point x="10" y="-42"/>
      <point x="10" y="-122" type="curve" smooth="yes"/>
      <point x="10" y="-186"/>
      <point x="74" y="-231"/>
      <point x="170" y="-231" type="curve" smooth="yes"/>
      <point x="266" y="-231"/>
      <point x="333" y="-185"/>
      <point x="333" y="-140" type="curve" smooth="yes"/>
      <point x="333" y="-130"/>
      <point x="330" y="-120"/>
      <point x="324" y="-112" type="curve"/>
      <point x="291" y="-136"/>
      <point x="257" y="-143"/>
      <point x="228" y="-143" type="curve" smooth="yes"/>
      <point x="203" y="-143"/>
      <point x="173" y="-134"/>
      <point x="173" y="-101" type="curve" smooth="yes"/>
      <point x="173" y="-37"/>
      <point x="257" y="-17"/>
    </contour>
  </outline>
</glyph>
<glyph name="tilde" format="1">
  <advance width="406"/>
  <unicode hex="02DC"/>
  <outline>
    <contour>
      <point x="194" y="523" type="move" name="_top"/>
    </contour>
    <contour>
      <point x="293" y="712" type="curve" smooth="yes"/>
      <point x="233" y="712"/>
      <point x="209" y="768"/>
      <point x="125" y="768" type="curve" smooth="yes"/>
      <point x="70" y="768"/>
      <point x="12" y="721"/>
      <point x="12" y="658" type="curve" smooth="yes"/>
      <point x="12" y="614"/>
      <point x="38" y="600"/>
      <point x="58" y="600" type="curve"/>
      <point x="58" y="640"/>
      <point x="85" y="659"/>
      <point x="113" y="659" type="curve" smooth="yes"/>
      <point x="154" y="659"/>
      <point x="203" y="602"/>
      <point x="271" y="602" type="curve" smooth="yes"/>
      <point x="336" y="602"/>
      <point x="394" y="648"/>
      <point x="394" y="713" type="curve" smooth="yes"/>
      <point x="394" y="745"/>
      <point x="377" y="768"/>
      <point x="348" y="770" type="curve"/>
      <point x="348" y="731"/>
      <point x="320" y="712"/>
    </contour>
  </outline>
</glyph>
<glyph name="hungarumlaut" format="1">
  <advance width="382"/>
  <unicode hex="02DD"/>
  <outline>
    <contour>
      <point x="131" y="523" type="move" name="_top"/>
    </contour>
    <contour>
      <point x="185" y="709" type="curve"/>
      <point x="193" y="752"/>
      <point x="167" y="785"/>
      <point x="127" y="785" type="curve" smooth="yes"/>
      <point x="90" y="785"/>
      <point x="65" y="766"/>
      <point x="46" y="702" type="curve" smooth="yes"/>
      <point x="12" y="589" type="line"/>
      <point x="25" y="576"/>
      <point x="38" y="569"/>
      <point x="50" y="569" type="curve" smooth="yes"/>
      <point x="61" y="569"/>
      <point x="71" y="575"/>
      <point x="78" y="587" type="curve" smooth="yes"/>
      <point x="142" y="686" type="line" smooth="yes"/>
      <point x="156" y="709"/>
      <point x="167" y="713"/>
    </contour>
    <contour>
      <point x="362" y="696" type="curve"/>
      <point x="382" y="734"/>
      <point x="362" y="785"/>
      <point x="313" y="785" type="curve" smooth="yes"/>
      <point x="276" y="785"/>
      <point x="246" y="766"/>
      <point x="214" y="702" type="curve" smooth="yes"/>
      <point x="160" y="595" type="line"/>
      <point x="168" y="577"/>
      <point x="181" y="569"/>
      <point x="197" y="569" type="curve" smooth="yes"/>
      <point x="209" y="569"/>
      <point x="222" y="575"/>
      <point x="233" y="587" type="curve" smooth="yes"/>
      <point x="313" y="673" type="line" smooth="yes"/>
      <point x="334" y="696"/>
      <point x="346" y="700"/>
    </contour>
  </outline>
</glyph>
<glyph name="dvAnusvara" format="1">
  <advance width="0"/>
  <unicode hex="0902"/>
  <outline>
    <contour>
      <point x="-220" y="669" type="move" name="_abvm.bindu"/>
    </contour>
    <contour>
      <point x="-132" y="745" type="curve" smooth="yes"/>
      <point x="-92" y="745"/>
      <point x="-65" y="775"/>
      <point x="-65" y="812" type="curve" smooth="yes"/>
      <point x="-65" y="861"/>
      <point x="-111" y="905"/>
      <point x="-158" y="905" type="curve" smooth="yes"/>
      <point x="-198" y="905"/>
      <point x="-225" y="876"/>
      <point x="-225" y="838" type="curve" smooth="yes"/>
      <point x="-225" y="789"/>
      <point x="-181" y="745"/>
    </contour>
  </outline>
</glyph>
<glyph name="dvAA" format="1">
  <advance width="1078"/>
  <unicode hex="0906"/>
  <outline>
    <contour>
      <point x="704" y="669" type="move" name="abvm.bindu"/>
    </contour>
    <contour>
      <point x="589" y="261" type="line"/>
      <point x="581" y="219"/>
      <point x="576" y="175"/>
      <point x="576" y="137" type="curve" smooth="yes"/>
      <point x="576" y="55"/>
      <point x="604" y="-7"/>
      <point x="682" y="-7" type="curve" smooth="yes"/>
      <point x="693" y="-7"/>
      <point x="709" y="-6"/>
      <point x="724" y="0" type="curve"/>
      <point x="713" y="18"/>
      <point x="709" y="69"/>
      <point x="709" y="105" type="curve" smooth="yes"/>
      <point x="709" y="208"/>
      <point x="714" y="322"/>
      <point x="714" y="431" type="curve" smooth="yes"/>
      <point x="714" y="483"/>
      <point x="709" y="570"/>
      <point x="609" y="570" type="curve" smooth="yes"/>
      <point x="591" y="570"/>
      <point x="574" y="564"/>
      <point x="564" y="552" type="curve"/>
      <point x="579" y="529"/>
      <point x="581" y="484"/>
      <point x="581" y="448" type="curve" smooth="yes"/>
      <point x="581" y="386"/>
      <point x="579" y="341"/>
      <point x="578" y="304" type="curve"/>
      <point x="604" y="402" type="line"/>
      <point x="596" y="378"/>
      <point x="554" y="344"/>
      <point x="493" y="344" type="curve" smooth="yes"/>
      <point x="377" y="344"/>
      <point x="350" y="458"/>
      <point x="236" y="458" type="curve" smooth="yes"/>
      <point x="196" y="458"/>
      <point x="160" y="436"/>
      <point x="160" y="396" type="curve" smooth="yes"/>
      <point x="160" y="337"/>
      <point x="224" y="313"/>
      <point x="272" y="313" type="curve" smooth="yes"/>
      <point x="297" y="313"/>
      <point x="322" y="317"/>
      <point x="343" y="325" type="curve"/>
      <point x="351" y="321"/>
      <point x="373" y="299"/>
      <point x="373" y="265" type="curve" smooth="yes"/>
      <point x="373" y="211"/>
      <point x="329" y="183"/>
      <point x="280" y="183" type="curve" smooth="yes"/>
      <point x="182" y="183"/>
      <point x="111" y="269"/>
      <point x="72" y="346" type="curve"/>
      <point x="59" y="342"/>
      <point x="30" y="333"/>
      <point x="30" y="297" type="curve" smooth="yes"/>
      <point x="30" y="241"/>
      <point x="150" y="66"/>
      <point x="316" y="66" type="curve" smooth="yes"/>
      <point x="424" y="66"/>
      <point x="478" y="132"/>
      <point x="478" y="209" type="curve" smooth="yes"/>
      <point x="478" y="243"/>
      <point x="467" y="277"/>
      <point x="450" y="309" type="curve"/>
      <point x="394" y="314" type="line"/>
      <point x="430" y="269"/>
      <point x="488" y="242"/>
      <point x="555" y="242" type="curve" smooth="yes"/>
      <point x="582" y="242"/>
      <point x="647" y="258"/>
      <point x="659" y="273" type="curve"/>
    </contour>
    <contour>
      <point x="348" y="328" type="line"/>
      <point x="359" y="335"/>
      <point x="451" y="365"/>
      <point x="451" y="472" type="curve" smooth="yes"/>
      <point x="451" y="586"/>
      <point x="355" y="677"/>
      <point x="241" y="677" type="curve" smooth="yes"/>
      <point x="184" y="677"/>
      <point x="115" y="651"/>
      <point x="115" y="592" type="curve" smooth="yes"/>
      <point x="115" y="567"/>
      <point x="129" y="540"/>
      <point x="156" y="522" type="curve"/>
      <point x="190" y="550"/>
      <point x="246" y="570"/>
      <point x="289" y="570" type="curve" smooth="yes"/>
      <point x="327" y="570"/>
      <point x="356" y="555"/>
      <point x="356" y="522" type="curve" smooth="yes"/>
      <point x="356" y="491"/>
      <point x="325" y="446"/>
      <point x="252" y="421" type="curve"/>
    </contour>
    <contour>
      <point x="851" y="552" type="line"/>
      <point x="854" y="558"/>
      <point x="858" y="572"/>
      <point x="858" y="584" type="curve" smooth="yes"/>
      <point x="858" y="669"/>
      <point x="768" y="669"/>
      <point x="732" y="669" type="curve" smooth="yes"/>
      <point x="474" y="669" type="line"/>
      <point x="471" y="663"/>
      <point x="469" y="650"/>
      <point x="469" y="642" type="curve" smooth="yes"/>
      <point x="469" y="552"/>
      <point x="559" y="552"/>
      <point x="595" y="552" type="curve" smooth="yes"/>
    </contour>
    <contour>
      <point x="858" y="552" type="curve"/>
      <point x="873" y="529"/>
      <point x="873" y="485"/>
      <point x="873" y="448" type="curve" smooth="yes"/>
      <point x="873" y="294"/>
      <point x="868" y="223"/>
      <point x="868" y="145" type="curve" smooth="yes"/>
      <point x="868" y="102"/>
      <point x="870" y="-7"/>
      <point x="974" y="-7" type="curve" smooth="yes"/>
      <point x="985" y="-7"/>
      <point x="1001" y="-6"/>
      <point x="1016" y="0" type="curve"/>
      <point x="1005" y="18"/>
      <point x="1001" y="69"/>
      <point x="1001" y="105" type="curve" smooth="yes"/>
      <point x="1001" y="208"/>
      <point x="1006" y="322"/>
      <point x="1006" y="431" type="curve" smooth="yes"/>
      <point x="1006" y="483"/>
      <point x="1003" y="570"/>
      <point x="903" y="570" type="curve" smooth="yes"/>
      <point x="885" y="570"/>
      <point x="868" y="564"/>
    </contour>
    <contour>
      <point x="1134" y="552" type="line"/>
      <point x="1137" y="558"/>
      <point x="1141" y="572"/>
      <point x="1141" y="584" type="curve" smooth="yes"/>
      <point x="1141" y="669"/>
      <point x="1051" y="669"/>
      <point x="1015" y="669" type="curve" smooth="yes"/>
      <point x="717" y="669" type="line"/>
      <point x="714" y="663"/>
      <point x="712" y="650"/>
      <point x="712" y="642" type="curve" smooth="yes"/>
      <point x="712" y="552"/>
      <point x="802" y="552"/>
      <point x="838" y="552" type="curve" smooth="yes"/>
    </contour>
  </outline>
</glyph>
<glyph name="dvI" format="1">
  <advance width="487"/>
  <unicode hex="0907"/>
  <outline>
    <contour>
      <point x="226" y="669" type="move" name="abvm.bindu"/>
    </contour>
    <contour>
      <point x="117" y="81" type="line"/>
      <point x="143" y="-13"/>
      <point x="197" y="-203"/>
      <point x="336" y="-203" type="curve" smooth="yes"/>
      <point x="383" y="-203"/>
      <point x="423" y="-173"/>
      <point x="423" y="-128" type="curve" smooth="yes"/>
      <point x="423" y="-102"/>
      <point x="411" y="-78"/>
      <point x="392" y="-62" type="curve"/>
      <point x="373" y="-78"/>
      <point x="349" y="-83"/>
      <point x="331" y="-83" type="curve" smooth="yes"/>
      <point x="254" y="-83"/>
      <point x="205" y="0"/>
      <point x="182" y="57" type="curve"/>
    </contour>
    <contour>
      <point x="289" y="315" type="curve" smooth="yes"/>
      <point x="261" y="315"/>
      <point x="225" y="306"/>
      <point x="198" y="306" type="curve" smooth="yes"/>
      <point x="177" y="306"/>
      <point x="152" y="313"/>
      <point x="152" y="337" type="curve" smooth="yes"/>
      <point x="152" y="377"/>
      <point x="223" y="377"/>
      <point x="254" y="377" type="curve" smooth="yes"/>
      <point x="273" y="377"/>
      <point x="296" y="376"/>
      <point x="317" y="376" type="curve" smooth="yes"/>
      <point x="391" y="376"/>
      <point x="426" y="416"/>
      <point x="426" y="465" type="curve" smooth="yes"/>
      <point x="426" y="501"/>
      <point x="407" y="542"/>
      <point x="369" y="570" type="curve"/>
      <point x="299" y="555" type="line"/>
      <point x="316" y="546"/>
      <point x="322" y="533"/>
      <point x="322" y="521" type="curve" smooth="yes"/>
      <point x="322" y="502"/>
      <point x="302" y="493"/>
      <point x="271" y="493" type="curve" smooth="yes"/>
      <point x="244" y="493"/>
      <point x="225" y="494"/>
      <point x="205" y="494" type="curve" smooth="yes"/>
      <point x="114" y="494"/>
      <point x="64" y="449"/>
      <point x="64" y="377" type="curve" smooth="yes"/>
      <point x="64" y="274"/>
      <point x="152" y="187"/>
      <point x="253" y="187" type="curve" smooth="yes"/>
      <point x="289" y="187"/>
      <point x="325" y="194"/>
      <point x="344" y="194" type="curve" smooth="yes"/>
      <point x="366" y="194"/>
      <point x="379" y="184"/>
      <point x="379" y="168" type="curve" smooth="yes"/>
      <point x="379" y="132"/>
      <point x="312" y="107"/>
      <point x="249" y="107" type="curve" smooth="yes"/>
      <point x="221" y="107"/>
      <point x="190" y="112"/>
      <point x="168" y="124" type="curve"/>
      <point x="157" y="163"/>
      <point x="127" y="207"/>
      <point x="84" y="207" type="curve" smooth="yes"/>
      <point x="52" y="207"/>
      <point x="33" y="182"/>
      <point x="33" y="154" type="curve" smooth="yes"/>
      <point x="33" y="56"/>
      <point x="156" y="-9"/>
      <point x="297" y="-9" type="curve" smooth="yes"/>
      <point x="398" y="-9"/>
      <point x="469" y="46"/>
      <point x="469" y="134" type="curve" smooth="yes"/>
      <point x="469" y="238"/>
      <point x="380" y="315"/>
    </contour>
    <contour>
      <point x="560" y="552" type="line"/>
      <point x="563" y="558"/>
      <point x="567" y="572"/>
      <point x="567" y="584" type="curve" smooth="yes"/>
      <point x="567" y="669"/>
      <point x="477" y="669"/>
      <point x="441" y="669" type="curve" smooth="yes"/>
      <point x="-78" y="669" type="line"/>
      <point x="-81" y="663"/>
      <point x="-83" y="650"/>
      <point x="-83" y="642" type="curve" smooth="yes"/>
      <point x="-83" y="552"/>
      <point x="7" y="552"/>
      <point x="43" y="552" type="curve" smooth="yes"/>
    </contour>
  </outline>
</glyph>
<glyph name="dvII" format="1">
  <advance width="487"/>
  <unicode hex="0908"/>
  <outline>
    <contour>
      <point x="226" y="669" type="move" name="abvm.bindu"/>
    </contour>
    <component base="dvReph" xOffset="418" yOffset="1"/>
    <component base="dvI"/>
  </outline>
</glyph>
<glyph name="dvvR" format="1">
  <advance width="741"/>
  <unicode hex="090B"/>
  <outline>
    <contour>
      <point x="444" y="0" type="move" name="blwm.virama"/>
    </contour>
    <contour>
      <point x="286" y="669" type="move" name="abvm.bindu"/>
    </contour>
    <contour>
      <point x="434" y="669" type="move" name="abvm.e"/>
    </contour>
    <contour>
      <point x="324" y="223" type="line"/>
      <point x="311" y="204"/>
      <point x="299" y="160"/>
      <point x="299" y="117" type="curve" smooth="yes"/>
      <point x="299" y="55"/>
      <point x="323" y="-7"/>
      <point x="402" y="-7" type="curve" smooth="yes"/>
      <point x="413" y="-7"/>
      <point x="429" y="-6"/>
      <point x="444" y="0" type="curve"/>
      <point x="433" y="18"/>
      <point x="429" y="69"/>
      <point x="429" y="105" type="curve" smooth="yes"/>
      <point x="429" y="208"/>
      <point x="434" y="322"/>
      <point x="434" y="431" type="curve" smooth="yes"/>
      <point x="434" y="483"/>
      <point x="431" y="570"/>
      <point x="331" y="570" type="curve" smooth="yes"/>
      <point x="313" y="570"/>
      <point x="296" y="564"/>
      <point x="286" y="552" type="curve"/>
      <point x="301" y="529"/>
      <point x="301" y="485"/>
      <point x="301" y="448" type="curve" smooth="yes"/>
      <point x="301" y="373"/>
      <point x="300" y="317"/>
      <point x="299" y="271" type="curve"/>
      <point x="309" y="336" type="line"/>
      <point x="215" y="272"/>
      <point x="80" y="204"/>
      <point x="9" y="204" type="curve"/>
      <point x="9" y="133"/>
      <point x="61" y="112"/>
      <point x="107" y="112" type="curve" smooth="yes"/>
      <point x="193" y="112"/>
      <point x="318" y="195"/>
      <point x="383" y="243" type="curve"/>
    </contour>
    <contour>
      <point x="467" y="207" type="curve" smooth="yes"/>
      <point x="596" y="207"/>
      <point x="679" y="286"/>
      <point x="679" y="362" type="curve" smooth="yes"/>
      <point x="679" y="432"/>
      <point x="627" y="478"/>
      <point x="587" y="478" type="curve" smooth="yes"/>
      <point x="544" y="478"/>
      <point x="518" y="446"/>
      <point x="518" y="411" type="curve" smooth="yes"/>
      <point x="518" y="386"/>
      <point x="527" y="365"/>
      <point x="539" y="348" type="curve"/>
      <point x="522" y="330"/>
      <point x="476" y="305"/>
      <point x="424" y="305" type="curve" smooth="yes"/>
      <point x="280" y="305"/>
      <point x="237" y="471"/>
      <point x="96" y="471" type="curve" smooth="yes"/>
      <point x="46" y="471"/>
      <point x="7" y="440"/>
      <point x="7" y="393" type="curve" smooth="yes"/>
      <point x="7" y="352"/>
      <point x="36" y="324"/>
      <point x="65" y="312" type="curve"/>
      <point x="75" y="335"/>
      <point x="100" y="352"/>
      <point x="129" y="352" type="curve" smooth="yes"/>
      <point x="253" y="352"/>
      <point x="287" y="207"/>
    </contour>
    <contour>
      <point x="547" y="337" type="line"/>
      <point x="578" y="288"/>
      <point x="617" y="241"/>
      <point x="617" y="194" type="curve" smooth="yes"/>
      <point x="617" y="151"/>
      <point x="583" y="135"/>
      <point x="553" y="135" type="curve" smooth="yes"/>
      <point x="546" y="135"/>
      <point x="538" y="136"/>
      <point x="532" y="138" type="curve"/>
      <point x="532" y="80"/>
      <point x="572" y="32"/>
      <point x="630" y="32" type="curve" smooth="yes"/>
      <point x="689" y="32"/>
      <point x="719" y="84"/>
      <point x="719" y="131" type="curve" smooth="yes"/>
      <point x="719" y="244"/>
      <point x="615" y="314"/>
      <point x="581" y="406" type="curve"/>
    </contour>
    <contour>
      <point x="-78" y="669" type="line"/>
      <point x="-81" y="663"/>
      <point x="-83" y="650"/>
      <point x="-83" y="642" type="curve" smooth="yes"/>
      <point x="-83" y="552"/>
      <point x="7" y="552"/>
      <point x="43" y="552" type="curve" smooth="yes"/>
      <point x="797" y="552" type="line"/>
      <point x="800" y="558"/>
      <point x="804" y="572"/>
      <point x="804" y="584" type="curve" smooth="yes"/>
      <point x="804" y="669"/>
      <point x="714" y="669"/>
      <point x="678" y="669" type="curve" smooth="yes"/>
    </contour>
  </outline>
</glyph>
<glyph name="dvE" format="1">
  <advance width="585"/>
  <unicode hex="090F"/>
  <outline>
    <contour>
      <point x="349" y="-44" type="curve"/>
      <point x="349" y="-44"/>
      <point x="367" y="-122"/>
      <point x="453" y="-122" type="curve" smooth="yes"/>
      <point x="508" y="-122"/>
      <point x="540" y="-81"/>
      <point x="540" y="-32" type="curve" smooth="yes"/>
      <point x="540" y="142"/>
      <point x="198" y="148"/>
      <point x="198" y="309" type="curve" smooth="yes"/>
      <point x="198" y="351"/>
      <point x="200" y="391"/>
      <point x="200" y="431" type="curve" smooth="yes"/>
      <point x="200" y="483"/>
      <point x="197" y="570"/>
      <point x="97" y="570" type="curve" smooth="yes"/>
      <point x="79" y="570"/>
      <point x="62" y="564"/>
      <point x="52" y="552" type="curve"/>
      <point x="67" y="527"/>
      <point x="67" y="479"/>
      <point x="67" y="440" type="curve" smooth="yes"/>
      <point x="67" y="385"/>
      <point x="65" y="344"/>
      <point x="65" y="307" type="curve" smooth="yes"/>
      <point x="65" y="130"/>
      <point x="410" y="106"/>
      <point x="410" y="1" type="curve" smooth="yes"/>
      <point x="410" y="-26"/>
      <point x="389" y="-44"/>
    </contour>
    <contour>
      <point x="-78" y="669" type="line"/>
      <point x="-81" y="663"/>
      <point x="-83" y="650"/>
      <point x="-83" y="642" type="curve" smooth="yes"/>
      <point x="-83" y="552"/>
      <point x="7" y="552"/>
      <point x="43" y="552" type="curve" smooth="yes"/>
      <point x="641" y="552" type="line"/>
      <point x="644" y="558"/>
      <point x="648" y="572"/>
      <point x="648" y="584" type="curve" smooth="yes"/>
      <point x="648" y="669"/>
      <point x="558" y="669"/>
      <point x="522" y="669" type="curve" smooth="yes"/>
    </contour>
    <contour>
      <point x="287" y="358" type="curve"/>
      <point x="291" y="290"/>
      <point x="344" y="246"/>
      <point x="407" y="246" type="curve" smooth="yes"/>
      <point x="500" y="246"/>
      <point x="526" y="325"/>
      <point x="526" y="386" type="curve" smooth="yes"/>
      <point x="526" y="435"/>
      <point x="507" y="510"/>
      <point x="455" y="567" type="curve"/>
      <point x="367" y="567" type="line"/>
      <point x="385" y="550"/>
      <point x="417" y="519"/>
      <point x="417" y="448" type="curve" smooth="yes"/>
      <point x="417" y="382"/>
      <point x="371" y="353"/>
      <point x="322" y="353" type="curve" smooth="yes"/>
      <point x="310" y="353"/>
      <point x="298" y="355"/>
    </contour>
  </outline>
</glyph>
<glyph name="dvOcandra" format="1">
  <advance width="1078"/>
  <unicode hex="0911"/>
  <outline>
    <contour>
      <point x="683" y="869" type="move" name="abvm.bindu"/>
    </contour>
    <component base="dvAA"/>
    <component base="dvmEcandra" xOffset="924"/>
  </outline>
</glyph>
<glyph name="dvAU" format="1">
  <advance width="1078"/>
  <unicode hex="0914"/>
  <outline>
    <contour>
      <point x="1072" y="670" type="move" name="abvm.bindu"/>
    </contour>
    <component base="dvmAI" xOffset="1095"/>
    <component base="dvAA"/>
  </outline>
</glyph>
<glyph name="dvKA" format="1">
  <advance width="784"/>
  <unicode hex="0915"/>
  <outline>
    <contour>
      <point x="468" y="-1" type="move" name="blwm.u"/>
    </contour>
    <contour>
      <point x="468" y="0" type="move" name="blwm.r"/>
    </contour>
    <contour>
      <point x="448" y="669" type="move" name="abvm.e"/>
    </contour>
    <contour>
      <point x="468" y="-14" type="move" name="blwm.uu"/>
    </contour>
    <contour>
      <point x="310" y="669" type="move" name="abvm.bindu"/>
    </contour>
    <contour>
      <point x="468" y="0" type="move" name="blwm.virama"/>
    </contour>
    <contour>
      <point x="348" y="352" type="line"/>
      <point x="317" y="288"/>
      <point x="266" y="222"/>
      <point x="198" y="222" type="curve" smooth="yes"/>
      <point x="164" y="222"/>
      <point x="134" y="248"/>
      <point x="134" y="285" type="curve" smooth="yes"/>
      <point x="134" y="335"/>
      <point x="173" y="372"/>
      <point x="224" y="382" type="curve" smooth="yes"/>
      <point x="234" y="384"/>
      <point x="244" y="385"/>
      <point x="255" y="385" type="curve"/>
      <point x="256" y="390"/>
      <point x="256" y="394"/>
      <point x="256" y="396" type="curve" smooth="yes"/>
      <point x="256" y="443"/>
      <point x="220" y="486"/>
      <point x="163" y="486" type="curve" smooth="yes"/>
      <point x="83" y="486"/>
      <point x="30" y="417"/>
      <point x="30" y="344" type="curve" smooth="yes"/>
      <point x="30" y="228"/>
      <point x="136" y="121"/>
      <point x="246" y="121" type="curve" smooth="yes"/>
      <point x="323" y="121"/>
      <point x="348" y="160"/>
      <point x="377" y="206" type="curve"/>
      <point x="347" y="182" type="line"/>
      <point x="336" y="160"/>
      <point x="329" y="130"/>
      <point x="329" y="100" type="curve" smooth="yes"/>
      <point x="329" y="46"/>
      <point x="353" y="-7"/>
      <point x="426" y="-7" type="curve" smooth="yes"/>
      <point x="437" y="-7"/>
      <point x="453" y="-6"/>
      <point x="468" y="0" type="curve"/>
      <point x="457" y="18"/>
      <point x="453" y="69"/>
      <point x="453" y="105" type="curve" smooth="yes"/>
      <point x="453" y="181"/>
      <point x="456" y="262"/>
      <point x="457" y="343" type="curve"/>
      <point x="437" y="250" type="line"/>
      <point x="466" y="310"/>
      <point x="514" y="374"/>
      <point x="578" y="374" type="curve" smooth="yes"/>
      <point x="612" y="374"/>
      <point x="642" y="349"/>
      <point x="642" y="311" type="curve" smooth="yes"/>
      <point x="642" y="261"/>
      <point x="604" y="225"/>
      <point x="553" y="214" type="curve" smooth="yes"/>
      <point x="543" y="212"/>
      <point x="532" y="211"/>
      <point x="521" y="211" type="curve"/>
      <point x="520" y="206"/>
      <point x="520" y="202"/>
      <point x="520" y="200" type="curve" smooth="yes"/>
      <point x="520" y="153"/>
      <point x="556" y="110"/>
      <point x="613" y="110" type="curve" smooth="yes"/>
      <point x="693" y="110"/>
      <point x="746" y="179"/>
      <point x="746" y="252" type="curve" smooth="yes"/>
      <point x="746" y="369"/>
      <point x="636" y="476"/>
      <point x="532" y="476" type="curve" smooth="yes"/>
      <point x="456" y="476"/>
      <point x="423" y="421"/>
      <point x="410" y="398" type="curve"/>
      <point x="441" y="420" type="line"/>
      <point x="445" y="435"/>
      <point x="449" y="454"/>
      <point x="449" y="474" type="curve" smooth="yes"/>
      <point x="449" y="521"/>
      <point x="430" y="570"/>
      <point x="364" y="570" type="curve" smooth="yes"/>
      <point x="339" y="570"/>
      <point x="321" y="563"/>
      <point x="310" y="552" type="curve"/>
      <point x="325" y="529"/>
      <point x="325" y="485"/>
      <point x="325" y="448" type="curve" smooth="yes"/>
      <point x="325" y="331"/>
      <point x="322" y="262"/>
      <point x="321" y="201" type="curve"/>
    </contour>
    <contour>
      <point x="-75" y="669" type="line"/>
      <point x="-78" y="663"/>
      <point x="-80" y="650"/>
      <point x="-80" y="642" type="curve" smooth="yes"/>
      <point x="-80" y="552"/>
      <point x="10" y="552"/>
      <point x="46" y="552" type="curve" smooth="yes"/>
      <point x="827" y="552" type="line"/>
      <point x="830" y="558"/>
      <point x="834" y="572"/>
      <point x="834" y="584" type="curve" smooth="yes"/>
      <point x="834" y="669"/>
      <point x="744" y="669"/>
      <point x="708" y="669" type="curve" smooth="yes"/>
    </contour>
  </outline>
</glyph>
<glyph name="dvGHA" format="1">
  <advance width="631"/>
  <unicode hex="0918"/>
  <outline>
    <contour>
      <point x="430" y="312" type="line"/>
      <point x="402" y="248"/>
      <point x="329" y="198"/>
      <point x="253" y="198" type="curve" smooth="yes"/>
      <point x="214" y="198"/>
      <point x="180" y="219"/>
      <point x="180" y="255" type="curve" smooth="yes"/>
      <point x="180" y="302"/>
      <point x="223" y="326"/>
      <point x="258" y="329" type="curve"/>
      <point x="202" y="349"/>
      <point x="152" y="391"/>
      <point x="152" y="446" type="curve" smooth="yes"/>
      <point x="152" y="522"/>
      <point x="206" y="552"/>
      <point x="233" y="561" type="curve"/>
      <point x="183" y="552" type="line"/>
      <point x="687" y="552" type="line"/>
      <point x="690" y="558"/>
      <point x="694" y="572"/>
      <point x="694" y="584" type="curve" smooth="yes"/>
      <point x="694" y="669"/>
      <point x="604" y="669"/>
      <point x="568" y="669" type="curve" smooth="yes"/>
      <point x="-78" y="669" type="line"/>
      <point x="-81" y="663"/>
      <point x="-83" y="650"/>
      <point x="-83" y="642" type="curve" smooth="yes"/>
      <point x="-83" y="571"/>
      <point x="-25" y="553"/>
      <point x="26" y="553" type="curve" smooth="yes"/>
      <point x="40" y="553"/>
      <point x="52" y="554"/>
      <point x="64" y="556" type="curve"/>
      <point x="62" y="571" type="line"/>
      <point x="47" y="546"/>
      <point x="41" y="520"/>
      <point x="41" y="495" type="curve" smooth="yes"/>
      <point x="41" y="395"/>
      <point x="146" y="308"/>
      <point x="249" y="308" type="curve" smooth="yes"/>
      <point x="290" y="308"/>
      <point x="331" y="330"/>
      <point x="331" y="368" type="curve" smooth="yes"/>
      <point x="331" y="413"/>
      <point x="285" y="443"/>
      <point x="231" y="443" type="curve" smooth="yes"/>
      <point x="150" y="443"/>
      <point x="69" y="384"/>
      <point x="69" y="293" type="curve" smooth="yes"/>
      <point x="69" y="206"/>
      <point x="171" y="104"/>
      <point x="303" y="104" type="curve" smooth="yes"/>
      <point x="404" y="104"/>
      <point x="470" y="161"/>
      <point x="504" y="245" type="curve"/>
      <point x="447" y="178" type="line"/>
      <point x="436" y="146"/>
      <point x="430" y="118"/>
      <point x="430" y="94" type="curve" smooth="yes"/>
      <point x="430" y="28"/>
      <point x="470" y="-7"/>
      <point x="527" y="-7" type="curve" smooth="yes"/>
      <point x="538" y="-7"/>
      <point x="554" y="-6"/>
      <point x="569" y="0" type="curve"/>
      <point x="558" y="18"/>
      <point x="554" y="69"/>
      <point x="554" y="105" type="curve" smooth="yes"/>
      <point x="554" y="208"/>
      <point x="559" y="322"/>
      <point x="559" y="431" type="curve" smooth="yes"/>
      <point x="559" y="483"/>
      <point x="556" y="570"/>
      <point x="456" y="570" type="curve" smooth="yes"/>
      <point x="438" y="570"/>
      <point x="421" y="564"/>
      <point x="411" y="552" type="curve"/>
      <point x="426" y="529"/>
      <point x="426" y="485"/>
      <point x="426" y="448" type="curve" smooth="yes"/>
      <point x="426" y="362"/>
      <point x="424" y="302"/>
      <point x="423" y="252" type="curve"/>
    </contour>
  </outline>
</glyph>
<glyph name="dvCHA" format="1">
  <advance width="697"/>
  <unicode hex="091B"/>
  <outline>
    <contour>
      <point x="462" y="-85" type="move" name="blwm.r"/>
    </contour>
    <contour>
      <point x="259" y="669" type="move" name="abvm.bindu"/>
    </contour>
    <contour>
      <point x="407" y="22" type="move" name="blwm.virama"/>
    </contour>
    <contour>
      <point x="559" y="669" type="move" name="abvm.e"/>
    </contour>
    <contour>
      <point x="444" y="-48" type="move" name="blwm.u"/>
    </contour>
    <contour>
      <point x="362" y="-48" type="move" name="blwm.uu"/>
    </contour>
    <contour>
      <point x="559" y="451" type="line"/>
      <point x="559" y="503"/>
      <point x="549" y="570"/>
      <point x="469" y="570" type="curve" smooth="yes"/>
      <point x="454" y="570"/>
      <point x="440" y="564"/>
      <point x="430" y="552" type="curve"/>
      <point x="445" y="534"/>
      <point x="449" y="503"/>
      <point x="449" y="472" type="curve"/>
    </contour>
    <contour>
      <point x="172" y="552" type="line"/>
      <point x="750" y="552" type="line"/>
      <point x="753" y="558"/>
      <point x="757" y="572"/>
      <point x="757" y="584" type="curve" smooth="yes"/>
      <point x="757" y="669"/>
      <point x="667" y="669"/>
      <point x="631" y="669" type="curve" smooth="yes"/>
      <point x="-65" y="669" type="line"/>
      <point x="-68" y="663"/>
      <point x="-70" y="650"/>
      <point x="-70" y="642" type="curve" smooth="yes"/>
      <point x="-70" y="571"/>
      <point x="-12" y="553"/>
      <point x="39" y="553" type="curve" smooth="yes"/>
      <point x="53" y="553"/>
      <point x="65" y="554"/>
      <point x="77" y="556" type="curve"/>
      <point x="75" y="571" type="line"/>
      <point x="59" y="544"/>
      <point x="52" y="515"/>
      <point x="52" y="486" type="curve" smooth="yes"/>
      <point x="52" y="382"/>
      <point x="145" y="281"/>
      <point x="252" y="281" type="curve" smooth="yes"/>
      <point x="294" y="281"/>
      <point x="335" y="303"/>
      <point x="335" y="344" type="curve" smooth="yes"/>
      <point x="335" y="387"/>
      <point x="291" y="416"/>
      <point x="238" y="416" type="curve" smooth="yes"/>
      <point x="138" y="416"/>
      <point x="57" y="354"/>
      <point x="57" y="265" type="curve" smooth="yes"/>
      <point x="57" y="124"/>
      <point x="212" y="22"/>
      <point x="362" y="22" type="curve" smooth="yes"/>
      <point x="532" y="22"/>
      <point x="652" y="127"/>
      <point x="652" y="295" type="curve" smooth="yes"/>
      <point x="652" y="402"/>
      <point x="590" y="504"/>
      <point x="491" y="504" type="curve" smooth="yes"/>
      <point x="421" y="504"/>
      <point x="386" y="434"/>
      <point x="386" y="376" type="curve" smooth="yes"/>
      <point x="386" y="305"/>
      <point x="429" y="246"/>
      <point x="467" y="246" type="curve" smooth="yes"/>
      <point x="476" y="246"/>
      <point x="484" y="251"/>
      <point x="487" y="256" type="curve"/>
      <point x="487" y="256"/>
      <point x="477" y="267"/>
      <point x="477" y="304" type="curve" smooth="yes"/>
      <point x="477" y="338"/>
      <point x="491" y="392"/>
      <point x="528" y="392" type="curve" smooth="yes"/>
      <point x="554" y="392"/>
      <point x="559" y="363"/>
      <point x="559" y="343" type="curve" smooth="yes"/>
      <point x="559" y="201"/>
      <point x="418" y="126"/>
      <point x="302" y="126" type="curve" smooth="yes"/>
      <point x="224" y="126"/>
      <point x="163" y="163"/>
      <point x="163" y="221" type="curve" smooth="yes"/>
      <point x="163" y="278"/>
      <point x="219" y="304"/>
      <point x="263" y="311" type="curve"/>
      <point x="198" y="328"/>
      <point x="161" y="386"/>
      <point x="161" y="444" type="curve" smooth="yes"/>
      <point x="161" y="492"/>
      <point x="187" y="540"/>
      <point x="246" y="561" type="curve"/>
    </contour>
  </outline>
</glyph>
<glyph name="dvJA" format="1">
  <advance width="725"/>
  <unicode hex="091C"/>
  <outline>
    <contour>
      <point x="-60" y="669" type="line"/>
      <point x="-63" y="663"/>
      <point x="-65" y="650"/>
      <point x="-65" y="642" type="curve" smooth="yes"/>
      <point x="-65" y="552"/>
      <point x="25" y="552"/>
      <point x="61" y="552" type="curve" smooth="yes"/>
      <point x="781" y="552" type="line"/>
      <point x="784" y="558"/>
      <point x="788" y="572"/>
      <point x="788" y="584" type="curve" smooth="yes"/>
      <point x="788" y="669"/>
      <point x="698" y="669"/>
      <point x="662" y="669" type="curve" smooth="yes"/>
    </contour>
    <contour>
      <point x="521" y="440" type="curve" smooth="yes"/>
      <point x="521" y="290"/>
      <point x="516" y="221"/>
      <point x="516" y="145" type="curve" smooth="yes"/>
      <point x="516" y="102"/>
      <point x="518" y="-7"/>
      <point x="622" y="-7" type="curve" smooth="yes"/>
      <point x="633" y="-7"/>
      <point x="649" y="-6"/>
      <point x="664" y="0" type="curve"/>
      <point x="653" y="18"/>
      <point x="649" y="69"/>
      <point x="649" y="105" type="curve" smooth="yes"/>
      <point x="649" y="208"/>
      <point x="654" y="322"/>
      <point x="654" y="431" type="curve" smooth="yes"/>
      <point x="654" y="483"/>
      <point x="651" y="570"/>
      <point x="551" y="570" type="curve" smooth="yes"/>
      <point x="533" y="570"/>
      <point x="516" y="564"/>
      <point x="506" y="552" type="curve"/>
      <point x="521" y="527"/>
      <point x="521" y="479"/>
    </contour>
    <contour>
      <point x="557" y="452" type="line"/>
      <point x="200" y="452" type="line"/>
      <point x="197" y="446"/>
      <point x="195" y="433"/>
      <point x="195" y="425" type="curve" smooth="yes"/>
      <point x="195" y="335"/>
      <point x="285" y="335"/>
      <point x="321" y="335" type="curve" smooth="yes"/>
      <point x="557" y="335" type="line"/>
    </contour>
    <contour>
      <point x="282" y="338" type="line"/>
      <point x="299" y="318"/>
      <point x="309" y="295"/>
      <point x="309" y="274" type="curve" smooth="yes"/>
      <point x="309" y="242"/>
      <point x="292" y="214"/>
      <point x="249" y="214" type="curve" smooth="yes"/>
      <point x="199" y="214"/>
      <point x="121" y="275"/>
      <point x="59" y="450" type="curve"/>
      <point x="39" y="449"/>
      <point x="13" y="438"/>
      <point x="13" y="399" type="curve" smooth="yes"/>
      <point x="13" y="329"/>
      <point x="128" y="92"/>
      <point x="297" y="92" type="curve" smooth="yes"/>
      <point x="364" y="92"/>
      <point x="414" y="135"/>
      <point x="414" y="208" type="curve" smooth="yes"/>
      <point x="414" y="285"/>
      <point x="358" y="338"/>
      <point x="358" y="338" type="curve"/>
    </contour>
  </outline>
</glyph>
<glyph name="dvNYA" format="1">
  <advance width="746"/>
  <unicode hex="091E"/>
  <outline>
    <contour>
      <point x="-78" y="669" type="line"/>
      <point x="-81" y="663"/>
      <point x="-83" y="650"/>
      <point x="-83" y="642" type="curve" smooth="yes"/>
      <point x="-83" y="552"/>
      <point x="7" y="552"/>
      <point x="43" y="552" type="curve" smooth="yes"/>
      <point x="802" y="552" type="line"/>
      <point x="805" y="558"/>
      <point x="809" y="572"/>
      <point x="809" y="584" type="curve" smooth="yes"/>
      <point x="809" y="669"/>
      <point x="719" y="669"/>
      <point x="683" y="669" type="curve" smooth="yes"/>
    </contour>
    <contour>
      <point x="538" y="440" type="curve" smooth="yes"/>
      <point x="538" y="290"/>
      <point x="533" y="221"/>
      <point x="533" y="145" type="curve" smooth="yes"/>
      <point x="533" y="102"/>
      <point x="535" y="-7"/>
      <point x="639" y="-7" type="curve" smooth="yes"/>
      <point x="650" y="-7"/>
      <point x="666" y="-6"/>
      <point x="681" y="0" type="curve"/>
      <point x="670" y="18"/>
      <point x="666" y="69"/>
      <point x="666" y="105" type="curve" smooth="yes"/>
      <point x="666" y="208"/>
      <point x="671" y="322"/>
      <point x="671" y="431" type="curve" smooth="yes"/>
      <point x="671" y="483"/>
      <point x="668" y="570"/>
      <point x="568" y="570" type="curve" smooth="yes"/>
      <point x="550" y="570"/>
      <point x="533" y="564"/>
      <point x="523" y="552" type="curve"/>
      <point x="538" y="527"/>
      <point x="538" y="479"/>
    </contour>
    <contour>
      <point x="452" y="334" type="curve" smooth="yes"/>
      <point x="443" y="334"/>
      <point x="434" y="335"/>
      <point x="425" y="337" type="curve"/>
      <point x="445" y="254" type="line"/>
      <point x="456" y="249"/>
      <point x="476" y="242"/>
      <point x="497" y="237" type="curve" smooth="yes"/>
      <point x="515" y="233"/>
      <point x="535" y="230"/>
      <point x="551" y="230" type="curve"/>
      <point x="551" y="365" type="line"/>
      <point x="536" y="352"/>
      <point x="493" y="334"/>
    </contour>
    <contour>
      <point x="46" y="453" type="curve"/>
      <point x="26" y="452"/>
      <point x="0" y="440"/>
      <point x="0" y="402" type="curve" smooth="yes"/>
      <point x="0" y="331"/>
      <point x="110" y="104"/>
      <point x="300" y="104" type="curve" smooth="yes"/>
      <point x="389" y="104"/>
      <point x="457" y="158"/>
      <point x="457" y="250" type="curve" smooth="yes"/>
      <point x="457" y="371"/>
      <point x="365" y="482"/>
      <point x="267" y="482" type="curve" smooth="yes"/>
      <point x="210" y="482"/>
      <point x="180" y="443"/>
      <point x="180" y="403" type="curve" smooth="yes"/>
      <point x="180" y="362"/>
      <point x="212" y="326"/>
      <point x="246" y="316" type="curve"/>
      <point x="257" y="340"/>
      <point x="283" y="362"/>
      <point x="312" y="362" type="curve" smooth="yes"/>
      <point x="344" y="362"/>
      <point x="363" y="338"/>
      <point x="363" y="310" type="curve" smooth="yes"/>
      <point x="363" y="269"/>
      <point x="326" y="225"/>
      <point x="261" y="225" type="curve" smooth="yes"/>
      <point x="144" y="225"/>
      <point x="78" y="364"/>
    </contour>
  </outline>
</glyph>
<glyph name="dvTTHA" format="1">
  <advance width="520"/>
  <unicode hex="0920"/>
  <outline>
    <contour>
      <point x="373" y="-68" type="move" name="blwm.r"/>
    </contour>
    <contour>
      <point x="205" y="669" type="move" name="abvm.bindu"/>
    </contour>
    <contour>
      <point x="346" y="39" type="move" name="blwm.virama"/>
    </contour>
    <contour>
      <point x="353" y="669" type="move" name="abvm.e"/>
    </contour>
    <contour>
      <point x="355" y="-31" type="move" name="blwm.u"/>
    </contour>
    <contour>
      <point x="309" y="-31" type="move" name="blwm.uu"/>
    </contour>
    <contour>
      <point x="-65" y="669" type="line"/>
      <point x="-68" y="663"/>
      <point x="-70" y="650"/>
      <point x="-70" y="642" type="curve" smooth="yes"/>
      <point x="-70" y="552"/>
      <point x="20" y="552"/>
      <point x="56" y="552" type="curve" smooth="yes"/>
      <point x="578" y="552" type="line"/>
      <point x="581" y="558"/>
      <point x="585" y="572"/>
      <point x="585" y="584" type="curve" smooth="yes"/>
      <point x="585" y="669"/>
      <point x="495" y="669"/>
      <point x="459" y="669" type="curve" smooth="yes"/>
    </contour>
    <contour>
      <point x="254" y="359" type="line"/>
      <point x="321" y="355"/>
      <point x="375" y="313"/>
      <point x="375" y="254" type="curve" smooth="yes"/>
      <point x="375" y="198"/>
      <point x="316" y="137"/>
      <point x="234" y="137" type="curve" smooth="yes"/>
      <point x="189" y="137"/>
      <point x="138" y="161"/>
      <point x="138" y="221" type="curve" smooth="yes"/>
      <point x="138" y="361"/>
      <point x="384" y="356"/>
      <point x="384" y="477" type="curve" smooth="yes"/>
      <point x="384" y="518"/>
      <point x="350" y="548"/>
      <point x="322" y="566" type="curve"/>
      <point x="252" y="554" type="line"/>
      <point x="260" y="545"/>
      <point x="264" y="534"/>
      <point x="264" y="523" type="curve" smooth="yes"/>
      <point x="264" y="448"/>
      <point x="27" y="450"/>
      <point x="27" y="267" type="curve" smooth="yes"/>
      <point x="27" y="151"/>
      <point x="164" y="39"/>
      <point x="286" y="39" type="curve" smooth="yes"/>
      <point x="399" y="39"/>
      <point x="500" y="106"/>
      <point x="500" y="226" type="curve" smooth="yes"/>
      <point x="500" y="308"/>
      <point x="439" y="399"/>
      <point x="325" y="399" type="curve"/>
    </contour>
  </outline>
</glyph>
<glyph name="dvNNA" format="1">
  <advance width="762"/>
  <unicode hex="0923"/>
  <outline>
    <contour>
      <point x="-78" y="669" type="line"/>
      <point x="-81" y="663"/>
      <point x="-83" y="650"/>
      <point x="-83" y="642" type="curve" smooth="yes"/>
      <point x="-83" y="552"/>
      <point x="7" y="552"/>
      <point x="43" y="552" type="curve" smooth="yes"/>
      <point x="818" y="552" type="line"/>
      <point x="821" y="558"/>
      <point x="825" y="572"/>
      <point x="825" y="584" type="curve" smooth="yes"/>
      <point x="825" y="669"/>
      <point x="735" y="669"/>
      <point x="699" y="669" type="curve" smooth="yes"/>
    </contour>
    <contour>
      <point x="557" y="448" type="curve" smooth="yes"/>
      <point x="557" y="294"/>
      <point x="552" y="223"/>
      <point x="552" y="145" type="curve" smooth="yes"/>
      <point x="552" y="102"/>
      <point x="554" y="-7"/>
      <point x="658" y="-7" type="curve" smooth="yes"/>
      <point x="669" y="-7"/>
      <point x="685" y="-6"/>
      <point x="700" y="0" type="curve"/>
      <point x="689" y="18"/>
      <point x="685" y="69"/>
      <point x="685" y="105" type="curve" smooth="yes"/>
      <point x="685" y="208"/>
      <point x="690" y="322"/>
      <point x="690" y="431" type="curve" smooth="yes"/>
      <point x="690" y="483"/>
      <point x="687" y="570"/>
      <point x="587" y="570" type="curve" smooth="yes"/>
      <point x="569" y="570"/>
      <point x="552" y="564"/>
      <point x="542" y="552" type="curve"/>
      <point x="557" y="529"/>
      <point x="557" y="485"/>
    </contour>
    <contour>
      <point x="294" y="554" type="line"/>
      <point x="301" y="547"/>
      <point x="312" y="499"/>
      <point x="312" y="435" type="curve" smooth="yes"/>
      <point x="312" y="340"/>
      <point x="297" y="273"/>
      <point x="243" y="273" type="curve" smooth="yes"/>
      <point x="202" y="273"/>
      <point x="187" y="306"/>
      <point x="181" y="351" type="curve" smooth="yes"/>
      <point x="178" y="375"/>
      <point x="178" y="403"/>
      <point x="178" y="431" type="curve" smooth="yes"/>
      <point x="178" y="483"/>
      <point x="175" y="570"/>
      <point x="75" y="570" type="curve" smooth="yes"/>
      <point x="57" y="570"/>
      <point x="40" y="564"/>
      <point x="30" y="552" type="curve"/>
      <point x="45" y="529"/>
      <point x="45" y="485"/>
      <point x="45" y="448" type="curve" smooth="yes"/>
      <point x="45" y="416"/>
      <point x="48" y="382"/>
      <point x="49" y="374" type="curve" smooth="yes"/>
      <point x="64" y="263"/>
      <point x="203" y="178"/>
      <point x="296" y="178" type="curve" smooth="yes"/>
      <point x="400" y="178"/>
      <point x="443" y="263"/>
      <point x="443" y="344" type="curve" smooth="yes"/>
      <point x="443" y="473"/>
      <point x="376" y="550"/>
      <point x="361" y="561" type="curve"/>
    </contour>
  </outline>
</glyph>
<glyph name="dvTHA" format="1">
  <advance width="640"/>
  <unicode hex="0925"/>
  <outline>
    <contour>
      <point x="371" y="669" type="line"/>
      <point x="368" y="663"/>
      <point x="366" y="650"/>
      <point x="366" y="642" type="curve" smooth="yes"/>
      <point x="366" y="613"/>
      <point x="377" y="592"/>
      <point x="398" y="571" type="curve" smooth="yes"/>
      <point x="428" y="543"/>
      <point x="435" y="536"/>
      <point x="435" y="447" type="curve" smooth="yes"/>
      <point x="435" y="391"/>
      <point x="434" y="349"/>
      <point x="433" y="311" type="curve"/>
      <point x="439" y="343" type="line"/>
      <point x="401" y="267"/>
      <point x="289" y="236"/>
      <point x="219" y="236" type="curve" smooth="yes"/>
      <point x="191" y="236"/>
      <point x="170" y="244"/>
      <point x="170" y="259" type="curve" smooth="yes"/>
      <point x="170" y="298"/>
      <point x="349" y="321"/>
      <point x="349" y="471" type="curve" smooth="yes"/>
      <point x="349" y="586"/>
      <point x="257" y="677"/>
      <point x="170" y="677" type="curve" smooth="yes"/>
      <point x="98" y="677"/>
      <point x="47" y="626"/>
      <point x="47" y="561" type="curve" smooth="yes"/>
      <point x="47" y="503"/>
      <point x="83" y="448"/>
      <point x="140" y="448" type="curve" smooth="yes"/>
      <point x="149" y="448"/>
      <point x="157" y="450"/>
      <point x="161" y="452" type="curve"/>
      <point x="154" y="464"/>
      <point x="151" y="479"/>
      <point x="151" y="495" type="curve" smooth="yes"/>
      <point x="151" y="532"/>
      <point x="174" y="572"/>
      <point x="211" y="572" type="curve" smooth="yes"/>
      <point x="241" y="572"/>
      <point x="253" y="548"/>
      <point x="253" y="527" type="curve" smooth="yes"/>
      <point x="253" y="416"/>
      <point x="40" y="395"/>
      <point x="40" y="319" type="curve" smooth="yes"/>
      <point x="40" y="247"/>
      <point x="169" y="125"/>
      <point x="295" y="125" type="curve" smooth="yes"/>
      <point x="456" y="125"/>
      <point x="514" y="237"/>
      <point x="536" y="284" type="curve"/>
      <point x="458" y="204" type="line"/>
      <point x="449" y="179"/>
      <point x="441" y="144"/>
      <point x="441" y="110" type="curve" smooth="yes"/>
      <point x="441" y="50"/>
      <point x="464" y="-7"/>
      <point x="536" y="-7" type="curve" smooth="yes"/>
      <point x="547" y="-7"/>
      <point x="563" y="-6"/>
      <point x="578" y="0" type="curve"/>
      <point x="567" y="18"/>
      <point x="563" y="69"/>
      <point x="563" y="105" type="curve" smooth="yes"/>
      <point x="563" y="208"/>
      <point x="568" y="322"/>
      <point x="568" y="431" type="curve" smooth="yes"/>
      <point x="568" y="483"/>
      <point x="564" y="570"/>
      <point x="464" y="570" type="curve"/>
      <point x="492" y="552" type="line"/>
      <point x="696" y="552" type="line"/>
      <point x="699" y="558"/>
      <point x="703" y="572"/>
      <point x="703" y="584" type="curve" smooth="yes"/>
      <point x="703" y="669"/>
      <point x="613" y="669"/>
      <point x="577" y="669" type="curve" smooth="yes"/>
    </contour>
  </outline>
</glyph>
<glyph name="dvPA" format="1">
  <advance width="572"/>
  <unicode hex="092A"/>
  <outline>
    <contour>
      <point x="38" y="552" type="curve"/>
      <point x="45" y="541"/>
      <point x="49" y="530"/>
      <point x="51" y="508" type="curve" smooth="yes"/>
      <point x="53" y="483"/>
      <point x="53" y="445"/>
      <point x="53" y="379" type="curve" smooth="yes"/>
      <point x="53" y="285"/>
      <point x="181" y="161"/>
      <point x="297" y="161" type="curve" smooth="yes"/>
      <point x="353" y="161"/>
      <point x="397" y="193"/>
      <point x="409" y="205" type="curve"/>
      <point x="380" y="205" type="line"/>
      <point x="370" y="182"/>
      <point x="363" y="150"/>
      <point x="363" y="118" type="curve" smooth="yes"/>
      <point x="363" y="56"/>
      <point x="389" y="-7"/>
      <point x="467" y="-7" type="curve" smooth="yes"/>
      <point x="478" y="-7"/>
      <point x="494" y="-6"/>
      <point x="509" y="0" type="curve"/>
      <point x="498" y="18"/>
      <point x="494" y="69"/>
      <point x="494" y="105" type="curve" smooth="yes"/>
      <point x="494" y="208"/>
      <point x="499" y="322"/>
      <point x="499" y="431" type="curve" smooth="yes"/>
      <point x="499" y="483"/>
      <point x="496" y="570"/>
      <point x="396" y="570" type="curve" smooth="yes"/>
      <point x="378" y="570"/>
      <point x="361" y="564"/>
      <point x="351" y="552" type="curve"/>
      <point x="366" y="529"/>
      <point x="366" y="485"/>
      <point x="366" y="448" type="curve" smooth="yes"/>
      <point x="366" y="398"/>
      <point x="366" y="357"/>
      <point x="365" y="321" type="curve"/>
      <point x="370" y="356" type="line"/>
      <point x="351" y="305"/>
      <point x="296" y="259"/>
      <point x="250" y="259" type="curve" smooth="yes"/>
      <point x="193" y="259"/>
      <point x="182" y="295"/>
      <point x="182" y="350" type="curve" smooth="yes"/>
      <point x="182" y="374"/>
      <point x="184" y="402"/>
      <point x="184" y="431" type="curve" smooth="yes"/>
      <point x="184" y="483"/>
      <point x="183" y="570"/>
      <point x="83" y="570" type="curve" smooth="yes"/>
      <point x="65" y="570"/>
      <point x="48" y="564"/>
    </contour>
    <contour>
      <point x="-70" y="669" type="line"/>
      <point x="-73" y="663"/>
      <point x="-75" y="650"/>
      <point x="-75" y="642" type="curve" smooth="yes"/>
      <point x="-75" y="552"/>
      <point x="15" y="552"/>
      <point x="51" y="552" type="curve" smooth="yes"/>
      <point x="628" y="552" type="line"/>
      <point x="631" y="558"/>
      <point x="635" y="572"/>
      <point x="635" y="584" type="curve" smooth="yes"/>
      <point x="635" y="669"/>
      <point x="545" y="669"/>
      <point x="509" y="669" type="curve" smooth="yes"/>
    </contour>
  </outline>
</glyph>
<glyph name="dvPHA" format="1">
  <advance width="789"/>
  <unicode hex="092B"/>
  <outline>
    <contour>
      <point x="473" y="-1" type="move" name="blwm.u"/>
    </contour>
    <contour>
      <point x="473" y="0" type="move" name="blwm.r"/>
    </contour>
    <contour>
      <point x="453" y="669" type="move" name="abvm.e"/>
    </contour>
    <contour>
      <point x="473" y="-14" type="move" name="blwm.uu"/>
    </contour>
    <contour>
      <point x="315" y="669" type="move" name="abvm.bindu"/>
    </contour>
    <contour>
      <point x="473" y="0" type="move" name="blwm.virama"/>
    </contour>
    <contour>
      <point x="-70" y="669" type="line"/>
      <point x="-73" y="663"/>
      <point x="-75" y="650"/>
      <point x="-75" y="642" type="curve" smooth="yes"/>
      <point x="-75" y="552"/>
      <point x="15" y="552"/>
      <point x="51" y="552" type="curve" smooth="yes"/>
      <point x="832" y="552" type="line"/>
      <point x="835" y="558"/>
      <point x="839" y="572"/>
      <point x="839" y="584" type="curve" smooth="yes"/>
      <point x="839" y="669"/>
      <point x="749" y="669"/>
      <point x="713" y="669" type="curve" smooth="yes"/>
    </contour>
    <contour>
      <point x="583" y="374" type="curve" smooth="yes"/>
      <point x="617" y="374"/>
      <point x="647" y="349"/>
      <point x="647" y="311" type="curve" smooth="yes"/>
      <point x="647" y="263"/>
      <point x="612" y="228"/>
      <point x="565" y="216" type="curve" smooth="yes"/>
      <point x="553" y="213"/>
      <point x="539" y="211"/>
      <point x="526" y="211" type="curve"/>
      <point x="525" y="206"/>
      <point x="525" y="202"/>
      <point x="525" y="200" type="curve" smooth="yes"/>
      <point x="525" y="153"/>
      <point x="561" y="110"/>
      <point x="618" y="110" type="curve" smooth="yes"/>
      <point x="698" y="110"/>
      <point x="751" y="179"/>
      <point x="751" y="252" type="curve" smooth="yes"/>
      <point x="751" y="369"/>
      <point x="645" y="476"/>
      <point x="537" y="476" type="curve" smooth="yes"/>
      <point x="461" y="476"/>
      <point x="428" y="421"/>
      <point x="415" y="398" type="curve"/>
      <point x="446" y="420" type="line"/>
      <point x="450" y="435"/>
      <point x="453" y="454"/>
      <point x="453" y="473" type="curve" smooth="yes"/>
      <point x="453" y="520"/>
      <point x="434" y="570"/>
      <point x="369" y="570" type="curve" smooth="yes"/>
      <point x="344" y="570"/>
      <point x="326" y="563"/>
      <point x="315" y="552" type="curve"/>
      <point x="330" y="529"/>
      <point x="330" y="485"/>
      <point x="330" y="448" type="curve" smooth="yes"/>
      <point x="330" y="378"/>
      <point x="329" y="324"/>
      <point x="328" y="280" type="curve"/>
      <point x="365" y="376" type="line" smooth="yes"/>
      <point x="346" y="325"/>
      <point x="291" y="279"/>
      <point x="245" y="279" type="curve" smooth="yes"/>
      <point x="188" y="279"/>
      <point x="177" y="315"/>
      <point x="177" y="370" type="curve" smooth="yes"/>
      <point x="177" y="388"/>
      <point x="179" y="409"/>
      <point x="179" y="431" type="curve" smooth="yes"/>
      <point x="179" y="483"/>
      <point x="178" y="570"/>
      <point x="78" y="570" type="curve" smooth="yes"/>
      <point x="60" y="570"/>
      <point x="43" y="564"/>
      <point x="33" y="552" type="curve"/>
      <point x="42" y="539"/>
      <point x="46" y="525"/>
      <point x="47" y="490" type="curve" smooth="yes"/>
      <point x="48" y="468"/>
      <point x="48" y="437"/>
      <point x="48" y="393" type="curve" smooth="yes"/>
      <point x="48" y="298"/>
      <point x="167" y="181"/>
      <point x="292" y="181" type="curve" smooth="yes"/>
      <point x="348" y="181"/>
      <point x="392" y="212"/>
      <point x="404" y="225" type="curve"/>
      <point x="338" y="198" type="line"/>
      <point x="330" y="176"/>
      <point x="326" y="150"/>
      <point x="326" y="123" type="curve" smooth="yes"/>
      <point x="326" y="58"/>
      <point x="353" y="-7"/>
      <point x="431" y="-7" type="curve" smooth="yes"/>
      <point x="442" y="-7"/>
      <point x="458" y="-6"/>
      <point x="473" y="0" type="curve"/>
      <point x="462" y="18"/>
      <point x="458" y="69"/>
      <point x="458" y="105" type="curve" smooth="yes"/>
      <point x="458" y="181"/>
      <point x="461" y="262"/>
      <point x="462" y="343" type="curve"/>
      <point x="442" y="250" type="line"/>
      <point x="471" y="310"/>
      <point x="519" y="374"/>
    </contour>
  </outline>
</glyph>
<glyph name="dvBA" format="1">
  <advance width="604"/>
  <unicode hex="092C"/>
  <outline>
    <contour>
      <point x="-75" y="669" type="line"/>
      <point x="-78" y="663"/>
      <point x="-80" y="650"/>
      <point x="-80" y="642" type="curve" smooth="yes"/>
      <point x="-80" y="552"/>
      <point x="10" y="552"/>
      <point x="46" y="552" type="curve" smooth="yes"/>
      <point x="660" y="552" type="line"/>
      <point x="663" y="558"/>
      <point x="667" y="572"/>
      <point x="667" y="584" type="curve" smooth="yes"/>
      <point x="667" y="669"/>
      <point x="577" y="669"/>
      <point x="541" y="669" type="curve" smooth="yes"/>
    </contour>
    <contour>
      <point x="542" y="0" type="curve"/>
      <point x="531" y="18"/>
      <point x="527" y="69"/>
      <point x="527" y="105" type="curve" smooth="yes"/>
      <point x="527" y="208"/>
      <point x="532" y="322"/>
      <point x="532" y="431" type="curve" smooth="yes"/>
      <point x="532" y="483"/>
      <point x="529" y="570"/>
      <point x="429" y="570" type="curve" smooth="yes"/>
      <point x="411" y="570"/>
      <point x="394" y="564"/>
      <point x="384" y="552" type="curve"/>
      <point x="399" y="529"/>
      <point x="399" y="485"/>
      <point x="399" y="448" type="curve" smooth="yes"/>
      <point x="399" y="383"/>
      <point x="398" y="332"/>
      <point x="397" y="288" type="curve"/>
      <point x="410" y="353" type="line"/>
      <point x="383" y="275"/>
      <point x="316" y="210"/>
      <point x="225" y="210" type="curve" smooth="yes"/>
      <point x="176" y="210"/>
      <point x="134" y="244"/>
      <point x="134" y="289" type="curve" smooth="yes"/>
      <point x="134" y="341"/>
      <point x="184" y="369"/>
      <point x="237" y="369" type="curve" smooth="yes"/>
      <point x="280" y="369"/>
      <point x="306" y="355"/>
      <point x="316" y="349" type="curve"/>
      <point x="326" y="361"/>
      <point x="331" y="384"/>
      <point x="331" y="401" type="curve" smooth="yes"/>
      <point x="331" y="458"/>
      <point x="269" y="491"/>
      <point x="198" y="491" type="curve" smooth="yes"/>
      <point x="117" y="491"/>
      <point x="29" y="444"/>
      <point x="29" y="342" type="curve" smooth="yes"/>
      <point x="29" y="245"/>
      <point x="142" y="103"/>
      <point x="278" y="103" type="curve" smooth="yes"/>
      <point x="343" y="103"/>
      <point x="405" y="127"/>
      <point x="436" y="171" type="curve"/>
      <point x="423" y="169" type="line"/>
      <point x="409" y="153"/>
      <point x="400" y="127"/>
      <point x="400" y="102" type="curve" smooth="yes"/>
      <point x="400" y="48"/>
      <point x="427" y="-7"/>
      <point x="500" y="-7" type="curve" smooth="yes"/>
      <point x="511" y="-7"/>
      <point x="527" y="-6"/>
    </contour>
    <contour>
      <point x="289" y="188" type="line"/>
      <point x="338" y="227" type="line"/>
      <point x="186" y="413" type="line"/>
      <point x="137" y="374" type="line"/>
    </contour>
  </outline>
</glyph>
<glyph name="dvMA" format="1">
  <advance width="622"/>
  <unicode hex="092E"/>
  <outline>
    <contour>
      <point x="-78" y="669" type="line"/>
      <point x="-81" y="663"/>
      <point x="-83" y="650"/>
      <point x="-83" y="642" type="curve" smooth="yes"/>
      <point x="-83" y="552"/>
      <point x="7" y="552"/>
      <point x="43" y="552" type="curve" smooth="yes"/>
      <point x="678" y="552" type="line"/>
      <point x="681" y="558"/>
      <point x="685" y="572"/>
      <point x="685" y="584" type="curve" smooth="yes"/>
      <point x="685" y="669"/>
      <point x="595" y="669"/>
      <point x="559" y="669" type="curve" smooth="yes"/>
    </contour>
    <contour>
      <point x="417" y="448" type="curve" smooth="yes"/>
      <point x="417" y="294"/>
      <point x="412" y="223"/>
      <point x="412" y="145" type="curve" smooth="yes"/>
      <point x="412" y="102"/>
      <point x="414" y="-7"/>
      <point x="518" y="-7" type="curve" smooth="yes"/>
      <point x="529" y="-7"/>
      <point x="545" y="-6"/>
      <point x="560" y="0" type="curve"/>
      <point x="549" y="18"/>
      <point x="545" y="69"/>
      <point x="545" y="105" type="curve" smooth="yes"/>
      <point x="545" y="208"/>
      <point x="550" y="322"/>
      <point x="550" y="431" type="curve" smooth="yes"/>
      <point x="550" y="483"/>
      <point x="547" y="570"/>
      <point x="447" y="570" type="curve" smooth="yes"/>
      <point x="429" y="570"/>
      <point x="412" y="564"/>
      <point x="402" y="552" type="curve"/>
      <point x="417" y="529"/>
      <point x="417" y="485"/>
    </contour>
    <contour>
      <point x="464" y="374" type="line"/>
      <point x="384" y="385"/>
      <point x="218" y="390"/>
      <point x="144" y="390" type="curve" smooth="yes"/>
      <point x="105" y="390"/>
      <point x="31" y="387"/>
      <point x="31" y="319" type="curve" smooth="yes"/>
      <point x="31" y="260"/>
      <point x="103" y="171"/>
      <point x="172" y="171" type="curve" smooth="yes"/>
      <point x="236" y="171"/>
      <point x="250" y="248"/>
      <point x="250" y="431" type="curve" smooth="yes"/>
      <point x="250" y="483"/>
      <point x="247" y="570"/>
      <point x="147" y="570" type="curve" smooth="yes"/>
      <point x="131" y="570"/>
      <point x="111" y="564"/>
      <point x="101" y="552" type="curve"/>
      <point x="118" y="526"/>
      <point x="118" y="475"/>
      <point x="118" y="433" type="curve" smooth="yes"/>
      <point x="118" y="364"/>
      <point x="111" y="288"/>
      <point x="110" y="268" type="curve"/>
      <point x="456" y="268" type="line"/>
    </contour>
  </outline>
</glyph>
<glyph name="dvRA" format="1">
  <advance width="416"/>
  <unicode hex="0930"/>
  <outline>
    <contour>
      <point x="352" y="-117" type="move" name="blwm.r"/>
    </contour>
    <contour>
      <point x="304" y="669" type="move" name="abvm.e"/>
    </contour>
    <contour>
      <point x="350" y="-10" type="move" name="blwm.virama"/>
    </contour>
    <contour>
      <point x="131" y="669" type="move" name="abvm.bindu"/>
    </contour>
    <contour>
      <point x="165" y="323" type="line"/>
      <point x="150" y="382"/>
      <point x="130" y="431"/>
      <point x="79" y="431" type="curve" smooth="yes"/>
      <point x="36" y="431"/>
      <point x="16" y="394"/>
      <point x="16" y="361" type="curve" smooth="yes"/>
      <point x="16" y="272"/>
      <point x="115" y="216"/>
      <point x="189" y="216" type="curve" smooth="yes"/>
      <point x="292" y="216"/>
      <point x="364" y="287"/>
      <point x="364" y="387" type="curve" smooth="yes"/>
      <point x="364" y="466"/>
      <point x="318" y="539"/>
      <point x="266" y="584" type="curve"/>
      <point x="199" y="557" type="line"/>
      <point x="233" y="537"/>
      <point x="251" y="494"/>
      <point x="251" y="452" type="curve" smooth="yes"/>
      <point x="251" y="398"/>
      <point x="221" y="346"/>
      <point x="155" y="346" type="curve" smooth="yes"/>
      <point x="147" y="346" type="line"/>
    </contour>
    <contour>
      <point x="105" y="260" type="line"/>
      <point x="132" y="163"/>
      <point x="185" y="-10"/>
      <point x="300" y="-10" type="curve" smooth="yes"/>
      <point x="356" y="-10"/>
      <point x="376" y="29"/>
      <point x="376" y="61" type="curve" smooth="yes"/>
      <point x="376" y="78"/>
      <point x="372" y="96"/>
      <point x="366" y="109" type="curve"/>
      <point x="356" y="106"/>
      <point x="344" y="105"/>
      <point x="334" y="105" type="curve" smooth="yes"/>
      <point x="229" y="105"/>
      <point x="200" y="190"/>
      <point x="178" y="274" type="curve"/>
    </contour>
    <contour>
      <point x="-69" y="669" type="line"/>
      <point x="-72" y="663"/>
      <point x="-74" y="650"/>
      <point x="-74" y="642" type="curve" smooth="yes"/>
      <point x="-74" y="552"/>
      <point x="16" y="552"/>
      <point x="52" y="552" type="curve" smooth="yes"/>
      <point x="466" y="552" type="line"/>
      <point x="469" y="558"/>
      <point x="473" y="572"/>
      <point x="473" y="584" type="curve" smooth="yes"/>
      <point x="473" y="669"/>
      <point x="383" y="669"/>
      <point x="347" y="669" type="curve" smooth="yes"/>
    </contour>
  </outline>
</glyph>
<glyph name="dvRxA" format="1">
  <advance width="416"/>
  <unicode hex="0931"/>
  <outline>
    <contour>
      <point x="352" y="-117" type="move" name="blwm.r"/>
    </contour>
    <contour>
      <point x="304" y="669" type="move" name="abvm.e"/>
    </contour>
    <contour>
      <point x="350" y="-10" type="move" name="blwm.virama"/>
    </contour>
    <contour>
      <point x="131" y="669" type="move" name="abvm.bindu"/>
    </contour>
    <component base="dvNukta" xOffset="314" yOffset="136"/>
    <component base="dvRA"/>
  </outline>
</glyph>
<glyph name="dvLA" format="1">
  <advance width="747"/>
  <unicode hex="0932"/>
  <outline>
    <contour>
      <point x="-65" y="669" type="line"/>
      <point x="-68" y="663"/>
      <point x="-70" y="650"/>
      <point x="-70" y="642" type="curve" smooth="yes"/>
      <point x="-70" y="552"/>
      <point x="20" y="552"/>
      <point x="56" y="552" type="curve" smooth="yes"/>
      <point x="803" y="552" type="line"/>
      <point x="806" y="558"/>
      <point x="810" y="572"/>
      <point x="810" y="584" type="curve" smooth="yes"/>
      <point x="810" y="669"/>
      <point x="720" y="669"/>
      <point x="684" y="669" type="curve" smooth="yes"/>
    </contour>
    <contour>
      <point x="544" y="448" type="curve" smooth="yes"/>
      <point x="544" y="294"/>
      <point x="539" y="223"/>
      <point x="539" y="145" type="curve" smooth="yes"/>
      <point x="539" y="102"/>
      <point x="541" y="-7"/>
      <point x="645" y="-7" type="curve" smooth="yes"/>
      <point x="656" y="-7"/>
      <point x="672" y="-6"/>
      <point x="687" y="0" type="curve"/>
      <point x="676" y="18"/>
      <point x="672" y="69"/>
      <point x="672" y="105" type="curve" smooth="yes"/>
      <point x="672" y="208"/>
      <point x="677" y="322"/>
      <point x="677" y="431" type="curve" smooth="yes"/>
      <point x="677" y="483"/>
      <point x="674" y="570"/>
      <point x="574" y="570" type="curve" smooth="yes"/>
      <point x="556" y="570"/>
      <point x="539" y="564"/>
      <point x="529" y="552" type="curve"/>
      <point x="544" y="529"/>
      <point x="544" y="485"/>
    </contour>
    <contour>
      <point x="617" y="350" type="line"/>
      <point x="583" y="414"/>
      <point x="527" y="453"/>
      <point x="463" y="453" type="curve" smooth="yes"/>
      <point x="400" y="453"/>
      <point x="342" y="417"/>
      <point x="310" y="356" type="curve"/>
      <point x="422" y="276" type="line"/>
      <point x="432" y="312"/>
      <point x="468" y="334"/>
      <point x="501" y="334" type="curve" smooth="yes"/>
      <point x="525" y="334"/>
      <point x="551" y="328"/>
      <point x="564" y="321" type="curve"/>
    </contour>
    <contour>
      <point x="255" y="354" type="curve" smooth="yes"/>
      <point x="273" y="354"/>
      <point x="291" y="349"/>
      <point x="304" y="342" type="curve"/>
      <point x="294" y="323"/>
      <point x="279" y="296"/>
      <point x="279" y="248" type="curve" smooth="yes"/>
      <point x="279" y="194"/>
      <point x="310" y="136"/>
      <point x="360" y="136" type="curve" smooth="yes"/>
      <point x="416" y="136"/>
      <point x="432" y="192"/>
      <point x="432" y="229" type="curve" smooth="yes"/>
      <point x="432" y="360"/>
      <point x="308" y="461"/>
      <point x="201" y="461" type="curve" smooth="yes"/>
      <point x="102" y="461"/>
      <point x="39" y="393"/>
      <point x="39" y="291" type="curve" smooth="yes"/>
      <point x="39" y="148"/>
      <point x="169" y="6"/>
      <point x="235" y="6" type="curve" smooth="yes"/>
      <point x="254" y="6"/>
      <point x="266" y="16"/>
      <point x="273" y="29" type="curve"/>
      <point x="212" y="93"/>
      <point x="169" y="171"/>
      <point x="169" y="252" type="curve" smooth="yes"/>
      <point x="169" y="312"/>
      <point x="201" y="354"/>
    </contour>
  </outline>
</glyph>
<glyph name="dvSHA" format="1">
  <advance width="725"/>
  <unicode hex="0936"/>
  <outline>
    <contour>
      <point x="130" y="257" type="line"/>
      <point x="162" y="161"/>
      <point x="227" y="-10"/>
      <point x="358" y="-10" type="curve" smooth="yes"/>
      <point x="414" y="-10"/>
      <point x="434" y="29"/>
      <point x="434" y="61" type="curve" smooth="yes"/>
      <point x="434" y="79"/>
      <point x="430" y="97"/>
      <point x="423" y="111" type="curve"/>
      <point x="406" y="107"/>
      <point x="391" y="106"/>
      <point x="376" y="106" type="curve" smooth="yes"/>
      <point x="275" y="106"/>
      <point x="225" y="188"/>
      <point x="198" y="288" type="curve"/>
    </contour>
    <contour>
      <point x="280" y="562" type="curve" smooth="yes"/>
      <point x="313" y="562"/>
      <point x="330" y="519"/>
      <point x="330" y="480" type="curve" smooth="yes"/>
      <point x="330" y="380"/>
      <point x="265" y="319"/>
      <point x="187" y="318" type="curve"/>
      <point x="174" y="352"/>
      <point x="144" y="411"/>
      <point x="90" y="411" type="curve" smooth="yes"/>
      <point x="53" y="411"/>
      <point x="30" y="382"/>
      <point x="30" y="351" type="curve" smooth="yes"/>
      <point x="30" y="268"/>
      <point x="129" y="207"/>
      <point x="221" y="207" type="curve" smooth="yes"/>
      <point x="331" y="207"/>
      <point x="435" y="268"/>
      <point x="435" y="418" type="curve" smooth="yes"/>
      <point x="435" y="514"/>
      <point x="361" y="668"/>
      <point x="233" y="668" type="curve" smooth="yes"/>
      <point x="163" y="668"/>
      <point x="122" y="611"/>
      <point x="122" y="545" type="curve" smooth="yes"/>
      <point x="122" y="457"/>
      <point x="194" y="394"/>
      <point x="246" y="394" type="curve" smooth="yes"/>
      <point x="262" y="394"/>
      <point x="276" y="400"/>
      <point x="285" y="412" type="curve"/>
      <point x="257" y="431"/>
      <point x="238" y="474"/>
      <point x="238" y="505" type="curve" smooth="yes"/>
      <point x="238" y="537"/>
      <point x="252" y="562"/>
    </contour>
    <contour>
      <point x="520" y="447" type="curve" smooth="yes"/>
      <point x="520" y="293"/>
      <point x="515" y="223"/>
      <point x="515" y="145" type="curve" smooth="yes"/>
      <point x="515" y="102"/>
      <point x="517" y="-7"/>
      <point x="621" y="-7" type="curve" smooth="yes"/>
      <point x="632" y="-7"/>
      <point x="648" y="-6"/>
      <point x="663" y="0" type="curve"/>
      <point x="652" y="18"/>
      <point x="648" y="69"/>
      <point x="648" y="105" type="curve" smooth="yes"/>
      <point x="648" y="208"/>
      <point x="653" y="322"/>
      <point x="653" y="431" type="curve" smooth="yes"/>
      <point x="653" y="483"/>
      <point x="649" y="570"/>
      <point x="549" y="570" type="curve"/>
      <point x="577" y="552" type="line"/>
      <point x="781" y="552" type="line"/>
      <point x="784" y="558"/>
      <point x="788" y="572"/>
      <point x="788" y="584" type="curve" smooth="yes"/>
      <point x="788" y="669"/>
      <point x="698" y="669"/>
      <point x="662" y="669" type="curve" smooth="yes"/>
      <point x="456" y="669" type="line"/>
      <point x="453" y="663"/>
      <point x="451" y="650"/>
      <point x="451" y="642" type="curve" smooth="yes"/>
      <point x="451" y="613"/>
      <point x="462" y="592"/>
      <point x="483" y="571" type="curve" smooth="yes"/>
      <point x="513" y="543"/>
      <point x="520" y="536"/>
    </contour>
  </outline>
</glyph>
